STARTFONT 2.1
COMMENT
COMMENT Converted from OpenType font "intelone-mono-font-family-regular.otf" by "otf2bdf 3.0".
COMMENT
FONT -FreeType-IntelOne Mono-Medium-R-Normal--33-240-100-100-P-155-ISO10646-1
SIZE 24 100 100
FONTBOUNDINGBOX 31 46 -7 -10
STARTPROPERTIES 19
FOUNDRY "FreeType"
FAMILY_NAME "IntelOne Mono"
WEIGHT_NAME "Medium"
SLANT "R"
SETWIDTH_NAME "Normal"
ADD_STYLE_NAME ""
PIXEL_SIZE 33
POINT_SIZE 240
RESOLUTION_X 100
RESOLUTION_Y 100
SPACING "P"
AVERAGE_WIDTH 155
CHARSET_REGISTRY "ISO10646"
CHARSET_ENCODING "1"
FONT_ASCENT 35
FONT_DESCENT 9
COPYRIGHT "(C) 2023 Intel Corporation"
_OTF_FONTFILE "intelone-mono-font-family-regular.otf"
_OTF_PSNAME "IntelOneMono-Regular"
ENDPROPERTIES
CHARS 622
STARTCHAR 0020
ENCODING 32
SWIDTH 600 0
DWIDTH 20 0
BBX 0 0 0 0
BITMAP
ENDCHAR
STARTCHAR 0021
ENCODING 33
SWIDTH 600 0
DWIDTH 20 0
BBX 5 24 8 0
BITMAP
F8
F8
F8
F8
F0
F0
F0
F0
F0
70
70
70
60
60
60
00
00
00
00
00
F0
F8
F8
F0
ENDCHAR
STARTCHAR 0022
ENCODING 34
SWIDTH 600 0
DWIDTH 20 0
BBX 13 10 4 14
BITMAP
F078
F070
F070
F070
F070
F070
F070
7070
7070
6070
ENDCHAR
STARTCHAR 0023
ENCODING 35
SWIDTH 600 0
DWIDTH 20 0
BBX 18 22 1 0
BITMAP
018600
018600
018600
038600
030600
030E00
7FFFC0
7FFFC0
7E0FC0
060C00
060C00
061800
061800
FC1F80
FFFF80
FFFF80
0C3000
0C3000
0C3000
1C3000
183000
186000
ENDCHAR
STARTCHAR 0024
ENCODING 36
SWIDTH 600 0
DWIDTH 20 0
BBX 16 32 2 -5
BITMAP
00C0
00C0
00C0
00C0
00C0
07F8
1FFE
3EFE
38C0
70C0
70C0
70C0
78C0
3CC0
1FC0
0FF0
03FC
01BE
018F
0187
0187
0187
0187
618E
7DBE
FFFC
0FF0
0180
0180
0180
0180
0180
ENDCHAR
STARTCHAR 0025
ENCODING 37
SWIDTH 600 0
DWIDTH 20 0
BBX 18 22 1 0
BITMAP
1F01C0
3F81C0
61C380
60C300
60C700
E0C600
60CC00
60CC00
719800
3F8000
1F0000
001F00
003F80
026180
0660C0
0CE0C0
0CC0C0
18E0C0
3860C0
706180
703F80
E01F00
ENDCHAR
STARTCHAR 0026
ENCODING 38
SWIDTH 600 0
DWIDTH 20 0
BBX 17 22 2 0
BITMAP
03F800
0FFC00
0E1800
1C0000
1C0000
1C0000
0C0000
0E0000
070200
070700
0F8600
3FCE00
78EE00
E0EC00
E07C00
E03800
E03C00
E07C00
E06E00
79E700
7FC780
1F0380
ENDCHAR
STARTCHAR 0027
ENCODING 39
SWIDTH 600 0
DWIDTH 20 0
BBX 4 10 8 14
BITMAP
F0
F0
F0
F0
F0
F0
70
70
70
70
ENDCHAR
STARTCHAR 0028
ENCODING 40
SWIDTH 600 0
DWIDTH 20 0
BBX 13 31 4 -4
BITMAP
0038
00F8
01E0
03C0
0780
0E00
1C00
3C00
3800
7000
7000
E000
E000
E000
E000
E000
E000
E000
E000
7000
7000
7800
3800
1C00
1E00
0F00
0780
01E0
00F0
0078
0010
ENDCHAR
STARTCHAR 0029
ENCODING 41
SWIDTH 600 0
DWIDTH 20 0
BBX 14 32 3 -5
BITMAP
4000
6000
F800
3C00
0F00
0780
03C0
01E0
00E0
0070
0070
0038
0038
0038
001C
001C
001C
001C
0038
0038
0038
0070
0070
00E0
01E0
03C0
0780
0F00
1E00
7800
F000
4000
ENDCHAR
STARTCHAR 002A
ENCODING 42
SWIDTH 600 0
DWIDTH 20 0
BBX 16 15 2 5
BITMAP
01C0
01C0
01C0
0180
4183
718F
FC9F
7FFE
0180
03C0
0660
0E38
3C3C
3C1E
181C
ENDCHAR
STARTCHAR 002B
ENCODING 43
SWIDTH 600 0
DWIDTH 20 0
BBX 16 16 2 3
BITMAP
01C0
01C0
01C0
01C0
01C0
01C0
01C0
FFFF
FFFF
01C0
01C0
01C0
01C0
01C0
01C0
01C0
ENDCHAR
STARTCHAR 002C
ENCODING 44
SWIDTH 600 0
DWIDTH 20 0
BBX 8 9 5 -5
BITMAP
1F
1F
1E
1E
3E
3C
78
70
E0
ENDCHAR
STARTCHAR 002D
ENCODING 45
SWIDTH 600 0
DWIDTH 20 0
BBX 12 3 4 8
BITMAP
FFF0
FFF0
FFF0
ENDCHAR
STARTCHAR 002E
ENCODING 46
SWIDTH 600 0
DWIDTH 20 0
BBX 6 5 7 0
BITMAP
7C
FC
FC
FC
78
ENDCHAR
STARTCHAR 002F
ENCODING 47
SWIDTH 600 0
DWIDTH 20 0
BBX 18 29 1 -4
BITMAP
0001C0
000380
000380
000700
000700
000E00
000E00
001C00
001C00
003800
003800
007000
007000
00E000
00E000
01C000
01C000
038000
038000
070000
060000
0E0000
1C0000
1C0000
380000
380000
700000
700000
E00000
ENDCHAR
STARTCHAR 0030
ENCODING 48
SWIDTH 600 0
DWIDTH 20 0
BBX 16 22 2 0
BITMAP
07E0
0FF8
1FFC
381E
700E
7007
600F
E01F
E03F
E0E7
E1C7
E387
EE07
FC07
F807
7007
700E
700E
381C
1F7C
0FF8
07E0
ENDCHAR
STARTCHAR 0031
ENCODING 49
SWIDTH 600 0
DWIDTH 20 0
BBX 14 22 4 0
BITMAP
0300
0700
1F00
7F00
F700
E700
8700
0700
0700
0700
0700
0700
0700
0700
0700
0700
0700
0700
0700
0700
FFFC
FFFC
ENDCHAR
STARTCHAR 0032
ENCODING 50
SWIDTH 600 0
DWIDTH 20 0
BBX 16 22 2 0
BITMAP
03F0
0FFC
3FFC
780E
F00E
6007
0006
000E
000E
001C
0038
0078
00F0
01E0
03C0
0780
0F00
1E00
3C00
7800
7FFF
7FFF
ENDCHAR
STARTCHAR 0033
ENCODING 51
SWIDTH 600 0
DWIDTH 20 0
BBX 15 22 3 0
BITMAP
FFFC
FFFC
0038
0070
00E0
01C0
0380
0700
0F00
0FE0
1FF8
003C
001C
000E
000E
000E
001E
003C
00F8
FFF0
FFC0
FC00
ENDCHAR
STARTCHAR 0034
ENCODING 52
SWIDTH 600 0
DWIDTH 20 0
BBX 17 22 2 0
BITMAP
007800
00F800
00D800
01D800
039800
031800
071800
0E1800
0C1800
181800
381800
701800
601800
E01800
FFFF80
FFFF80
003800
003800
003800
003800
003800
003800
ENDCHAR
STARTCHAR 0035
ENCODING 53
SWIDTH 600 0
DWIDTH 20 0
BBX 15 22 3 0
BITMAP
7FFC
7FFC
7000
7000
7000
6000
6000
6000
67F0
7FF8
783C
601C
000E
000E
000E
000E
001C
003C
00F8
FFF0
FFC0
FC00
ENDCHAR
STARTCHAR 0036
ENCODING 54
SWIDTH 600 0
DWIDTH 20 0
BBX 15 22 3 0
BITMAP
00F0
01E0
03C0
0780
0F00
1E00
3C00
7800
7FE0
FFF8
F03C
E01C
E00E
C00E
C00E
E00E
E00E
E01C
703C
7EF8
3FF0
0FC0
ENDCHAR
STARTCHAR 0037
ENCODING 55
SWIDTH 600 0
DWIDTH 20 0
BBX 16 22 2 0
BITMAP
FFFF
FFFF
FFFF
000E
000E
001C
001C
0038
0038
0070
0070
00E0
00E0
01C0
01C0
03C0
0380
0780
0700
0F00
0E00
1E00
ENDCHAR
STARTCHAR 0038
ENCODING 56
SWIDTH 600 0
DWIDTH 20 0
BBX 15 22 3 0
BITMAP
0FC0
3FF0
7CF8
703C
E01C
E01C
E01C
E01C
7038
3870
0FE0
1FF0
7838
E01C
E00E
C00E
C00E
E00E
F01C
7C7C
3FF0
0FC0
ENDCHAR
STARTCHAR 0039
ENCODING 57
SWIDTH 600 0
DWIDTH 20 0
BBX 16 22 2 0
BITMAP
07E0
1FF8
3F7C
381E
700E
7007
7007
E007
7007
7007
7007
3C0E
1FFE
0FFE
001C
0038
0078
00F0
01E0
03C0
0780
0F00
ENDCHAR
STARTCHAR 003A
ENCODING 58
SWIDTH 600 0
DWIDTH 20 0
BBX 6 16 7 0
BITMAP
78
7C
FC
FC
78
00
00
00
00
00
00
78
FC
FC
7C
78
ENDCHAR
STARTCHAR 003B
ENCODING 59
SWIDTH 600 0
DWIDTH 20 0
BBX 8 21 5 -5
BITMAP
0F
1F
1F
1F
1F
00
00
00
00
00
00
00
1F
1E
1E
1E
3C
3C
78
F0
E0
ENDCHAR
STARTCHAR 003C
ENCODING 60
SWIDTH 600 0
DWIDTH 20 0
BBX 16 16 2 3
BITMAP
0001
000F
003F
00FC
07E0
1F80
7E00
F000
F000
7C00
1F80
07E0
01FC
003F
000F
0003
ENDCHAR
STARTCHAR 003D
ENCODING 61
SWIDTH 600 0
DWIDTH 20 0
BBX 14 8 3 7
BITMAP
FFFC
FFFC
0000
0000
0000
0000
FFFC
FFFC
ENDCHAR
STARTCHAR 003E
ENCODING 62
SWIDTH 600 0
DWIDTH 20 0
BBX 15 16 3 3
BITMAP
8000
E000
F800
3F00
0FC0
03F0
007E
001E
001E
007E
01F8
0FC0
3F00
FC00
E000
8000
ENDCHAR
STARTCHAR 003F
ENCODING 63
SWIDTH 600 0
DWIDTH 20 0
BBX 16 24 2 0
BITMAP
07F0
7FFC
FF3E
600F
0007
0007
0007
000F
001E
007C
01F8
07E0
0780
0700
0600
0600
0000
0000
0000
0000
0F00
0F80
0F80
0F00
ENDCHAR
STARTCHAR 0040
ENCODING 64
SWIDTH 600 0
DWIDTH 20 0
BBX 17 27 2 -3
BITMAP
03F000
0FFC00
180600
300200
600300
600300
400100
40FF00
C1FF80
C38180
C30180
C70180
C70180
C60180
C70180
C70100
C30300
C38700
C1FE00
C0FC00
600000
600000
300000
380000
1C0000
0FFC00
01F000
ENDCHAR
STARTCHAR 0041
ENCODING 65
SWIDTH 600 0
DWIDTH 20 0
BBX 18 22 1 0
BITMAP
01E000
01F000
01F000
03F000
03B000
033800
073800
071800
061C00
0E1C00
0E1C00
0E0E00
1C0E00
1C0E00
1FFF00
3FFF00
380700
380380
700380
700380
7001C0
E001C0
ENDCHAR
STARTCHAR 0042
ENCODING 66
SWIDTH 600 0
DWIDTH 20 0
BBX 16 22 3 0
BITMAP
FFE0
FFF8
E03C
E01C
E00E
E00E
E00E
E01C
E03C
E0F0
FFC0
FFF0
E03C
E00E
E00E
E007
E007
E007
E00E
E03E
FFFC
FFF0
ENDCHAR
STARTCHAR 0043
ENCODING 67
SWIDTH 600 0
DWIDTH 20 0
BBX 17 22 2 0
BITMAP
03F000
0FFC00
1FBF00
3C0700
780200
700000
700000
E00000
E00000
E00000
E00000
E00000
E00000
E00000
E00000
F00000
700000
780100
3C0780
1F3F00
0FFC00
03F000
ENDCHAR
STARTCHAR 0044
ENCODING 68
SWIDTH 600 0
DWIDTH 20 0
BBX 16 22 3 0
BITMAP
FF00
FFE0
E7F0
E078
E03C
E01E
E00E
E00E
E007
E007
E007
E007
E007
E00E
E00E
E00E
E01C
E03C
E078
EFF0
FFC0
FE00
ENDCHAR
STARTCHAR 0045
ENCODING 69
SWIDTH 600 0
DWIDTH 20 0
BBX 15 22 3 0
BITMAP
FFFE
FFFE
E000
E000
E000
E000
E000
E000
E000
E000
FFF8
FFF8
E000
E000
E000
E000
E000
E000
E000
E000
FFFE
FFFE
ENDCHAR
STARTCHAR 0046
ENCODING 70
SWIDTH 600 0
DWIDTH 20 0
BBX 15 22 3 0
BITMAP
FFFE
FFFE
E000
E000
E000
E000
E000
E000
E000
E000
E000
FFFC
FFFC
E000
E000
E000
E000
E000
E000
E000
E000
E000
ENDCHAR
STARTCHAR 0047
ENCODING 71
SWIDTH 600 0
DWIDTH 20 0
BBX 16 22 2 0
BITMAP
01FE
07FE
1FCE
3E00
3800
7000
7000
E000
E000
E000
E0FF
E0FF
E003
E003
E003
F003
7003
7803
3C03
1F9F
0FFF
03FE
ENDCHAR
STARTCHAR 0048
ENCODING 72
SWIDTH 600 0
DWIDTH 20 0
BBX 14 22 3 0
BITMAP
E01C
E01C
E01C
E01C
E01C
E01C
E01C
E01C
E01C
E01C
FFFC
FFFC
E01C
E01C
E01C
E01C
E01C
E01C
E01C
E01C
E01C
E01C
ENDCHAR
STARTCHAR 0049
ENCODING 73
SWIDTH 600 0
DWIDTH 20 0
BBX 12 22 4 0
BITMAP
FFF0
7FF0
0700
0700
0700
0700
0700
0700
0700
0700
0700
0700
0700
0700
0700
0700
0700
0700
0700
0700
7FF0
FFF0
ENDCHAR
STARTCHAR 004A
ENCODING 74
SWIDTH 600 0
DWIDTH 20 0
BBX 15 22 2 0
BITMAP
000E
000E
000E
000E
000E
000E
000E
000E
000E
000E
000E
000E
000E
000E
000E
400E
E00E
F00E
7C1E
3FFC
0FF8
03F0
ENDCHAR
STARTCHAR 004B
ENCODING 75
SWIDTH 600 0
DWIDTH 20 0
BBX 16 22 3 0
BITMAP
E00F
E01E
E03C
E038
E070
E0E0
E1C0
E380
E700
EF00
FE00
FE00
EF00
E780
E3C0
E1E0
E0F0
E078
E03C
E01C
E00E
E00F
ENDCHAR
STARTCHAR 004C
ENCODING 76
SWIDTH 600 0
DWIDTH 20 0
BBX 15 22 3 0
BITMAP
E000
E000
E000
E000
E000
E000
E000
E000
E000
E000
E000
E000
E000
E000
E000
E000
E000
E000
E000
E000
FFFE
FFFE
ENDCHAR
STARTCHAR 004D
ENCODING 77
SWIDTH 600 0
DWIDTH 20 0
BBX 16 22 2 0
BITMAP
700F
780F
781F
7C1F
6C1F
6C37
6E37
6637
6667
6767
63E7
E3C7
E1C7
E187
E187
E087
E007
E003
E003
E003
E003
E003
ENDCHAR
STARTCHAR 004E
ENCODING 78
SWIDTH 600 0
DWIDTH 20 0
BBX 14 22 3 0
BITMAP
F00C
F00C
F80C
F80C
FC0C
FC0C
EE0C
EE0C
E70C
E70C
E30C
E38C
E18C
E1CC
E0CC
E0EC
E0EC
E07C
E07C
E03C
E03C
E01C
ENDCHAR
STARTCHAR 004F
ENCODING 79
SWIDTH 600 0
DWIDTH 20 0
BBX 17 22 2 0
BITMAP
07E000
1FF800
3E7C00
381E00
700E00
700700
E00700
E00700
E00700
E00380
E00380
E00380
E00380
E00700
E00700
E00700
700700
700E00
381E00
3E7C00
1FF800
07E000
ENDCHAR
STARTCHAR 0050
ENCODING 80
SWIDTH 600 0
DWIDTH 20 0
BBX 16 22 3 0
BITMAP
FFE0
FFF8
E0FC
E01E
E00F
E007
E007
E007
E007
E00F
E00E
E03E
FFFC
FFF0
E000
E000
E000
E000
E000
E000
E000
E000
ENDCHAR
STARTCHAR 0051
ENCODING 81
SWIDTH 600 0
DWIDTH 20 0
BBX 18 26 2 -5
BITMAP
07E000
1FF800
3E7C00
381E00
700E00
700700
E00700
E00700
E00700
E00380
E00380
E00380
E00380
E00700
E0C700
E0E700
706700
707E00
383E00
3E3C00
1FFC00
07EE00
000700
000380
0003C0
0001C0
ENDCHAR
STARTCHAR 0052
ENCODING 82
SWIDTH 600 0
DWIDTH 20 0
BBX 16 22 3 0
BITMAP
FFE0
FFF8
E07C
E01E
E00E
E00E
E00E
E00E
E01C
E03C
E1F8
FFE0
FE00
E780
E1C0
E0E0
E0F0
E078
E03C
E01C
E00E
E00F
ENDCHAR
STARTCHAR 0053
ENCODING 83
SWIDTH 600 0
DWIDTH 20 0
BBX 15 22 3 0
BITMAP
0FF0
3FFC
7E7C
7000
E000
E000
E000
F000
7800
3F00
1FE0
07F8
007C
001E
000E
000E
000E
000E
C01C
FCFC
FFF8
1FE0
ENDCHAR
STARTCHAR 0054
ENCODING 84
SWIDTH 600 0
DWIDTH 20 0
BBX 17 22 2 0
BITMAP
FFFF80
FFFF80
01C000
01C000
01C000
01C000
01C000
01C000
01C000
01C000
01C000
01C000
01C000
01C000
01C000
01C000
01C000
01C000
01C000
01C000
01C000
01C000
ENDCHAR
STARTCHAR 0055
ENCODING 85
SWIDTH 600 0
DWIDTH 20 0
BBX 15 22 3 0
BITMAP
C00E
C00E
C00E
C00E
C00E
C00E
C00E
C00E
C00E
C00E
C00E
C00E
C00E
C00E
C00E
E00E
E00E
E01C
F03C
7FF8
3FF0
0FE0
ENDCHAR
STARTCHAR 0056
ENCODING 86
SWIDTH 600 0
DWIDTH 20 0
BBX 18 22 1 0
BITMAP
F001C0
7001C0
700380
700380
380380
380300
380700
1C0700
1C0600
1C0E00
0E0E00
0E0C00
0E1C00
071C00
071800
073800
03B800
03B000
03F000
01F000
01E000
01E000
ENDCHAR
STARTCHAR 0057
ENCODING 87
SWIDTH 600 0
DWIDTH 20 0
BBX 17 22 2 0
BITMAP
C00380
E00380
E00380
E00300
E08300
E08300
E18700
618700
61C700
61C700
73C700
73C600
736600
726600
766600
366E00
363E00
343E00
3C3C00
3C3C00
3C1C00
381C00
ENDCHAR
STARTCHAR 0058
ENCODING 88
SWIDTH 600 0
DWIDTH 20 0
BBX 17 22 2 0
BITMAP
F00700
700E00
380E00
381C00
1C3C00
1E3800
0E7000
077000
07E000
03C000
03C000
03C000
07E000
077000
0E7000
0E3800
1C3C00
381C00
381E00
700E00
F00700
E00780
ENDCHAR
STARTCHAR 0059
ENCODING 89
SWIDTH 600 0
DWIDTH 20 0
BBX 17 22 2 0
BITMAP
E00380
F00700
700F00
780E00
381C00
1C1C00
1C3800
0E3800
0F7000
07F000
03E000
03C000
01C000
01C000
01C000
01C000
01C000
01C000
01C000
01C000
01C000
01C000
ENDCHAR
STARTCHAR 005A
ENCODING 90
SWIDTH 600 0
DWIDTH 20 0
BBX 16 22 2 0
BITMAP
7FFF
7FFF
7FFE
001E
001C
0038
0078
0070
00E0
01E0
01C0
0380
0780
0700
0E00
1E00
1C00
3800
7800
7000
FFFF
FFFF
ENDCHAR
STARTCHAR 005B
ENCODING 91
SWIDTH 600 0
DWIDTH 20 0
BBX 11 30 6 -4
BITMAP
FFE0
FFE0
E000
E000
E000
E000
E000
E000
E000
E000
E000
E000
E000
E000
E000
E000
E000
E000
E000
E000
E000
E000
E000
E000
E000
E000
E000
E000
FFE0
FFE0
ENDCHAR
STARTCHAR 005C
ENCODING 92
SWIDTH 600 0
DWIDTH 20 0
BBX 17 29 2 -4
BITMAP
E00000
E00000
700000
700000
380000
380000
1C0000
1C0000
0E0000
0E0000
070000
070000
038000
038000
01C000
01C000
00E000
00E000
007000
007000
003800
003800
001C00
000E00
000E00
000700
000700
000380
000380
ENDCHAR
STARTCHAR 005D
ENCODING 93
SWIDTH 600 0
DWIDTH 20 0
BBX 11 30 3 -4
BITMAP
FFE0
FFE0
00E0
00E0
00E0
00E0
00E0
00E0
00E0
00E0
00E0
00E0
00E0
00E0
00E0
00E0
00E0
00E0
00E0
00E0
00E0
00E0
00E0
00E0
00E0
00E0
00E0
00E0
FFE0
FFE0
ENDCHAR
STARTCHAR 005E
ENCODING 94
SWIDTH 600 0
DWIDTH 20 0
BBX 17 13 2 9
BITMAP
03C000
03E000
07E000
067000
0E7000
0C3800
1C3800
181C00
381C00
700E00
700F00
E00700
E00380
ENDCHAR
STARTCHAR 005F
ENCODING 95
SWIDTH 600 0
DWIDTH 20 0
BBX 15 3 3 -4
BITMAP
FFFE
FFFE
FFFE
ENDCHAR
STARTCHAR 0060
ENCODING 96
SWIDTH 600 0
DWIDTH 20 0
BBX 8 7 5 18
BITMAP
40
E0
F0
3C
1E
07
02
ENDCHAR
STARTCHAR 0061
ENCODING 97
SWIDTH 600 0
DWIDTH 20 0
BBX 17 16 2 0
BITMAP
3FE000
3FF800
383C00
001C00
001C00
001C00
007C00
1FFC00
7F1C00
701C00
E01C00
E01C00
E03C00
71FE00
7FCF80
1F0780
ENDCHAR
STARTCHAR 0062
ENCODING 98
SWIDTH 600 0
DWIDTH 20 0
BBX 15 24 3 0
BITMAP
E000
E000
E000
E000
E000
E000
E000
E000
E3E0
EFF8
FEFC
F81C
E00E
E00E
E00E
E006
E006
E00E
E00E
E01E
E03C
FDF8
FFF0
8FC0
ENDCHAR
STARTCHAR 0063
ENCODING 99
SWIDTH 600 0
DWIDTH 20 0
BBX 16 16 2 0
BITMAP
03F0
0FFC
1FFF
3806
7000
7000
E000
E000
E000
E000
7000
7000
3806
3F7F
1FFC
07F0
ENDCHAR
STARTCHAR 0064
ENCODING 100
SWIDTH 600 0
DWIDTH 20 0
BBX 15 24 2 0
BITMAP
0006
0006
0006
0006
0006
0006
0006
0006
07C6
1FF6
3E7E
780E
7006
E006
E006
E006
E006
E006
E006
F00E
781E
3E76
1FE6
0F86
ENDCHAR
STARTCHAR 0065
ENCODING 101
SWIDTH 600 0
DWIDTH 20 0
BBX 16 16 2 0
BITMAP
03F0
0FF8
1E3C
380E
7006
7007
6007
7FFF
FFFF
6000
7000
7000
7800
3F00
1FF8
07F8
ENDCHAR
STARTCHAR 0066
ENCODING 102
SWIDTH 600 0
DWIDTH 20 0
BBX 16 24 2 0
BITMAP
001F
00FF
01FE
03C0
0380
0380
0380
0380
0380
FFFE
FFFE
0380
0380
0380
0380
0380
0380
0380
0380
0380
0380
0380
0380
0380
ENDCHAR
STARTCHAR 0067
ENCODING 103
SWIDTH 600 0
DWIDTH 20 0
BBX 15 24 2 -8
BITMAP
07E2
1FFE
3F7E
780E
7006
E006
E006
E006
E006
E006
F00E
701E
7C3E
3FF6
1FC6
0006
0006
000E
000E
000E
001E
0FFC
1FF8
1FC0
ENDCHAR
STARTCHAR 0068
ENCODING 104
SWIDTH 600 0
DWIDTH 20 0
BBX 14 24 3 0
BITMAP
E000
E000
E000
E000
E000
E000
E000
E000
E1F0
E7F8
EFFC
FC1C
F81C
F00C
E00C
E00C
E00C
E00C
E00C
E00C
E00C
E00C
E00C
E00C
ENDCHAR
STARTCHAR 0069
ENCODING 105
SWIDTH 600 0
DWIDTH 20 0
BBX 14 25 4 0
BITMAP
0700
0F80
0F80
0F00
0000
0000
0000
0000
0000
FF00
FF00
0700
0700
0700
0700
0700
0700
0700
0700
0700
0700
0700
0700
FFFC
FFFC
ENDCHAR
STARTCHAR 006A
ENCODING 106
SWIDTH 600 0
DWIDTH 20 0
BBX 12 33 3 -8
BITMAP
01E0
01E0
01F0
01E0
0000
0000
0000
0000
0000
7FE0
7FE0
00E0
00E0
00E0
00E0
00E0
00E0
00E0
00E0
00E0
00E0
00E0
00E0
00E0
00E0
00E0
00E0
00E0
00E0
01E0
7FC0
FF80
FC00
ENDCHAR
STARTCHAR 006B
ENCODING 107
SWIDTH 600 0
DWIDTH 20 0
BBX 14 24 4 0
BITMAP
E000
E000
E000
E000
E000
E000
E000
E000
E03C
E078
E0F0
E1C0
E380
EF00
FE00
FC00
FE00
EF00
E780
E3C0
E1E0
E0F0
E078
E03C
ENDCHAR
STARTCHAR 006C
ENCODING 108
SWIDTH 600 0
DWIDTH 20 0
BBX 16 24 2 0
BITMAP
FF80
FF80
0380
0380
0380
0380
0380
0380
0380
0380
0380
0380
0380
0380
0380
0380
0380
0380
0380
0380
03C0
01FE
01FF
003E
ENDCHAR
STARTCHAR 006D
ENCODING 109
SWIDTH 600 0
DWIDTH 20 0
BBX 17 16 2 0
BITMAP
C78F00
CF9F80
DFBF80
F1F380
E1E380
E1C380
C1C380
C1C380
C1C380
C1C380
C1C380
C1C380
C1C380
C1C380
C1C380
C1C380
ENDCHAR
STARTCHAR 006E
ENCODING 110
SWIDTH 600 0
DWIDTH 20 0
BBX 14 16 3 0
BITMAP
E1F0
E7F8
EFFC
FC1C
F81C
F00C
E00C
E00C
E00C
E00C
E00C
E00C
E00C
E00C
E00C
E00C
ENDCHAR
STARTCHAR 006F
ENCODING 111
SWIDTH 600 0
DWIDTH 20 0
BBX 16 16 2 0
BITMAP
07E0
1FF8
3F7C
780E
700F
E007
E007
E007
E007
E007
E007
700F
780E
3F7C
1FF8
07E0
ENDCHAR
STARTCHAR 0070
ENCODING 112
SWIDTH 600 0
DWIDTH 20 0
BBX 15 24 3 -8
BITMAP
E3E0
EFF8
FEFC
F81C
E00E
E00E
E00E
E006
E006
E00E
E00E
E01E
F01C
FCF8
EFF0
E7E0
E000
E000
E000
E000
E000
E000
E000
E000
ENDCHAR
STARTCHAR 0071
ENCODING 113
SWIDTH 600 0
DWIDTH 20 0
BBX 15 24 2 -8
BITMAP
07E2
1FFE
3F3E
780E
7006
E006
E006
E006
E006
E006
E006
700E
781E
3E76
1FE6
0FC6
0006
0006
0006
0006
0006
0006
0006
0006
ENDCHAR
STARTCHAR 0072
ENCODING 114
SWIDTH 600 0
DWIDTH 20 0
BBX 17 16 2 0
BITMAP
FC0F80
FC3F80
0C7F80
0CE000
0DC000
0D8000
0F0000
0E0000
0E0000
0E0000
0E0000
0E0000
0E0000
0E0000
FFF000
FFF000
ENDCHAR
STARTCHAR 0073
ENCODING 115
SWIDTH 600 0
DWIDTH 20 0
BBX 14 16 3 0
BITMAP
0FF8
3FFC
7C38
7000
6000
7000
7E00
3FE0
07F8
007C
001C
001C
001C
F07C
FFF8
7FE0
ENDCHAR
STARTCHAR 0074
ENCODING 116
SWIDTH 600 0
DWIDTH 20 0
BBX 16 22 2 0
BITMAP
0700
0700
0700
0700
0700
0700
FFFE
FFFE
0700
0700
0700
0700
0700
0700
0700
0700
0700
0700
0380
03FE
01FF
007F
ENDCHAR
STARTCHAR 0075
ENCODING 117
SWIDTH 600 0
DWIDTH 20 0
BBX 14 16 3 0
BITMAP
E01C
E01C
E01C
E01C
E01C
E01C
E01C
E01C
E01C
E01C
E01C
E03C
E0EC
FFCC
7F8C
3E0C
ENDCHAR
STARTCHAR 0076
ENCODING 118
SWIDTH 600 0
DWIDTH 20 0
BBX 16 16 2 0
BITMAP
E007
F007
7007
700E
380E
381C
1C1C
1C18
1C38
0E38
0E70
0770
0760
07E0
03E0
03C0
ENDCHAR
STARTCHAR 0077
ENCODING 119
SWIDTH 600 0
DWIDTH 20 0
BBX 17 16 2 0
BITMAP
C00380
C00380
E08380
E08300
E18300
61C700
61C700
73C600
73E600
736600
366E00
367E00
363C00
3C3C00
3C3C00
1C1C00
ENDCHAR
STARTCHAR 0078
ENCODING 120
SWIDTH 600 0
DWIDTH 20 0
BBX 15 16 3 0
BITMAP
E01C
703C
7838
3C70
1CE0
0EE0
0FC0
0780
07C0
0FC0
1CE0
1C70
3878
7038
F01C
E00E
ENDCHAR
STARTCHAR 0079
ENCODING 121
SWIDTH 600 0
DWIDTH 20 0
BBX 16 24 2 -8
BITMAP
E007
F007
7007
700E
380E
380C
1C1C
1C1C
1C38
0E38
0E30
0770
0770
07E0
03E0
03C0
01C0
0180
0380
0380
0700
7F00
FE00
F800
ENDCHAR
STARTCHAR 007A
ENCODING 122
SWIDTH 600 0
DWIDTH 20 0
BBX 15 16 3 0
BITMAP
FFFC
FFFC
003C
0078
0070
00E0
01C0
0380
0780
0F00
1E00
3C00
7800
F000
FFFE
FFFE
ENDCHAR
STARTCHAR 007B
ENCODING 123
SWIDTH 600 0
DWIDTH 20 0
BBX 16 31 2 -4
BITMAP
000F
01FF
07FE
0780
0700
0700
0380
03C0
01E0
00F0
0070
0070
01E0
0FC0
FE00
E000
FC00
3F80
03E0
00F0
0070
00F0
00E0
01C0
0380
0700
0700
0F00
07F8
03FF
003F
ENDCHAR
STARTCHAR 007C
ENCODING 124
SWIDTH 600 0
DWIDTH 20 0
BBX 3 29 9 -4
BITMAP
E0
E0
E0
E0
E0
E0
E0
E0
E0
E0
E0
E0
E0
E0
E0
E0
E0
E0
E0
E0
E0
E0
E0
E0
E0
E0
E0
E0
E0
ENDCHAR
STARTCHAR 007D
ENCODING 125
SWIDTH 600 0
DWIDTH 20 0
BBX 16 31 2 -4
BITMAP
F000
FFC0
7FE0
00F0
0070
00F0
01E0
01C0
0380
0700
0F00
0F00
07C0
01F8
003F
0007
001F
01FC
07E0
0700
0F00
0700
0780
03C0
01E0
00E0
0070
0070
1FF0
FFE0
FE00
ENDCHAR
STARTCHAR 007E
ENCODING 126
SWIDTH 600 0
DWIDTH 20 0
BBX 17 8 2 7
BITMAP
1C0100
3E0380
7F0380
77C700
E1E700
E0FE00
C07E00
C01C00
ENDCHAR
STARTCHAR 00A0
ENCODING 160
SWIDTH 600 0
DWIDTH 20 0
BBX 0 0 0 0
BITMAP
ENDCHAR
STARTCHAR 00A1
ENCODING 161
SWIDTH 600 0
DWIDTH 20 0
BBX 5 24 8 0
BITMAP
F0
F8
F8
F0
00
00
00
00
60
60
60
70
70
70
70
F0
F0
F0
F0
F0
F8
F8
F8
F8
ENDCHAR
STARTCHAR 00A2
ENCODING 162
SWIDTH 600 0
DWIDTH 20 0
BBX 16 26 2 -5
BITMAP
00C0
00C0
00C0
00C0
00C0
07F8
1FFE
3EDF
78C6
70C0
70C0
E0C0
E0C0
E0C0
E0C0
70C0
70C0
38C6
3EFF
1FFC
07F0
00C0
00C0
00C0
00C0
00C0
ENDCHAR
STARTCHAR 00A3
ENCODING 163
SWIDTH 600 0
DWIDTH 20 0
BBX 16 22 2 0
BITMAP
07E0
1FF8
3F7E
380F
7007
7002
7000
3800
3C00
1E00
0F00
0700
7FFE
7FFE
0700
0700
0E00
1C00
3800
7000
FFFF
FFFF
ENDCHAR
STARTCHAR 00A5
ENCODING 165
SWIDTH 600 0
DWIDTH 20 0
BBX 17 22 2 0
BITMAP
E00380
F00700
700F00
380E00
381C00
1C1C00
1C3800
0E3000
077000
07E000
03C000
7FFF00
7FFF00
01C000
01C000
01C000
7FFF00
7FFF00
01C000
01C000
01C000
01C000
ENDCHAR
STARTCHAR 00A7
ENCODING 167
SWIDTH 600 0
DWIDTH 20 0
BBX 16 30 2 -8
BITMAP
07F8
1FFE
3E3E
3800
3000
3800
3C00
1F00
0FC0
07F8
0FFC
3C3E
700F
E007
E003
E003
E007
F00E
7C1C
3F78
0FE0
03F8
00FC
001C
000E
000E
000E
3C7C
3FF8
1FF0
ENDCHAR
STARTCHAR 00A8
ENCODING 168
SWIDTH 600 0
DWIDTH 20 0
BBX 12 4 4 19
BITMAP
6060
F0F0
F0F0
7070
ENDCHAR
STARTCHAR 00A9
ENCODING 169
SWIDTH 600 0
DWIDTH 20 0
BBX 17 27 2 -3
BITMAP
07E000
1FF800
380C00
200600
600200
41C300
43E300
C73300
C61100
CC0100
CC0100
8C0180
8C0180
8C0180
CC0180
CC0100
CC0100
C61100
C63100
C3E300
41C300
600200
600600
300C00
1C1C00
0FF000
008000
ENDCHAR
STARTCHAR 00AA
ENCODING 170
SWIDTH 600 0
DWIDTH 20 0
BBX 13 17 4 6
BITMAP
7F80
7FC0
00E0
0060
0060
3FE0
F860
C060
C0E0
C1E0
FF78
7C38
0000
0000
0000
FFF8
FFF8
ENDCHAR
STARTCHAR 00AB
ENCODING 171
SWIDTH 600 0
DWIDTH 20 0
BBX 16 16 2 0
BITMAP
0101
0303
0707
0E0E
1C1C
3838
7070
E0E0
E0E0
F070
3838
1C1C
0E0E
0707
0303
0101
ENDCHAR
STARTCHAR 00AE
ENCODING 174
SWIDTH 600 0
DWIDTH 20 0
BBX 16 17 2 7
BITMAP
07E0
1C38
300C
6006
47E2
4673
C631
C661
C7C1
C6C1
C661
4663
4632
2006
300C
1C38
07E0
ENDCHAR
STARTCHAR 00AF
ENCODING 175
SWIDTH 600 0
DWIDTH 20 0
BBX 11 2 5 19
BITMAP
FFE0
FFE0
ENDCHAR
STARTCHAR 00B0
ENCODING 176
SWIDTH 600 0
DWIDTH 20 0
BBX 14 13 3 10
BITMAP
0FC0
1FF0
3878
7018
601C
E00C
E00C
E00C
601C
7018
3878
1FF0
0FC0
ENDCHAR
STARTCHAR 00B1
ENCODING 177
SWIDTH 600 0
DWIDTH 20 0
BBX 16 22 2 0
BITMAP
01C0
01C0
01C0
01C0
01C0
01C0
FFFF
FFFF
01C0
01C0
01C0
01C0
01C0
01C0
01C0
0000
0000
0000
0000
0000
FFFF
FFFF
ENDCHAR
STARTCHAR 00B2
ENCODING 178
SWIDTH 600 0
DWIDTH 20 0
BBX 10 13 5 11
BITMAP
1F00
3F80
E1C0
40C0
00C0
0180
0380
0700
0E00
1800
3000
7FC0
7FC0
ENDCHAR
STARTCHAR 00B3
ENCODING 179
SWIDTH 600 0
DWIDTH 20 0
BBX 10 13 5 11
BITMAP
FFC0
FF80
0300
0600
0C00
1F00
1FC0
00C0
00C0
00C0
03C0
7F80
7C00
ENDCHAR
STARTCHAR 00B4
ENCODING 180
SWIDTH 600 0
DWIDTH 20 0
BBX 8 7 7 18
BITMAP
01
03
0F
1E
38
F0
40
ENDCHAR
STARTCHAR 00B5
ENCODING 181
SWIDTH 600 0
DWIDTH 20 0
BBX 14 24 3 -8
BITMAP
E01C
E01C
E01C
E01C
E01C
E01C
E01C
E01C
E01C
E01C
E01C
E07C
E0EC
FFCC
FF8C
EF0C
E000
E000
E000
E000
E000
E000
E000
E000
ENDCHAR
STARTCHAR 00B6
ENCODING 182
SWIDTH 600 0
DWIDTH 20 0
BBX 14 22 3 0
BITMAP
0FFC
3FFC
7F1C
FF1C
FF1C
FF1C
FF1C
FF1C
FF1C
FF1C
7F1C
1F1C
011C
001C
001C
001C
001C
001C
001C
001C
001C
001C
ENDCHAR
STARTCHAR 00B7
ENCODING 183
SWIDTH 600 0
DWIDTH 20 0
BBX 6 5 7 9
BITMAP
78
7C
FC
FC
7C
ENDCHAR
STARTCHAR 00B8
ENCODING 184
SWIDTH 600 0
DWIDTH 20 0
BBX 8 10 7 -9
BITMAP
10
30
30
38
7F
03
03
0F
FE
F0
ENDCHAR
STARTCHAR 00B9
ENCODING 185
SWIDTH 600 0
DWIDTH 20 0
BBX 9 13 6 11
BITMAP
0C00
3C00
FC00
CC00
0C00
0C00
0C00
0C00
0C00
0C00
0C00
FF80
FF80
ENDCHAR
STARTCHAR 00BA
ENCODING 186
SWIDTH 600 0
DWIDTH 20 0
BBX 13 17 4 6
BITMAP
0F80
3FE0
70F0
E070
C030
C038
C038
C030
E070
70E0
3FE0
0F80
0000
0000
0000
FFF0
FFF0
ENDCHAR
STARTCHAR 00BB
ENCODING 187
SWIDTH 600 0
DWIDTH 20 0
BBX 15 16 3 0
BITMAP
8100
8080
C0C0
E0F0
7878
3C3C
1E1E
0E0E
0E0E
1E1E
3C3C
7878
F0F0
C0C0
8080
8100
ENDCHAR
STARTCHAR 00BC
ENCODING 188
SWIDTH 600 0
DWIDTH 20 0
BBX 20 30 0 -8
BITMAP
0C0000
3C0000
FC0000
EC0000
8C0000
0C0000
0C0020
0C0070
0C00E0
0C01C0
0C0380
FF8700
FF8C00
001800
003000
004000
018000
030300
060700
1C0D00
381900
701900
F03100
606100
006100
00FFE0
00FFE0
000300
000300
000300
ENDCHAR
STARTCHAR 00BD
ENCODING 189
SWIDTH 600 0
DWIDTH 20 0
BBX 20 30 0 -8
BITMAP
0C0000
3C0000
FC0000
EC0000
8C0000
0C0000
0C0020
0C0070
0C00E0
0C01C0
0C0380
FF8600
FF8C00
001800
002000
00C000
018780
031FC0
0638E0
1C2060
380060
7000E0
E000C0
400180
000300
000600
000C00
001800
003FE0
003FE0
ENDCHAR
STARTCHAR 00BE
ENCODING 190
SWIDTH 600 0
DWIDTH 20 0
BBX 20 30 0 -8
BITMAP
7FC000
7FC000
038000
060000
0C0000
1F8000
1FC030
00C070
00C0E0
00C1C0
03C380
7F8600
7C0C00
001800
003000
004000
018000
030300
060700
1C0D00
381900
701900
F03100
606100
006100
00FFE0
00FFE0
000300
000300
000300
ENDCHAR
STARTCHAR 00BF
ENCODING 191
SWIDTH 600 0
DWIDTH 20 0
BBX 15 24 3 0
BITMAP
01E0
01F0
01F0
01F0
0000
0000
0000
0000
00C0
00C0
00E0
03E0
0FC0
1F00
7C00
F000
E000
E000
E000
E000
E00E
FDFE
7FFC
1FE0
ENDCHAR
STARTCHAR 00C0
ENCODING 192
SWIDTH 600 0
DWIDTH 20 0
BBX 18 31 1 0
BITMAP
080000
0E0000
0F0000
03C000
01E000
007000
000000
000000
000000
01E000
01F000
01F000
03F000
03B000
033800
073800
071800
061C00
0E1C00
0E1C00
0E0E00
1C0E00
1C0E00
1FFF00
3FFF00
380700
380380
700380
700380
7001C0
E001C0
ENDCHAR
STARTCHAR 00C1
ENCODING 193
SWIDTH 600 0
DWIDTH 20 0
BBX 18 31 1 0
BITMAP
000400
000E00
003C00
00F800
01E000
018000
000000
000000
000000
01E000
01F000
01F000
03F000
03B000
033800
073800
071800
061C00
0E1C00
0E1C00
0E0E00
1C0E00
1C0E00
1FFF00
3FFF00
380700
380380
700380
700380
7001C0
E001C0
ENDCHAR
STARTCHAR 00C2
ENCODING 194
SWIDTH 600 0
DWIDTH 20 0
BBX 18 31 1 0
BITMAP
00C000
01E000
03F000
073800
0E1C00
1C0600
000200
000000
000000
01E000
01F000
01F000
03F000
03B000
033800
073800
071800
061C00
0E1C00
0E1C00
0E0E00
1C0E00
1C0E00
1FFF00
3FFF00
380700
380380
700380
700380
7001C0
E001C0
ENDCHAR
STARTCHAR 00C3
ENCODING 195
SWIDTH 600 0
DWIDTH 20 0
BBX 18 30 1 0
BITMAP
070300
0F8600
1CE600
187C00
383800
000000
000000
000000
01E000
01F000
01F000
03F000
03B000
033800
073800
071800
061C00
0E1C00
0E1C00
0E0E00
1C0E00
1C0E00
1FFF00
3FFF00
380700
380380
700380
700380
7001C0
E001C0
ENDCHAR
STARTCHAR 00C4
ENCODING 196
SWIDTH 600 0
DWIDTH 20 0
BBX 18 29 1 0
BITMAP
1C0E00
1E1E00
1E1E00
1C0E00
000000
000000
000000
01E000
01F000
01F000
03F000
03B000
033800
073800
071800
061C00
0E1C00
0E1C00
0E0E00
1C0E00
1C0E00
1FFF00
3FFF00
380700
380380
700380
700380
7001C0
E001C0
ENDCHAR
STARTCHAR 00C5
ENCODING 197
SWIDTH 600 0
DWIDTH 20 0
BBX 18 28 1 0
BITMAP
01E000
07F800
0E1C00
0C0C00
0C0C00
0E0C00
07FC00
03F000
01F000
03F000
03B800
033800
073800
071800
061C00
0E1C00
0E1C00
0E0E00
1C0E00
1C0E00
1FFF00
3FFF00
380700
380380
700380
700380
7001C0
E001C0
ENDCHAR
STARTCHAR 00C6
ENCODING 198
SWIDTH 600 0
DWIDTH 20 0
BBX 20 22 0 0
BITMAP
01FFF0
01FFF0
03B800
03B800
033800
073800
073800
063800
0E3800
0E3800
0C3FE0
1C3FE0
1C3800
183800
3FF800
3FF800
303800
703800
703800
603800
E03FF0
E03FF0
ENDCHAR
STARTCHAR 00C7
ENCODING 199
SWIDTH 600 0
DWIDTH 20 0
BBX 17 30 2 -9
BITMAP
03F000
0FFC00
1FBF00
3C0700
780200
700000
700000
E00000
E00000
E00000
E00000
E00000
E00000
E00000
E00000
E00000
700000
780100
3C0780
1F3F00
0FFC00
07F000
00C000
008000
01F800
007C00
000C00
001C00
01FC00
07F000
ENDCHAR
STARTCHAR 00C8
ENCODING 200
SWIDTH 600 0
DWIDTH 20 0
BBX 15 31 3 0
BITMAP
1000
1800
1E00
0F80
03C0
00C0
0000
0000
0000
FFFE
FFFE
E000
E000
E000
E000
E000
E000
E000
E000
FFF8
FFF8
E000
E000
E000
E000
E000
E000
E000
E000
FFFE
FFFE
ENDCHAR
STARTCHAR 00C9
ENCODING 201
SWIDTH 600 0
DWIDTH 20 0
BBX 15 31 3 0
BITMAP
0008
0038
0078
01F0
03C0
0700
0000
0000
0000
FFFE
FFFE
E000
E000
E000
E000
E000
E000
E000
E000
FFF8
FFF8
E000
E000
E000
E000
E000
E000
E000
E000
FFFE
FFFE
ENDCHAR
STARTCHAR 00CA
ENCODING 202
SWIDTH 600 0
DWIDTH 20 0
BBX 15 31 3 0
BITMAP
0180
03C0
07E0
1E70
381C
300C
0000
0000
0000
FFFE
FFFE
E000
E000
E000
E000
E000
E000
E000
E000
FFF8
FFF8
E000
E000
E000
E000
E000
E000
E000
E000
FFFE
FFFE
ENDCHAR
STARTCHAR 00CB
ENCODING 203
SWIDTH 600 0
DWIDTH 20 0
BBX 15 29 3 0
BITMAP
381C
3C3C
3C3C
381C
0000
0000
0000
FFFE
FFFE
E000
E000
E000
E000
E000
E000
E000
E000
FFF8
FFF8
E000
E000
E000
E000
E000
E000
E000
E000
FFFE
FFFE
ENDCHAR
STARTCHAR 00CC
ENCODING 204
SWIDTH 600 0
DWIDTH 20 0
BBX 12 31 4 0
BITMAP
4000
7000
7800
1E00
0700
0380
0000
0000
0000
FFF0
7FF0
0700
0700
0700
0700
0700
0700
0700
0700
0700
0700
0700
0700
0700
0700
0700
0700
0700
0700
7FF0
FFF0
ENDCHAR
STARTCHAR 00CD
ENCODING 205
SWIDTH 600 0
DWIDTH 20 0
BBX 12 31 4 0
BITMAP
0020
0070
01F0
03C0
0F00
0C00
0000
0000
0000
FFF0
7FF0
0700
0700
0700
0700
0700
0700
0700
0700
0700
0700
0700
0700
0700
0700
0700
0700
0700
0700
7FF0
FFF0
ENDCHAR
STARTCHAR 00CE
ENCODING 206
SWIDTH 600 0
DWIDTH 20 0
BBX 12 31 4 0
BITMAP
0600
0F00
1FC0
39E0
7070
C030
0000
0000
0000
FFF0
7FF0
0700
0700
0700
0700
0700
0700
0700
0700
0700
0700
0700
0700
0700
0700
0700
0700
0700
0700
7FF0
FFF0
ENDCHAR
STARTCHAR 00CF
ENCODING 207
SWIDTH 600 0
DWIDTH 20 0
BBX 13 29 4 0
BITMAP
E070
F078
F078
E070
0000
0000
0000
FFF0
7FF0
0700
0700
0700
0700
0700
0700
0700
0700
0700
0700
0700
0700
0700
0700
0700
0700
0700
0700
7FF0
FFF0
ENDCHAR
STARTCHAR 00D0
ENCODING 208
SWIDTH 600 0
DWIDTH 20 0
BBX 18 22 1 0
BITMAP
1FC000
1FF800
1CFC00
1C1E00
1C0F00
1C0780
1C0380
1C0380
1C01C0
1C01C0
FFC1C0
FFC1C0
1C01C0
1C0380
1C0380
1C0380
1C0700
1C0F00
1C1E00
1DFC00
1FF000
1F8000
ENDCHAR
STARTCHAR 00D1
ENCODING 209
SWIDTH 600 0
DWIDTH 20 0
BBX 14 30 3 0
BITMAP
1C0C
3E1C
3398
61F8
60F0
0000
0000
0000
F00C
F00C
F80C
F80C
FC0C
FC0C
EE0C
EE0C
E70C
E70C
E30C
E38C
E18C
E1CC
E0CC
E0EC
E0EC
E07C
E07C
E03C
E03C
E01C
ENDCHAR
STARTCHAR 00D2
ENCODING 210
SWIDTH 600 0
DWIDTH 20 0
BBX 17 30 2 0
BITMAP
180000
3E0000
0F0000
03C000
00E000
000000
000000
000000
07E000
1FF800
3E7C00
381E00
700E00
700700
E00700
E00700
E00700
E00380
E00380
E00380
E00380
E00700
E00700
E00700
700700
700E00
381E00
3E7C00
1FF800
07E000
ENDCHAR
STARTCHAR 00D3
ENCODING 211
SWIDTH 600 0
DWIDTH 20 0
BBX 17 30 2 0
BITMAP
001800
003C00
00F000
01E000
038000
020000
000000
000000
07E000
1FF800
3E7C00
381E00
700E00
700700
E00700
E00700
E00700
E00380
E00380
E00380
E00380
E00700
E00700
E00700
700700
700E00
381E00
3E7C00
1FF800
07E000
ENDCHAR
STARTCHAR 00D4
ENCODING 212
SWIDTH 600 0
DWIDTH 20 0
BBX 17 30 2 0
BITMAP
01C000
07E000
0F7000
1C3800
381C00
100400
000000
000000
07E000
1FF800
3E7C00
381E00
700E00
700700
E00700
E00700
E00700
E00380
E00380
E00380
E00380
E00700
E00700
E00700
700700
700E00
381E00
3E7C00
1FF800
07E000
ENDCHAR
STARTCHAR 00D5
ENCODING 213
SWIDTH 600 0
DWIDTH 20 0
BBX 17 30 2 0
BITMAP
0E0600
1F0E00
1B8C00
31DC00
30F800
303000
000000
000000
07E000
1FF800
3E7C00
381E00
700E00
700700
E00700
E00700
E00700
E00380
E00380
E00380
E00380
E00700
E00700
E00700
700700
700E00
381E00
3E7C00
1FF800
07E000
ENDCHAR
STARTCHAR 00D6
ENCODING 214
SWIDTH 600 0
DWIDTH 20 0
BBX 17 29 2 0
BITMAP
181C00
3C1E00
3C1E00
381C00
000000
000000
000000
07E000
1FF800
3E7C00
381E00
700E00
700700
E00700
E00700
E00700
E00380
E00380
E00380
E00380
E00700
E00700
E00700
700700
700E00
381E00
3E7C00
1FF800
07E000
ENDCHAR
STARTCHAR 00D7
ENCODING 215
SWIDTH 600 0
DWIDTH 20 0
BBX 14 15 3 3
BITMAP
4008
E01C
F03C
7878
3CF0
1FE0
0FC0
0780
0FC0
1FE0
3CF0
7878
F03C
E01C
4008
ENDCHAR
STARTCHAR 00D8
ENCODING 216
SWIDTH 600 0
DWIDTH 20 0
BBX 18 26 1 -2
BITMAP
0000C0
0001C0
03F380
0FFF00
1F3F00
1C0F00
380F00
380F80
701B80
703380
703380
7061C0
7061C0
70C1C0
7181C0
718380
730380
760380
3E0380
3C0700
1C0F00
1FBE00
3FFC00
33F000
600000
E00000
ENDCHAR
STARTCHAR 00D9
ENCODING 217
SWIDTH 600 0
DWIDTH 20 0
BBX 15 30 3 1
BITMAP
3000
3C00
1F00
0780
01C0
0000
0000
0000
C00E
C00E
C00E
C00E
C00E
C00E
C00E
C00E
C00E
C00E
C00E
C00E
C00E
C00E
C00E
E00E
E00E
E01C
F03C
7FF8
3FF0
0FE0
ENDCHAR
STARTCHAR 00DA
ENCODING 218
SWIDTH 600 0
DWIDTH 20 0
BBX 15 30 3 1
BITMAP
0038
00F8
01E0
0780
0600
0400
0000
0000
C00E
C00E
C00E
C00E
C00E
C00E
C00E
C00E
C00E
C00E
C00E
C00E
C00E
C00E
C00E
E00E
E00E
E01C
F03C
7FF8
3FF0
0FE0
ENDCHAR
STARTCHAR 00DB
ENCODING 219
SWIDTH 600 0
DWIDTH 20 0
BBX 15 31 3 0
BITMAP
0300
0780
0FE0
1CF0
3838
6018
0000
0000
0000
C00E
C00E
C00E
C00E
C00E
C00E
C00E
C00E
C00E
C00E
C00E
C00E
C00E
C00E
C00E
E00E
E00E
E01C
F03C
7FF8
3FF0
0FE0
ENDCHAR
STARTCHAR 00DC
ENCODING 220
SWIDTH 600 0
DWIDTH 20 0
BBX 15 29 3 0
BITMAP
7038
783C
783C
7038
0000
0000
0000
C00E
C00E
C00E
C00E
C00E
C00E
C00E
C00E
C00E
C00E
C00E
C00E
C00E
C00E
C00E
E00E
E00E
E01C
F03C
7FF8
3FF0
0FE0
ENDCHAR
STARTCHAR 00DD
ENCODING 221
SWIDTH 600 0
DWIDTH 20 0
BBX 17 30 2 1
BITMAP
001C00
007C00
00F000
03C000
030000
020000
000000
000000
E00380
F00700
700F00
780E00
381C00
1C1C00
1C3800
0E3800
0F7000
07F000
03E000
03C000
01C000
01C000
01C000
01C000
01C000
01C000
01C000
01C000
01C000
01C000
ENDCHAR
STARTCHAR 00DE
ENCODING 222
SWIDTH 600 0
DWIDTH 20 0
BBX 16 22 3 0
BITMAP
E000
E000
E000
E000
E000
FFF0
FFFC
E07E
E00E
E007
E007
E007
E007
E00E
E07E
FFFC
FFF0
E000
E000
E000
E000
E000
ENDCHAR
STARTCHAR 00DF
ENCODING 223
SWIDTH 600 0
DWIDTH 20 0
BBX 16 24 3 0
BITMAP
07E0
1FF8
3E7C
781C
701C
E01C
E01C
E01C
E038
E070
E0F0
E1E0
E1E0
E0F0
E038
E01C
E00E
E00E
E007
E007
E00F
E0FE
E0FE
E0F8
ENDCHAR
STARTCHAR 00E0
ENCODING 224
SWIDTH 600 0
DWIDTH 20 0
BBX 17 25 2 0
BITMAP
080000
1C0000
0F0000
078000
01C000
00E000
000000
000000
000000
3FE000
3FF800
383C00
001C00
001C00
001C00
007C00
1FFC00
7F1C00
701C00
E01C00
E01C00
E03C00
71FE00
7FCF80
1F0780
ENDCHAR
STARTCHAR 00E1
ENCODING 225
SWIDTH 600 0
DWIDTH 20 0
BBX 17 25 2 0
BITMAP
001800
003C00
007000
01E000
038000
030000
000000
000000
000000
3FE000
3FF800
383C00
001C00
001C00
001C00
007C00
1FFC00
7F1C00
701C00
E01C00
E01C00
E03C00
71FE00
7FCF80
1F0780
ENDCHAR
STARTCHAR 00E2
ENCODING 226
SWIDTH 600 0
DWIDTH 20 0
BBX 17 25 2 0
BITMAP
01C000
03C000
07E000
0E7000
1C1800
380C00
000000
000000
000000
3FE000
3FF800
383C00
001C00
001C00
001C00
007C00
1FFC00
7F1C00
701C00
E01C00
E01C00
E03C00
71FE00
7FCF80
1F0780
ENDCHAR
STARTCHAR 00E3
ENCODING 227
SWIDTH 600 0
DWIDTH 20 0
BBX 17 24 2 1
BITMAP
0E0600
1F0C00
1B8C00
31FC00
30F800
203000
000000
000000
3FE000
3FF800
383C00
001C00
001C00
001C00
007C00
1FFC00
7F1C00
701C00
E01C00
E01C00
E03C00
71FE00
7FCF80
1F0780
ENDCHAR
STARTCHAR 00E4
ENCODING 228
SWIDTH 600 0
DWIDTH 20 0
BBX 17 23 2 0
BITMAP
181800
3C3C00
3C3C00
1C1C00
000000
000000
000000
3FE000
3FF800
383C00
001C00
001C00
001C00
007C00
1FFC00
7F1C00
701C00
E01C00
E01C00
E03C00
71FE00
7FCF80
1F0780
ENDCHAR
STARTCHAR 00E5
ENCODING 229
SWIDTH 600 0
DWIDTH 20 0
BBX 17 27 2 0
BITMAP
03C000
07F000
0C3800
0C1800
181800
1C1800
0C3800
0FF000
03C000
000000
000000
3FE000
3FF800
383C00
001C00
001C00
001C00
007C00
1FFC00
7F1C00
701C00
E01C00
E01C00
E03C00
71FE00
7FCF80
1F0780
ENDCHAR
STARTCHAR 00E6
ENCODING 230
SWIDTH 600 0
DWIDTH 20 0
BBX 19 16 1 0
BITMAP
7F0F00
7FBF80
21F380
01E1C0
00E1C0
00E0C0
01C0E0
1FFFE0
7EFFE0
F0C000
E0E000
E0E000
E1E000
F3F800
7F3F00
3C1F00
ENDCHAR
STARTCHAR 00E7
ENCODING 231
SWIDTH 600 0
DWIDTH 20 0
BBX 16 24 2 -9
BITMAP
03F0
0FFC
1FFF
3806
7000
7000
E000
E000
E000
E000
7000
7000
3806
3F7F
1FFE
07F0
0180
0100
03F0
0078
0018
0018
03F8
07E0
ENDCHAR
STARTCHAR 00E8
ENCODING 232
SWIDTH 600 0
DWIDTH 20 0
BBX 16 25 2 0
BITMAP
0800
1C00
0F00
0780
01C0
00E0
0020
0000
0000
03F0
0FF8
1E3C
380E
7006
7007
6007
7FFF
FFFF
6000
7000
7000
7800
3F00
1FF8
07F8
ENDCHAR
STARTCHAR 00E9
ENCODING 233
SWIDTH 600 0
DWIDTH 20 0
BBX 16 25 2 0
BITMAP
0008
001C
0078
00F0
01C0
0380
0200
0000
0000
03F0
0FF8
1E3C
380E
7006
7007
6007
7FFF
FFFF
6000
7000
7000
7800
3F00
1FF8
07F8
ENDCHAR
STARTCHAR 00EA
ENCODING 234
SWIDTH 600 0
DWIDTH 20 0
BBX 16 25 2 0
BITMAP
00C0
01E0
03F0
0738
0C1C
180E
1004
0000
0000
03F0
0FF8
1E3C
380E
7006
7007
6007
7FFF
FFFF
6000
7000
7000
7800
3F00
1FF8
07F8
ENDCHAR
STARTCHAR 00EB
ENCODING 235
SWIDTH 600 0
DWIDTH 20 0
BBX 16 23 2 0
BITMAP
0C1C
1E1C
1E1C
1C1C
0000
0000
0000
03F0
0FF8
1E3C
380E
7006
7007
6007
7FFF
FFFF
6000
7000
7000
7800
3F00
1FF8
07F8
ENDCHAR
STARTCHAR 00EC
ENCODING 236
SWIDTH 600 0
DWIDTH 20 0
BBX 14 25 4 0
BITMAP
3000
7800
3C00
0F00
0780
0180
0000
0000
0000
FF00
FF00
0700
0700
0700
0700
0700
0700
0700
0700
0700
0700
0700
0700
FFFC
FFFC
ENDCHAR
STARTCHAR 00ED
ENCODING 237
SWIDTH 600 0
DWIDTH 20 0
BBX 14 25 4 0
BITMAP
0020
00F0
01E0
0380
0F00
0C00
0000
0000
0000
FF00
FF00
0700
0700
0700
0700
0700
0700
0700
0700
0700
0700
0700
0700
FFFC
FFFC
ENDCHAR
STARTCHAR 00EE
ENCODING 238
SWIDTH 600 0
DWIDTH 20 0
BBX 14 25 4 0
BITMAP
0700
0F80
1DC0
38E0
7070
6030
0000
0000
0000
FF00
FF00
0700
0700
0700
0700
0700
0700
0700
0700
0700
0700
0700
0700
FFFC
FFFC
ENDCHAR
STARTCHAR 00EF
ENCODING 239
SWIDTH 600 0
DWIDTH 20 0
BBX 14 23 4 0
BITMAP
7070
7870
7870
3060
0000
0000
0000
FF00
FF00
0700
0700
0700
0700
0700
0700
0700
0700
0700
0700
0700
0700
FFFC
FFFC
ENDCHAR
STARTCHAR 00F0
ENCODING 240
SWIDTH 600 0
DWIDTH 20 0
BBX 16 25 2 0
BITMAP
0008
0C18
0FB0
03E0
00F0
01F8
031C
0E0E
000E
0007
0007
0FF7
1FFF
3C1F
7007
E007
E007
E007
E007
E00E
700E
781C
3EFC
1FF8
07E0
ENDCHAR
STARTCHAR 00F1
ENCODING 241
SWIDTH 600 0
DWIDTH 20 0
BBX 14 25 3 0
BITMAP
0008
1C0C
3E18
3718
63F8
61F0
4060
0000
0000
E1F0
E7F8
EFFC
FC1C
F81C
F00C
E00C
E00C
E00C
E00C
E00C
E00C
E00C
E00C
E00C
E00C
ENDCHAR
STARTCHAR 00F2
ENCODING 242
SWIDTH 600 0
DWIDTH 20 0
BBX 16 25 2 0
BITMAP
0800
1C00
0E00
0780
01C0
00E0
0000
0000
0000
07E0
1FF8
3F7C
780E
700F
E007
E007
E007
E007
E007
E007
700F
780E
3F7C
1FF8
07E0
ENDCHAR
STARTCHAR 00F3
ENCODING 243
SWIDTH 600 0
DWIDTH 20 0
BBX 16 25 2 0
BITMAP
0008
0038
0078
00E0
03C0
0700
0200
0000
0000
07E0
1FF8
3F7C
780E
700F
E007
E007
E007
E007
E007
E007
700F
780E
3F7C
1FF8
07E0
ENDCHAR
STARTCHAR 00F4
ENCODING 244
SWIDTH 600 0
DWIDTH 20 0
BBX 16 25 2 0
BITMAP
0180
03C0
07E0
0E70
1C38
380C
1004
0000
0000
07E0
1FF8
3F7C
780E
700F
E007
E007
E007
E007
E007
E007
700F
780E
3F7C
1FF8
07E0
ENDCHAR
STARTCHAR 00F5
ENCODING 245
SWIDTH 600 0
DWIDTH 20 0
BBX 16 25 2 0
BITMAP
0004
0E06
1F0C
1B8C
31FC
30F8
2030
0000
0000
07E0
1FF8
3F7C
780E
700F
E007
E007
E007
E007
E007
E007
700F
780E
3F7C
1FF8
07E0
ENDCHAR
STARTCHAR 00F6
ENCODING 246
SWIDTH 600 0
DWIDTH 20 0
BBX 16 23 2 0
BITMAP
1818
3C3C
3C3C
1C1C
0000
0000
0000
07E0
1FF8
3F7C
780E
700F
E007
E007
E007
E007
E007
E007
700F
780E
3F7C
1FF8
07E0
ENDCHAR
STARTCHAR 00F7
ENCODING 247
SWIDTH 600 0
DWIDTH 20 0
BBX 16 18 2 2
BITMAP
01C0
03E0
03E0
01C0
0000
0000
0000
0000
FFFF
FFFF
0000
0000
0000
0000
01C0
03E0
03E0
01C0
ENDCHAR
STARTCHAR 00F8
ENCODING 248
SWIDTH 600 0
DWIDTH 20 0
BBX 18 20 1 -2
BITMAP
0001C0
000380
03F300
0FFF00
1FBE00
3C0F00
381F00
703380
707380
70E380
70C380
718380
330380
3F0780
1E0F00
1F3E00
1FFC00
3BF000
700000
E00000
ENDCHAR
STARTCHAR 00F9
ENCODING 249
SWIDTH 600 0
DWIDTH 20 0
BBX 14 25 3 0
BITMAP
1000
3800
1E00
0F00
0380
01C0
0000
0000
0000
E01C
E01C
E01C
E01C
E01C
E01C
E01C
E01C
E01C
E01C
E01C
E03C
E0EC
FFCC
7F8C
3E0C
ENDCHAR
STARTCHAR 00FA
ENCODING 250
SWIDTH 600 0
DWIDTH 20 0
BBX 14 25 3 0
BITMAP
0010
0078
00F0
01C0
0780
0600
0400
0000
0000
E01C
E01C
E01C
E01C
E01C
E01C
E01C
E01C
E01C
E01C
E01C
E03C
E0EC
FFCC
7F8C
3E0C
ENDCHAR
STARTCHAR 00FB
ENCODING 251
SWIDTH 600 0
DWIDTH 20 0
BBX 14 25 3 0
BITMAP
0380
07C0
0EE0
1C70
3838
7018
0000
0000
0000
E01C
E01C
E01C
E01C
E01C
E01C
E01C
E01C
E01C
E01C
E01C
E03C
E0EC
FFCC
7F8C
3E0C
ENDCHAR
STARTCHAR 00FC
ENCODING 252
SWIDTH 600 0
DWIDTH 20 0
BBX 14 23 3 0
BITMAP
3838
3878
3878
3030
0000
0000
0000
E01C
E01C
E01C
E01C
E01C
E01C
E01C
E01C
E01C
E01C
E01C
E03C
E0EC
FFCC
7F8C
3E0C
ENDCHAR
STARTCHAR 00FD
ENCODING 253
SWIDTH 600 0
DWIDTH 20 0
BBX 16 33 2 -8
BITMAP
0018
003C
0078
01E0
03C0
0300
0200
0000
0000
E007
F007
7007
700E
380E
380C
1C1C
1C1C
1C38
0E38
0E30
0770
0770
07E0
03E0
03C0
01C0
0180
0380
0380
0700
7F00
FE00
F800
ENDCHAR
STARTCHAR 00FE
ENCODING 254
SWIDTH 600 0
DWIDTH 20 0
BBX 15 32 3 -8
BITMAP
E000
E000
E000
E000
E000
E000
E000
E000
E3E0
EFF8
FEFC
F81C
E00E
E00E
E00E
E006
E006
E00E
E00E
E01E
F01C
FCF8
EFF0
E7E0
E000
E000
E000
E000
E000
E000
E000
E000
ENDCHAR
STARTCHAR 00FF
ENCODING 255
SWIDTH 600 0
DWIDTH 20 0
BBX 16 31 2 -8
BITMAP
1C1C
1C3C
1C3C
1818
0000
0000
0000
E007
F007
7007
700E
380E
380C
1C1C
1C1C
1C38
0E38
0E30
0770
0770
07E0
03E0
03C0
01C0
0180
0380
0380
0700
7F00
FE00
F800
ENDCHAR
STARTCHAR 0100
ENCODING 256
SWIDTH 600 0
DWIDTH 20 0
BBX 18 28 1 0
BITMAP
0FFE00
0FFE00
000000
000000
000000
000000
01E000
01F000
01F000
03F000
03B000
033800
073800
071800
061C00
0E1C00
0E1C00
0E0E00
1C0E00
1C0E00
1FFF00
3FFF00
380700
380380
700380
700380
7001C0
E001C0
ENDCHAR
STARTCHAR 0101
ENCODING 257
SWIDTH 600 0
DWIDTH 20 0
BBX 17 22 2 0
BITMAP
1FFC00
1FFC00
000000
000000
000000
000000
3FE000
3FF800
383C00
001C00
001C00
001C00
007C00
1FFC00
7F1C00
701C00
E01C00
E01C00
E03C00
71FE00
7FCF80
1F0780
ENDCHAR
STARTCHAR 0102
ENCODING 258
SWIDTH 600 0
DWIDTH 20 0
BBX 18 31 1 0
BITMAP
180600
180600
0C0E00
0E1C00
07F800
03F000
000000
000000
000000
01E000
01F000
01F000
03F000
03B000
033800
073800
071800
061C00
0E1C00
0E1C00
0E0E00
1C0E00
1C0E00
1FFF00
3FFF00
380700
380380
700380
700380
7001C0
E001C0
ENDCHAR
STARTCHAR 0103
ENCODING 259
SWIDTH 600 0
DWIDTH 20 0
BBX 17 25 2 0
BITMAP
000800
300C00
380C00
181800
1E3800
0FF000
03E000
000000
000000
3FE000
3FF800
383C00
001C00
001C00
001C00
007C00
1FFC00
7F1C00
701C00
E01C00
E01C00
E03C00
71FE00
7FCF80
1F0780
ENDCHAR
STARTCHAR 0104
ENCODING 260
SWIDTH 600 0
DWIDTH 20 0
BBX 19 30 1 -8
BITMAP
01E000
01F000
01F000
03F000
03B000
033800
073800
071800
061C00
0E1C00
0E1C00
0E0E00
1C0E00
1C0E00
1FFF00
3FFF00
380700
380380
700380
700380
7001C0
E001C0
000180
000300
000300
000600
000600
000600
0007E0
0003E0
ENDCHAR
STARTCHAR 0105
ENCODING 261
SWIDTH 600 0
DWIDTH 20 0
BBX 17 24 2 -8
BITMAP
3FE000
3FF800
383C00
001C00
001C00
001C00
007C00
1FFC00
7F1C00
701C00
E01C00
E01C00
E03C00
71FE00
7FCF80
1F0780
000C00
000800
001800
001800
003000
003800
003F00
001F00
ENDCHAR
STARTCHAR 0106
ENCODING 262
SWIDTH 600 0
DWIDTH 20 0
BBX 17 30 2 0
BITMAP
000600
001E00
007C00
00F000
01C000
010000
000000
000000
03F000
0FFC00
1FBF00
3C0700
780200
700000
700000
E00000
E00000
E00000
E00000
E00000
E00000
E00000
E00000
F00000
700000
780100
3C0780
1F3F00
0FFC00
03F000
ENDCHAR
STARTCHAR 0107
ENCODING 263
SWIDTH 600 0
DWIDTH 20 0
BBX 16 25 2 0
BITMAP
0008
001C
0038
00F0
01C0
0380
0000
0000
0000
03F0
0FFC
1FFF
3806
7000
7000
E000
E000
E000
E000
7000
7000
3806
3F7F
1FFC
07F0
ENDCHAR
STARTCHAR 0108
ENCODING 264
SWIDTH 600 0
DWIDTH 20 0
BBX 17 30 2 0
BITMAP
00E000
01F000
03B800
0F1C00
1C0E00
080200
000000
000000
03F000
0FFC00
1FBF00
3C0700
780200
700000
700000
E00000
E00000
E00000
E00000
E00000
E00000
E00000
E00000
F00000
700000
780100
3C0780
1F3F00
0FFC00
03F000
ENDCHAR
STARTCHAR 0109
ENCODING 265
SWIDTH 600 0
DWIDTH 20 0
BBX 16 25 2 0
BITMAP
00C0
01E0
03F0
0738
0E1C
1C0E
1004
0000
0000
03F0
0FFC
1FFF
3806
7000
7000
E000
E000
E000
E000
7000
7000
3806
3F7F
1FFC
07F0
ENDCHAR
STARTCHAR 010A
ENCODING 266
SWIDTH 600 0
DWIDTH 20 0
BBX 17 29 2 0
BITMAP
00E000
01E000
01E000
00E000
000000
000000
000000
03F000
0FFC00
1FBF00
3C0700
780200
700000
700000
E00000
E00000
E00000
E00000
E00000
E00000
E00000
E00000
F00000
700000
780100
3C0780
1F3F00
0FFC00
03F000
ENDCHAR
STARTCHAR 010B
ENCODING 267
SWIDTH 600 0
DWIDTH 20 0
BBX 16 23 2 0
BITMAP
01C0
01E0
01E0
01C0
0000
0000
0000
03F0
0FFC
1FFF
3806
7000
7000
E000
E000
E000
E000
7000
7000
3806
3F7F
1FFC
07F0
ENDCHAR
STARTCHAR 010C
ENCODING 268
SWIDTH 600 0
DWIDTH 20 0
BBX 17 30 2 0
BITMAP
080600
0E0E00
071C00
03F800
01F000
00E000
000000
000000
03F000
0FFC00
1FBF00
3C0700
780200
700000
700000
E00000
E00000
E00000
E00000
E00000
E00000
E00000
E00000
F00000
700000
780100
3C0780
1F3F00
0FFC00
03F000
ENDCHAR
STARTCHAR 010D
ENCODING 269
SWIDTH 600 0
DWIDTH 20 0
BBX 16 25 2 0
BITMAP
1806
1C0E
0E1C
0738
03F0
01E0
00C0
0000
0000
03F0
0FFC
1FFF
3806
7000
7000
E000
E000
E000
E000
7000
7000
3806
3F7F
1FFC
07F0
ENDCHAR
STARTCHAR 010E
ENCODING 270
SWIDTH 600 0
DWIDTH 20 0
BBX 16 31 3 0
BITMAP
4010
E070
70E0
3DC0
1F80
0700
0000
0000
0000
FF00
FFE0
E7F0
E078
E03C
E01E
E00E
E00E
E007
E007
E007
E007
E007
E00E
E00E
E00E
E01C
E03C
E078
EFF0
FFC0
FE00
ENDCHAR
STARTCHAR 010F
ENCODING 271
SWIDTH 600 0
DWIDTH 20 0
BBX 22 26 2 0
BITMAP
00001C
00001C
00061C
000618
000618
000618
000618
000600
000600
000600
07C600
1FF600
3E7E00
780E00
700600
E00600
E00600
E00600
E00600
E00600
E00600
F00E00
781E00
3E7600
1FE600
0F8600
ENDCHAR
STARTCHAR 0110
ENCODING 272
SWIDTH 600 0
DWIDTH 20 0
BBX 18 22 1 0
BITMAP
1FC000
1FF800
1CFC00
1C1E00
1C0F00
1C0780
1C0380
1C0380
1C01C0
1C01C0
FFC1C0
FFC1C0
1C01C0
1C0380
1C0380
1C0380
1C0700
1C0F00
1C1E00
1DFC00
1FF000
1F8000
ENDCHAR
STARTCHAR 0111
ENCODING 273
SWIDTH 600 0
DWIDTH 20 0
BBX 18 24 2 0
BITMAP
000E00
000E00
000E00
000E00
03FFC0
03FFC0
000E00
000E00
000E00
000E00
0FCE00
3FFE00
7C3E00
701E00
E00E00
E00E00
E00E00
E00E00
E00E00
F01E00
703E00
7EFE00
3FEE00
0F8E00
ENDCHAR
STARTCHAR 0112
ENCODING 274
SWIDTH 600 0
DWIDTH 20 0
BBX 15 28 3 0
BITMAP
3FF8
3FF8
0000
0000
0000
0000
FFFE
FFFE
E000
E000
E000
E000
E000
E000
E000
E000
FFF8
FFF8
E000
E000
E000
E000
E000
E000
E000
E000
FFFE
FFFE
ENDCHAR
STARTCHAR 0113
ENCODING 275
SWIDTH 600 0
DWIDTH 20 0
BBX 16 22 2 0
BITMAP
1FFC
1FFC
0000
0000
0000
0000
03F0
0FF8
1E3C
380E
7006
7007
6007
7FFF
FFFF
6000
7000
7000
7800
3F00
1FF8
07F8
ENDCHAR
STARTCHAR 0114
ENCODING 276
SWIDTH 600 0
DWIDTH 20 0
BBX 15 31 3 0
BITMAP
300C
300C
3818
1C38
0FF0
07E0
0000
0000
0000
FFFE
FFFE
E000
E000
E000
E000
E000
E000
E000
E000
FFF8
FFF8
E000
E000
E000
E000
E000
E000
E000
E000
FFFE
FFFE
ENDCHAR
STARTCHAR 0115
ENCODING 277
SWIDTH 600 0
DWIDTH 20 0
BBX 16 24 2 1
BITMAP
180E
180C
1C1C
0E38
07F8
03E0
0000
0000
03F0
0FF8
1E3C
380E
7006
7007
6007
7FFF
FFFF
6000
7000
7000
7800
3F00
1FF8
07F8
ENDCHAR
STARTCHAR 0116
ENCODING 278
SWIDTH 600 0
DWIDTH 20 0
BBX 15 29 3 0
BITMAP
03C0
03C0
03C0
03C0
0000
0000
0000
FFFE
FFFE
E000
E000
E000
E000
E000
E000
E000
E000
FFF8
FFF8
E000
E000
E000
E000
E000
E000
E000
E000
FFFE
FFFE
ENDCHAR
STARTCHAR 0117
ENCODING 279
SWIDTH 600 0
DWIDTH 20 0
BBX 16 23 2 0
BITMAP
01C0
01E0
01E0
01C0
0000
0000
0000
03F0
0FF8
1E3C
380E
7006
7007
6007
7FFF
FFFF
6000
7000
7000
7800
3F00
1FF8
07F8
ENDCHAR
STARTCHAR 0118
ENCODING 280
SWIDTH 600 0
DWIDTH 20 0
BBX 15 30 3 -8
BITMAP
FFFE
FFFE
E000
E000
E000
E000
E000
E000
E000
E000
FFF8
FFF8
E000
E000
E000
E000
E000
E000
E000
E000
FFFE
FFFE
0018
0030
0030
0060
0060
0060
007E
003E
ENDCHAR
STARTCHAR 0119
ENCODING 281
SWIDTH 600 0
DWIDTH 20 0
BBX 16 24 2 -8
BITMAP
03F0
0FF8
1E3C
380E
7006
7007
6007
7FFF
FFFF
6000
7000
7000
7800
3F00
1FF8
03F8
0018
0030
0060
00C0
00C0
00E0
00FC
007C
ENDCHAR
STARTCHAR 011A
ENCODING 282
SWIDTH 600 0
DWIDTH 20 0
BBX 15 31 3 0
BITMAP
2000
381C
1C38
0E70
07E0
03C0
0000
0000
0000
FFFE
FFFE
E000
E000
E000
E000
E000
E000
E000
E000
FFF8
FFF8
E000
E000
E000
E000
E000
E000
E000
E000
FFFE
FFFE
ENDCHAR
STARTCHAR 011B
ENCODING 283
SWIDTH 600 0
DWIDTH 20 0
BBX 16 25 2 0
BITMAP
1004
1C0C
0E38
0770
03E0
01E0
00C0
0000
0000
03F0
0FF8
1E3C
380E
7006
7007
6007
7FFF
FFFF
6000
7000
7000
7800
3F00
1FF8
07F8
ENDCHAR
STARTCHAR 011C
ENCODING 284
SWIDTH 600 0
DWIDTH 20 0
BBX 16 30 2 0
BITMAP
00E0
01F0
07BC
0E0E
1C07
0802
0000
0000
01FE
07FE
1FCE
3E00
3800
7000
7000
E000
E000
E000
E0FF
E0FF
E003
E003
E003
F003
7003
7803
3C03
1F9F
0FFF
03FE
ENDCHAR
STARTCHAR 011D
ENCODING 285
SWIDTH 600 0
DWIDTH 20 0
BBX 15 33 2 -8
BITMAP
0180
03C0
07E0
0E70
1C38
380C
1004
0000
0000
07E2
1FFE
3F7E
780E
7006
E006
E006
E006
E006
E006
F00E
701E
7C3E
3FF6
1FC6
0006
0006
000E
000E
000E
001E
0FFC
1FF8
1FC0
ENDCHAR
STARTCHAR 011E
ENCODING 286
SWIDTH 600 0
DWIDTH 20 0
BBX 16 30 2 0
BITMAP
1803
0C06
0E0E
071C
07FC
01F0
0000
0000
01FE
07FE
1FCE
3E00
3800
7000
7000
E000
E000
E000
E0FF
E0FF
E003
E003
E003
F003
7003
7803
3C03
1F9F
0FFF
03FE
ENDCHAR
STARTCHAR 011F
ENCODING 287
SWIDTH 600 0
DWIDTH 20 0
BBX 15 33 2 -8
BITMAP
0008
300C
380C
1818
1E38
0FF0
03E0
0000
0000
07E2
1FFE
3F7E
780E
7006
E006
E006
E006
E006
E006
F00E
701E
7C3E
3FF6
1FC6
0006
0006
000E
000E
000E
001E
0FFC
1FF8
1FC0
ENDCHAR
STARTCHAR 0120
ENCODING 288
SWIDTH 600 0
DWIDTH 20 0
BBX 16 29 2 0
BITMAP
00E0
01F0
01F0
00E0
0000
0000
0000
01FE
07FE
1FCE
3E00
3800
7000
7000
E000
E000
E000
E0FF
E0FF
E003
E003
E003
F003
7003
7803
3C03
1F9F
0FFF
03FE
ENDCHAR
STARTCHAR 0121
ENCODING 289
SWIDTH 600 0
DWIDTH 20 0
BBX 15 31 2 -8
BITMAP
01C0
03C0
03C0
01C0
0000
0000
0000
07E2
1FFE
3F7E
780E
7006
E006
E006
E006
E006
E006
F00E
701E
7C3E
3FF6
1FC6
0006
0006
000E
000E
000E
001E
0FFC
1FF8
1FC0
ENDCHAR
STARTCHAR 0122
ENCODING 290
SWIDTH 600 0
DWIDTH 20 0
BBX 16 31 2 -10
BITMAP
01FE
07FE
1FCE
3E00
3800
7000
7000
E000
E000
E000
E0FF
E0FF
E003
E003
E003
F003
7003
7803
3C03
1F9F
0FFF
03FE
0000
0000
0180
03F0
0078
0018
0018
0078
03E0
ENDCHAR
STARTCHAR 0123
ENCODING 291
SWIDTH 600 0
DWIDTH 20 0
BBX 15 34 2 -8
BITMAP
0020
01F0
0780
0600
0E00
0780
03F0
0060
0000
0000
07E2
1FFE
3F7E
780E
7006
E006
E006
E006
E006
E006
F00E
701E
7C3E
3FF6
1FC6
0006
0006
000E
000E
000E
001E
0FFC
1FF8
1FC0
ENDCHAR
STARTCHAR 0124
ENCODING 292
SWIDTH 600 0
DWIDTH 20 0
BBX 14 31 3 0
BITMAP
0300
0780
0FE0
1CF0
3838
6018
0000
0000
0000
E01C
E01C
E01C
E01C
E01C
E01C
E01C
E01C
E01C
E01C
FFFC
FFFC
E01C
E01C
E01C
E01C
E01C
E01C
E01C
E01C
E01C
E01C
ENDCHAR
STARTCHAR 0125
ENCODING 293
SWIDTH 600 0
DWIDTH 20 0
BBX 19 32 -2 0
BITMAP
070000
0F8000
1DC000
38E000
707000
E03800
401000
000000
070000
070000
070000
070000
070000
070000
070000
070000
070F80
073FC0
077FE0
07E0E0
07C0E0
078060
070060
070060
070060
070060
070060
070060
070060
070060
070060
070060
ENDCHAR
STARTCHAR 0126
ENCODING 294
SWIDTH 600 0
DWIDTH 20 0
BBX 18 22 1 0
BITMAP
1C0700
1C0700
1C0700
1C0700
FFFFC0
FFFFC0
1C0700
1C0700
1C0700
1C0700
1C0700
1FFF00
1FFF00
1C0700
1C0700
1C0700
1C0700
1C0700
1C0700
1C0700
1C0700
1C0700
ENDCHAR
STARTCHAR 0127
ENCODING 295
SWIDTH 600 0
DWIDTH 20 0
BBX 16 24 1 0
BITMAP
1C00
1C00
1C00
1C00
FFE0
FFE0
1C00
1C00
1C00
1C10
1CFE
1DFF
1F87
1F07
1E07
1C03
1C03
1C03
1C03
1C03
1C03
1C03
1C03
1C03
ENDCHAR
STARTCHAR 0128
ENCODING 296
SWIDTH 600 0
DWIDTH 20 0
BBX 14 30 3 0
BITMAP
1C0C
3E18
7398
61F0
E0F0
0000
0000
0000
7FF8
3FF8
0380
0380
0380
0380
0380
0380
0380
0380
0380
0380
0380
0380
0380
0380
0380
0380
0380
0380
3FF8
7FF8
ENDCHAR
STARTCHAR 0129
ENCODING 297
SWIDTH 600 0
DWIDTH 20 0
BBX 14 25 4 0
BITMAP
0010
3C18
7E38
6730
E3F0
C1E0
0000
0000
0000
FF00
FF00
0700
0700
0700
0700
0700
0700
0700
0700
0700
0700
0700
0700
FFFC
FFFC
ENDCHAR
STARTCHAR 012A
ENCODING 298
SWIDTH 600 0
DWIDTH 20 0
BBX 12 28 4 0
BITMAP
7FF0
7FF0
0000
0000
0000
0000
FFF0
7FF0
0700
0700
0700
0700
0700
0700
0700
0700
0700
0700
0700
0700
0700
0700
0700
0700
0700
0700
7FF0
FFF0
ENDCHAR
STARTCHAR 012B
ENCODING 299
SWIDTH 600 0
DWIDTH 20 0
BBX 14 22 4 0
BITMAP
7FF0
7FF0
0000
0000
0000
0000
FF00
FF00
0700
0700
0700
0700
0700
0700
0700
0700
0700
0700
0700
0700
FFFC
FFFC
ENDCHAR
STARTCHAR 012C
ENCODING 300
SWIDTH 600 0
DWIDTH 20 0
BBX 12 31 4 0
BITMAP
C030
C030
6070
70E0
3FC0
1F80
0000
0000
0000
FFF0
7FF0
0700
0700
0700
0700
0700
0700
0700
0700
0700
0700
0700
0700
0700
0700
0700
0700
0700
0700
7FF0
FFF0
ENDCHAR
STARTCHAR 012D
ENCODING 301
SWIDTH 600 0
DWIDTH 20 0
BBX 14 24 4 1
BITMAP
6038
6030
7070
38E0
1FE0
0F80
0000
0000
FF00
FF00
0700
0700
0700
0700
0700
0700
0700
0700
0700
0700
0700
0700
FFFC
FFFC
ENDCHAR
STARTCHAR 012E
ENCODING 302
SWIDTH 600 0
DWIDTH 20 0
BBX 12 30 4 -8
BITMAP
FFF0
7FF0
0700
0700
0700
0700
0700
0700
0700
0700
0700
0700
0700
0700
0700
0700
0700
0700
0700
0700
7FF0
FFF0
0600
0C00
0C00
1800
1800
1800
1F80
0F80
ENDCHAR
STARTCHAR 012F
ENCODING 303
SWIDTH 600 0
DWIDTH 20 0
BBX 14 33 4 -8
BITMAP
0700
0F80
0F80
0F00
0000
0000
0000
0000
0000
FF00
FF00
0700
0700
0700
0700
0700
0700
0700
0700
0700
0700
0700
0700
FFFC
FFFC
0200
0600
0C00
0C00
1800
1C00
1F80
0780
ENDCHAR
STARTCHAR 0130
ENCODING 304
SWIDTH 600 0
DWIDTH 20 0
BBX 12 29 4 0
BITMAP
0700
0F00
0F00
0700
0000
0000
0000
FFF0
7FF0
0700
0700
0700
0700
0700
0700
0700
0700
0700
0700
0700
0700
0700
0700
0700
0700
0700
0700
7FF0
FFF0
ENDCHAR
STARTCHAR 0131
ENCODING 305
SWIDTH 600 0
DWIDTH 20 0
BBX 14 16 4 0
BITMAP
FF00
FF00
0700
0700
0700
0700
0700
0700
0700
0700
0700
0700
0700
0700
FFFC
FFFC
ENDCHAR
STARTCHAR 0134
ENCODING 308
SWIDTH 600 0
DWIDTH 20 0
BBX 20 31 2 0
BITMAP
000400
000F00
001F80
003BC0
00F0E0
00C070
008020
000000
000000
000E00
000E00
000E00
000E00
000E00
000E00
000E00
000E00
000E00
000E00
000E00
000E00
000E00
000E00
000E00
400E00
E00E00
F00E00
7C1E00
3FFC00
0FF800
03F000
ENDCHAR
STARTCHAR 0135
ENCODING 309
SWIDTH 600 0
DWIDTH 20 0
BBX 15 33 3 -8
BITMAP
00E0
01F0
03B8
071C
0E0E
0C06
0000
0000
0000
7FE0
7FE0
00E0
00E0
00E0
00E0
00E0
00E0
00E0
00E0
00E0
00E0
00E0
00E0
00E0
00E0
00E0
00E0
00E0
00E0
01E0
7FC0
FF80
FC00
ENDCHAR
STARTCHAR 0136
ENCODING 310
SWIDTH 600 0
DWIDTH 20 0
BBX 16 32 3 -10
BITMAP
E00F
E01E
E03C
E038
E070
E0E0
E1C0
E380
E700
EF00
FE00
FE00
EF00
E780
E3C0
E1E0
E0F0
E078
E03C
E01C
E00E
E00F
0000
0000
0000
0F80
03E0
00E0
0060
00E0
0FC0
0E00
ENDCHAR
STARTCHAR 0137
ENCODING 311
SWIDTH 600 0
DWIDTH 20 0
BBX 14 34 4 -10
BITMAP
E000
E000
E000
E000
E000
E000
E000
E000
E03C
E078
E0F0
E1C0
E380
EF00
FE00
FC00
FE00
EF00
E780
E3C0
E1E0
E0F0
E078
E03C
0000
0000
0000
1F00
0F80
01C0
01C0
0380
3F00
1C00
ENDCHAR
STARTCHAR 0139
ENCODING 313
SWIDTH 600 0
DWIDTH 20 0
BBX 16 31 2 0
BITMAP
0100
0700
0F00
3C00
7800
E000
0000
0000
0000
7000
7000
7000
7000
7000
7000
7000
7000
7000
7000
7000
7000
7000
7000
7000
7000
7000
7000
7000
7000
7FFF
7FFF
ENDCHAR
STARTCHAR 013A
ENCODING 314
SWIDTH 600 0
DWIDTH 20 0
BBX 16 33 2 0
BITMAP
0030
0078
01E0
03C0
0700
0600
0000
0000
0000
FF80
FF80
0380
0380
0380
0380
0380
0380
0380
0380
0380
0380
0380
0380
0380
0380
0380
0380
0380
0380
03C0
01FE
01FF
003E
ENDCHAR
STARTCHAR 013B
ENCODING 315
SWIDTH 600 0
DWIDTH 20 0
BBX 15 32 3 -10
BITMAP
E000
E000
E000
E000
E000
E000
E000
E000
E000
E000
E000
E000
E000
E000
E000
E000
E000
E000
E000
E000
FFFE
FFFE
0000
0000
0000
07C0
03E0
0070
0070
00E0
0FC0
0600
ENDCHAR
STARTCHAR 013C
ENCODING 316
SWIDTH 600 0
DWIDTH 20 0
BBX 16 34 2 -10
BITMAP
FF80
FF80
0380
0380
0380
0380
0380
0380
0380
0380
0380
0380
0380
0380
0380
0380
0380
0380
0380
0380
03C0
01FE
01FF
003E
0000
0000
0600
0FC0
01E0
0070
0070
00E0
0FC0
0600
ENDCHAR
STARTCHAR 013D
ENCODING 317
SWIDTH 600 0
DWIDTH 20 0
BBX 15 22 3 0
BITMAP
E060
E060
E060
E060
E060
E060
E060
E000
E000
E000
E000
E000
E000
E000
E000
E000
E000
E000
E000
E000
FFFE
FFFE
ENDCHAR
STARTCHAR 013E
ENCODING 318
SWIDTH 600 0
DWIDTH 20 0
BBX 17 26 2 0
BITMAP
000380
000380
FF8300
FF8300
038300
038300
038300
038000
038000
038000
038000
038000
038000
038000
038000
038000
038000
038000
038000
038000
038000
038000
03C000
01FE00
01FF00
003E00
ENDCHAR
STARTCHAR 013F
ENCODING 319
SWIDTH 600 0
DWIDTH 20 0
BBX 15 22 3 0
BITMAP
E000
E000
E000
E000
E000
E000
E000
E01C
E03E
E03E
E03E
E03C
E000
E000
E000
E000
E000
E000
E000
E000
FFFE
FFFE
ENDCHAR
STARTCHAR 0140
ENCODING 320
SWIDTH 600 0
DWIDTH 20 0
BBX 21 24 2 0
BITMAP
FF8000
FF8000
038000
038000
038000
038000
038000
038000
038000
038070
0380F0
0380F8
0380F8
0380F0
038000
038000
038000
038000
038000
038000
03C000
01FE00
01FF00
003E00
ENDCHAR
STARTCHAR 0141
ENCODING 321
SWIDTH 600 0
DWIDTH 20 0
BBX 17 22 1 0
BITMAP
1C0000
1C0000
1C0000
1C0000
1C0000
1C0800
1C3800
1C7000
1DE000
1F8000
1F0000
1C0000
3C0000
FC0000
DC0000
1C0000
1C0000
1C0000
1C0000
1C0000
1FFF80
1FFF80
ENDCHAR
STARTCHAR 0142
ENCODING 322
SWIDTH 600 0
DWIDTH 20 0
BBX 16 24 2 0
BITMAP
FF80
FF80
0380
0380
0380
0380
0380
0384
039C
03F8
03E0
07C0
1F80
7B80
6380
4380
0380
0380
0380
0380
03C0
01FE
01FF
003E
ENDCHAR
STARTCHAR 0143
ENCODING 323
SWIDTH 600 0
DWIDTH 20 0
BBX 14 30 3 1
BITMAP
0038
0078
01E0
0780
0700
0400
0000
0000
F00C
F00C
F80C
F80C
FC0C
FC0C
EE0C
EE0C
E70C
E70C
E30C
E38C
E18C
E1CC
E0CC
E0EC
E0EC
E07C
E07C
E03C
E03C
E01C
ENDCHAR
STARTCHAR 0144
ENCODING 324
SWIDTH 600 0
DWIDTH 20 0
BBX 14 25 3 0
BITMAP
0030
0070
00F0
01C0
0780
0600
0400
0000
0000
E1F0
E7F8
EFFC
FC1C
F81C
F00C
E00C
E00C
E00C
E00C
E00C
E00C
E00C
E00C
E00C
E00C
ENDCHAR
STARTCHAR 0145
ENCODING 325
SWIDTH 600 0
DWIDTH 20 0
BBX 14 32 3 -10
BITMAP
F00C
F00C
F80C
F80C
FC0C
FC0C
EE0C
EE0C
E70C
E70C
E30C
E38C
E18C
E1CC
E0CC
E0EC
E0EC
E07C
E07C
E03C
E03C
E01C
0000
0000
0000
0F80
03C0
00E0
00E0
01C0
0F80
0C00
ENDCHAR
STARTCHAR 0146
ENCODING 326
SWIDTH 600 0
DWIDTH 20 0
BBX 14 26 3 -10
BITMAP
E1F0
E7F8
EFFC
FC1C
F81C
F00C
E00C
E00C
E00C
E00C
E00C
E00C
E00C
E00C
E00C
E00C
0000
0000
0000
0F80
07C0
00E0
00E0
00E0
0F80
0E00
ENDCHAR
STARTCHAR 0147
ENCODING 327
SWIDTH 600 0
DWIDTH 20 0
BBX 14 31 3 0
BITMAP
2008
701C
3878
1EE0
07C0
0380
0000
0000
0000
F00C
F00C
F80C
F80C
FC0C
FC0C
EE0C
EE0C
E70C
E70C
E30C
E38C
E18C
E1CC
E0CC
E0EC
E0EC
E07C
E07C
E03C
E03C
E01C
ENDCHAR
STARTCHAR 0148
ENCODING 328
SWIDTH 600 0
DWIDTH 20 0
BBX 14 25 3 0
BITMAP
2018
7038
3870
1CE0
0FC0
0780
0300
0000
0000
E1F0
E7F8
EFFC
FC1C
F81C
F00C
E00C
E00C
E00C
E00C
E00C
E00C
E00C
E00C
E00C
E00C
ENDCHAR
STARTCHAR 014A
ENCODING 330
SWIDTH 600 0
DWIDTH 20 0
BBX 14 30 3 -8
BITMAP
F00C
F00C
F80C
F80C
FC0C
FC0C
EE0C
EE0C
E70C
E70C
E38C
E38C
E1CC
E1CC
E0CC
E0EC
E06C
E07C
E07C
E03C
E03C
E01C
001C
000C
000C
000C
001C
01FC
0FF8
0FC0
ENDCHAR
STARTCHAR 014B
ENCODING 331
SWIDTH 600 0
DWIDTH 20 0
BBX 14 24 3 -8
BITMAP
E1F0
E7F8
EFFC
FC1C
F81C
F00C
E00C
E00C
E00C
E00C
E00C
E00C
E00C
E00C
E00C
E00C
000C
000C
001C
001C
001C
07FC
0FF8
0FC0
ENDCHAR
STARTCHAR 014C
ENCODING 332
SWIDTH 600 0
DWIDTH 20 0
BBX 17 28 2 0
BITMAP
1FFC00
1FFC00
000000
000000
000000
000000
07E000
1FF800
3E7C00
381E00
700E00
700700
E00700
E00700
E00700
E00380
E00380
E00380
E00380
E00700
E00700
E00700
700700
700E00
381E00
3E7C00
1FF800
07E000
ENDCHAR
STARTCHAR 014D
ENCODING 333
SWIDTH 600 0
DWIDTH 20 0
BBX 16 22 2 0
BITMAP
1FFC
1FFC
0000
0000
0000
0000
07E0
1FF8
3F7C
780E
700F
E007
E007
E007
E007
E007
E007
700F
780E
3F7C
1FF8
07E0
ENDCHAR
STARTCHAR 014E
ENCODING 334
SWIDTH 600 0
DWIDTH 20 0
BBX 17 30 2 0
BITMAP
300C00
380C00
181C00
1C3800
0FF000
03E000
000000
000000
07E000
1FF800
3E7C00
381E00
700E00
700700
E00700
E00700
E00700
E00380
E00380
E00380
E00380
E00700
E00700
E00700
700700
700E00
381E00
3E7C00
1FF800
07E000
ENDCHAR
STARTCHAR 014F
ENCODING 335
SWIDTH 600 0
DWIDTH 20 0
BBX 16 24 2 1
BITMAP
300C
180C
1818
1E38
0FF0
03E0
0000
0000
07E0
1FF8
3F7C
780E
700F
E007
E007
E007
E007
E007
E007
700F
780E
3F7C
1FF8
07E0
ENDCHAR
STARTCHAR 0150
ENCODING 336
SWIDTH 600 0
DWIDTH 20 0
BBX 17 30 2 0
BITMAP
030300
070780
0E0F00
0C0E00
1C1C00
080800
000000
000000
07E000
1FF800
3E7C00
381E00
700E00
700700
E00700
E00700
E00700
E00380
E00380
E00380
E00380
E00700
E00700
E00700
700700
700E00
381E00
3E7C00
1FF800
07E000
ENDCHAR
STARTCHAR 0151
ENCODING 337
SWIDTH 600 0
DWIDTH 20 0
BBX 16 25 2 0
BITMAP
0004
0707
0E0E
0E1C
1C18
1838
0010
0000
0000
07E0
1FF8
3F7C
780E
700F
E007
E007
E007
E007
E007
E007
700F
780E
3F7C
1FF8
07E0
ENDCHAR
STARTCHAR 0152
ENCODING 338
SWIDTH 600 0
DWIDTH 20 0
BBX 19 22 1 0
BITMAP
03FFE0
0FFFE0
1E7000
387000
707000
707000
E07000
E07000
E07000
E07000
E07FC0
E07FC0
E07000
E07000
E07000
E07000
707000
707000
387000
3C7000
1FFFE0
07FFE0
ENDCHAR
STARTCHAR 0153
ENCODING 339
SWIDTH 600 0
DWIDTH 20 0
BBX 19 16 1 0
BITMAP
1E0F00
3F1F80
7BBB80
71F1C0
E0E0C0
E0E0C0
E0E0E0
E0FFE0
E0FFE0
E0E000
E0E000
E0E000
71F000
7BB800
3F3F00
1E0F00
ENDCHAR
STARTCHAR 0154
ENCODING 340
SWIDTH 600 0
DWIDTH 20 0
BBX 16 31 3 0
BITMAP
0008
0038
0078
01E0
0380
0700
0000
0000
0000
FFE0
FFF8
E07C
E01E
E00E
E00E
E00E
E00E
E01C
E03C
E1F8
FFE0
FE00
E780
E1C0
E0E0
E0F0
E078
E03C
E01C
E00E
E00F
ENDCHAR
STARTCHAR 0155
ENCODING 341
SWIDTH 600 0
DWIDTH 20 0
BBX 17 25 2 0
BITMAP
001800
003800
00F000
01E000
038000
030000
000000
000000
000000
FC0F80
FC3F80
0C7F80
0CE000
0DC000
0D8000
0F0000
0E0000
0E0000
0E0000
0E0000
0E0000
0E0000
0E0000
FFF000
FFF000
ENDCHAR
STARTCHAR 0156
ENCODING 342
SWIDTH 600 0
DWIDTH 20 0
BBX 16 32 3 -10
BITMAP
FFE0
FFF8
E07C
E01E
E00E
E00E
E00E
E00E
E01C
E03C
E1F8
FFE0
FE00
E780
E1C0
E0E0
E0F0
E078
E03C
E01C
E00E
E00F
0000
0000
0000
0F80
03E0
00E0
0060
00E0
0FC0
0E00
ENDCHAR
STARTCHAR 0157
ENCODING 343
SWIDTH 600 0
DWIDTH 20 0
BBX 17 26 2 -10
BITMAP
FC0F80
FC3F80
0C7F80
0CE000
0DC000
0D8000
0F0000
0E0000
0E0000
0E0000
0E0000
0E0000
0E0000
0E0000
FFF000
FFF000
000000
000000
000000
3E0000
1F8000
038000
038000
038000
3E0000
380000
ENDCHAR
STARTCHAR 0158
ENCODING 344
SWIDTH 600 0
DWIDTH 20 0
BBX 16 31 3 0
BITMAP
2008
301C
1C38
0EF0
07E0
0380
0000
0000
0000
FFE0
FFF8
E07C
E01E
E00E
E00E
E00E
E00E
E01C
E03C
E1F8
FFE0
FE00
E780
E1C0
E0E0
E0F0
E078
E03C
E01C
E00E
E00F
ENDCHAR
STARTCHAR 0159
ENCODING 345
SWIDTH 600 0
DWIDTH 20 0
BBX 17 25 2 0
BITMAP
300C00
381C00
1C3800
0E7000
07E000
03C000
000000
000000
000000
FC0F80
FC3F80
0C7F80
0CE000
0DC000
0D8000
0F0000
0E0000
0E0000
0E0000
0E0000
0E0000
0E0000
0E0000
FFF000
FFF000
ENDCHAR
STARTCHAR 015A
ENCODING 346
SWIDTH 600 0
DWIDTH 20 0
BBX 15 30 3 1
BITMAP
0038
0078
01F0
03C0
0700
0400
0000
0000
0FF0
3FFC
7E7C
7000
E000
E000
E000
F000
7800
3F00
1FE0
07F8
007C
001E
000E
000E
000E
000E
C01C
FCFC
FFF8
1FE0
ENDCHAR
STARTCHAR 015B
ENCODING 347
SWIDTH 600 0
DWIDTH 20 0
BBX 14 25 3 0
BITMAP
0010
0038
00F0
01E0
0380
0700
0000
0000
0000
0FF8
3FFC
7C38
7000
6000
7000
7E00
3FE0
07F8
007C
001C
001C
001C
F07C
FFF8
7FE0
ENDCHAR
STARTCHAR 015C
ENCODING 348
SWIDTH 600 0
DWIDTH 20 0
BBX 15 30 3 0
BITMAP
0380
07C0
1EF0
3C78
701C
2008
0000
0000
0FF0
3FFC
7E7C
7000
E000
E000
E000
F000
7800
3F00
1FE0
07F8
007C
001E
000E
000E
000E
000E
C01C
FCFC
FFF8
1FE0
ENDCHAR
STARTCHAR 015D
ENCODING 349
SWIDTH 600 0
DWIDTH 20 0
BBX 14 25 3 0
BITMAP
0180
03C0
07E0
0E70
1838
301C
2008
0000
0000
0FF8
3FFC
7C38
7000
6000
7000
7E00
3FE0
07F8
007C
001C
001C
001C
F07C
FFF8
7FE0
ENDCHAR
STARTCHAR 015E
ENCODING 350
SWIDTH 600 0
DWIDTH 20 0
BBX 15 31 3 -9
BITMAP
0FF0
3FFC
7E7C
7000
E000
E000
E000
F000
7800
3F00
1FE0
07F8
007C
001E
000E
000E
000E
000E
801C
FCFC
FFF8
1FE0
0300
0200
07E0
01F0
0030
0030
03F0
0FC0
0800
ENDCHAR
STARTCHAR 015F
ENCODING 351
SWIDTH 600 0
DWIDTH 20 0
BBX 14 25 3 -9
BITMAP
0FF8
3FFC
7C38
7000
6000
7000
7E00
3FE0
07F8
007C
001C
001C
001C
F07C
FFF8
7FE0
0300
0200
07E0
01F0
0030
0070
07F0
1FC0
0800
ENDCHAR
STARTCHAR 0160
ENCODING 352
SWIDTH 600 0
DWIDTH 20 0
BBX 15 30 3 0
BITMAP
2008
3838
1C70
0EE0
07C0
0380
0000
0000
0FF0
3FFC
7E7C
7000
E000
E000
E000
F000
7800
3F00
1FE0
07F8
007C
001E
000E
000E
000E
000E
C01C
FCFC
FFF8
1FE0
ENDCHAR
STARTCHAR 0161
ENCODING 353
SWIDTH 600 0
DWIDTH 20 0
BBX 14 25 3 0
BITMAP
3008
3818
1C30
0EE0
07E0
03C0
0180
0000
0000
0FF8
3FFC
7C38
7000
6000
7000
7E00
3FE0
07F8
007C
001C
001C
001C
F07C
FFF8
7FE0
ENDCHAR
STARTCHAR 0162
ENCODING 354
SWIDTH 600 0
DWIDTH 20 0
BBX 17 31 2 -9
BITMAP
FFFF80
FFFF80
01C000
01C000
01C000
01C000
01C000
01C000
01C000
01C000
01C000
01C000
01C000
01C000
01C000
01C000
01C000
01C000
01C000
01C000
01C000
01C000
018000
018000
03E000
03F800
001800
001800
00F800
07F000
070000
ENDCHAR
STARTCHAR 0163
ENCODING 355
SWIDTH 600 0
DWIDTH 20 0
BBX 16 31 2 -9
BITMAP
0700
0700
0700
0700
0700
0700
FFFE
FFFE
0700
0700
0700
0700
0700
0700
0700
0700
0700
0700
0780
03FE
01FF
00FF
0080
0180
01F0
00FC
000C
001C
01F8
07F0
0600
ENDCHAR
STARTCHAR 0164
ENCODING 356
SWIDTH 600 0
DWIDTH 20 0
BBX 17 31 2 0
BITMAP
100400
380C00
1C3800
0F7000
07E000
01C000
000000
000000
000000
FFFF80
FFFF80
01C000
01C000
01C000
01C000
01C000
01C000
01C000
01C000
01C000
01C000
01C000
01C000
01C000
01C000
01C000
01C000
01C000
01C000
01C000
01C000
ENDCHAR
STARTCHAR 0165
ENCODING 357
SWIDTH 600 0
DWIDTH 20 0
BBX 16 27 2 0
BITMAP
000E
000E
000C
000C
000C
070C
070C
0700
0700
0700
0700
FFFE
FFFE
0700
0700
0700
0700
0700
0700
0700
0700
0700
0700
0780
03FE
03FF
00FF
ENDCHAR
STARTCHAR 0166
ENCODING 358
SWIDTH 600 0
DWIDTH 20 0
BBX 17 22 2 0
BITMAP
FFFF80
FFFF80
01C000
01C000
01C000
01C000
01C000
01C000
01C000
01C000
3FFE00
3FFE00
01C000
01C000
01C000
01C000
01C000
01C000
01C000
01C000
01C000
01C000
ENDCHAR
STARTCHAR 0167
ENCODING 359
SWIDTH 600 0
DWIDTH 20 0
BBX 16 22 2 0
BITMAP
0700
0700
0700
0700
0700
0700
FFFE
FFFE
0700
0700
0700
0700
7FF8
7FF8
0700
0700
0700
0700
0380
03F8
03FF
00FF
ENDCHAR
STARTCHAR 0168
ENCODING 360
SWIDTH 600 0
DWIDTH 20 0
BBX 15 30 3 0
BITMAP
1C0C
3E18
7398
61F0
E0F0
0000
0000
0000
C00E
C00E
C00E
C00E
C00E
C00E
C00E
C00E
C00E
C00E
C00E
C00E
C00E
C00E
C00E
E00E
E00E
E01C
F03C
7FF8
3FF0
0FE0
ENDCHAR
STARTCHAR 0169
ENCODING 361
SWIDTH 600 0
DWIDTH 20 0
BBX 14 25 3 0
BITMAP
0008
1E0C
3F18
3398
61F0
60F0
0000
0000
0000
E01C
E01C
E01C
E01C
E01C
E01C
E01C
E01C
E01C
E01C
E01C
E03C
E0EC
FFCC
7F8C
3E0C
ENDCHAR
STARTCHAR 016A
ENCODING 362
SWIDTH 600 0
DWIDTH 20 0
BBX 15 28 3 0
BITMAP
3FF8
3FF8
0000
0000
0000
0000
C00E
C00E
C00E
C00E
C00E
C00E
C00E
C00E
C00E
C00E
C00E
C00E
C00E
C00E
C00E
E00E
E00E
E01C
F03C
7FF8
3FF0
0FE0
ENDCHAR
STARTCHAR 016B
ENCODING 363
SWIDTH 600 0
DWIDTH 20 0
BBX 14 22 3 0
BITMAP
3FF8
3FF8
0000
0000
0000
0000
E01C
E01C
E01C
E01C
E01C
E01C
E01C
E01C
E01C
E01C
E01C
E03C
E0EC
FFCC
7F8C
3E0C
ENDCHAR
STARTCHAR 016C
ENCODING 364
SWIDTH 600 0
DWIDTH 20 0
BBX 15 30 3 0
BITMAP
6018
7018
3038
3870
1FE0
07C0
0000
0000
C00E
C00E
C00E
C00E
C00E
C00E
C00E
C00E
C00E
C00E
C00E
C00E
C00E
C00E
C00E
E00E
E00E
E01C
F03C
7FF8
3FF0
0FE0
ENDCHAR
STARTCHAR 016D
ENCODING 365
SWIDTH 600 0
DWIDTH 20 0
BBX 14 24 3 1
BITMAP
6018
3018
3838
1C70
1FE0
07C0
0000
0000
E01C
E01C
E01C
E01C
E01C
E01C
E01C
E01C
E01C
E01C
E01C
E03C
E0EC
FFCC
7F8C
3E0C
ENDCHAR
STARTCHAR 016E
ENCODING 366
SWIDTH 600 0
DWIDTH 20 0
BBX 15 32 3 0
BITMAP
07C0
1FE0
3830
3030
3030
3870
1FE0
0780
0000
0000
C00E
C00E
C00E
C00E
C00E
C00E
C00E
C00E
C00E
C00E
C00E
C00E
C00E
C00E
C00E
E00E
E00E
E01C
F03C
7FF8
3FF0
0FE0
ENDCHAR
STARTCHAR 016F
ENCODING 367
SWIDTH 600 0
DWIDTH 20 0
BBX 14 27 3 0
BITMAP
0780
0FE0
1870
1830
1830
1830
1870
0FE0
0780
0000
0000
E01C
E01C
E01C
E01C
E01C
E01C
E01C
E01C
E01C
E01C
E01C
E03C
E0EC
FFCC
7F8C
3E0C
ENDCHAR
STARTCHAR 0170
ENCODING 368
SWIDTH 600 0
DWIDTH 20 0
BBX 15 31 3 0
BITMAP
0400
0606
0E0E
1C1C
3838
3030
0000
0000
0000
C00E
C00E
C00E
C00E
C00E
C00E
C00E
C00E
C00E
C00E
C00E
C00E
C00E
C00E
C00E
E00E
E00E
E01C
F03C
7FF8
3FF0
0FE0
ENDCHAR
STARTCHAR 0171
ENCODING 369
SWIDTH 600 0
DWIDTH 20 0
BBX 15 25 3 0
BITMAP
040C
0E0E
1C1C
1838
3830
3060
0000
0000
0000
E01C
E01C
E01C
E01C
E01C
E01C
E01C
E01C
E01C
E01C
E01C
E03C
E0EC
FFCC
7F8C
3E0C
ENDCHAR
STARTCHAR 0172
ENCODING 370
SWIDTH 600 0
DWIDTH 20 0
BBX 15 30 3 -8
BITMAP
C00E
C00E
C00E
C00E
C00E
C00E
C00E
C00E
C00E
C00E
C00E
C00E
C00E
C00E
C00E
E00E
E00E
E01C
F03C
7FF8
3FF0
0FC0
0300
0200
0600
0600
0C00
0E00
0FC0
03C0
ENDCHAR
STARTCHAR 0173
ENCODING 371
SWIDTH 600 0
DWIDTH 20 0
BBX 16 24 3 -8
BITMAP
E01C
E01C
E01C
E01C
E01C
E01C
E01C
E01C
E01C
E01C
E01C
E03C
E0EC
FFCC
7F8C
3E0C
000C
0018
0030
0030
0070
0070
003F
001F
ENDCHAR
STARTCHAR 0174
ENCODING 372
SWIDTH 600 0
DWIDTH 20 0
BBX 17 31 2 0
BITMAP
018000
03C000
07F000
0E7800
1C1C00
300C00
000000
000000
000000
C00380
E00380
E00380
E00300
E08300
E08300
E18700
618700
61C700
61C700
73C700
73C600
736600
726600
766600
366E00
363E00
343E00
3C3C00
3C3C00
3C1C00
381C00
ENDCHAR
STARTCHAR 0175
ENCODING 373
SWIDTH 600 0
DWIDTH 20 0
BBX 17 25 2 0
BITMAP
01C000
03E000
077000
0E3800
181C00
300C00
000000
000000
000000
C00380
C00380
E08380
E08300
E18300
61C700
61C700
73C600
73E600
736600
366E00
367E00
363C00
3C3C00
3C3C00
1C1C00
ENDCHAR
STARTCHAR 0176
ENCODING 374
SWIDTH 600 0
DWIDTH 20 0
BBX 17 31 2 0
BITMAP
018000
03C000
07F000
0E7800
1C1C00
300C00
000000
000000
000000
E00380
F00700
700F00
780E00
381C00
1C1C00
1C3800
0E3800
0F7000
07F000
03E000
03C000
01C000
01C000
01C000
01C000
01C000
01C000
01C000
01C000
01C000
01C000
ENDCHAR
STARTCHAR 0177
ENCODING 375
SWIDTH 600 0
DWIDTH 20 0
BBX 16 33 2 -8
BITMAP
01C0
03E0
0770
0E38
1C1C
380C
0000
0000
0000
E007
F007
7007
700E
380E
380C
1C1C
1C1C
1C38
0E38
0E30
0770
0770
07E0
03E0
03C0
01C0
0180
0380
0380
0700
7F00
FE00
F800
ENDCHAR
STARTCHAR 0178
ENCODING 376
SWIDTH 600 0
DWIDTH 20 0
BBX 17 29 2 0
BITMAP
381C00
3C1E00
3C1E00
381C00
000000
000000
000000
E00380
F00700
700F00
780E00
381C00
1C1C00
1C3800
0E3800
0F7000
07F000
03E000
03C000
01C000
01C000
01C000
01C000
01C000
01C000
01C000
01C000
01C000
01C000
ENDCHAR
STARTCHAR 0179
ENCODING 377
SWIDTH 600 0
DWIDTH 20 0
BBX 16 31 2 0
BITMAP
0008
001C
007C
00F0
03C0
0300
0000
0000
0000
7FFF
7FFF
7FFE
001E
001C
0038
0078
0070
00E0
01E0
01C0
0380
0780
0700
0E00
1E00
1C00
3800
7800
7000
FFFF
FFFF
ENDCHAR
STARTCHAR 017A
ENCODING 378
SWIDTH 600 0
DWIDTH 20 0
BBX 15 25 3 0
BITMAP
0030
0078
00F0
03C0
0780
0600
0000
0000
0000
FFFC
FFFC
003C
0078
0070
00E0
01C0
0380
0780
0F00
1E00
3C00
7800
F000
FFFE
FFFE
ENDCHAR
STARTCHAR 017B
ENCODING 379
SWIDTH 600 0
DWIDTH 20 0
BBX 16 29 2 0
BITMAP
01C0
03C0
03C0
01C0
0000
0000
0000
7FFF
7FFF
7FFE
001E
001C
0038
0078
0070
00E0
01E0
01C0
0380
0780
0700
0E00
1E00
1C00
3800
7800
7000
FFFF
FFFF
ENDCHAR
STARTCHAR 017C
ENCODING 380
SWIDTH 600 0
DWIDTH 20 0
BBX 15 23 3 0
BITMAP
0380
03C0
07C0
0380
0000
0000
0000
FFFC
FFFC
003C
0078
0070
00E0
01C0
0380
0780
0F00
1E00
3C00
7800
F000
FFFE
FFFE
ENDCHAR
STARTCHAR 017D
ENCODING 381
SWIDTH 600 0
DWIDTH 20 0
BBX 16 31 2 0
BITMAP
1004
380E
1C38
0F70
07E0
01C0
0000
0000
0000
7FFF
7FFF
7FFE
001E
001C
0038
0078
0070
00E0
01E0
01C0
0380
0780
0700
0E00
1E00
1C00
3800
7800
7000
FFFF
FFFF
ENDCHAR
STARTCHAR 017E
ENCODING 382
SWIDTH 600 0
DWIDTH 20 0
BBX 15 25 3 0
BITMAP
3008
3838
1C70
0EE0
07C0
0380
0000
0000
0000
FFFC
FFFC
003C
0078
0070
00E0
01C0
0380
0780
0F00
1E00
3C00
7800
F000
FFFE
FFFE
ENDCHAR
STARTCHAR 018F
ENCODING 399
SWIDTH 600 0
DWIDTH 20 0
BBX 16 22 2 0
BITMAP
1FE0
1FF8
1CFC
001E
000E
0007
0007
0007
0007
FFFF
FFFF
E007
E007
E007
E007
E007
7007
700E
781E
3E7C
1FF8
07E0
ENDCHAR
STARTCHAR 01A0
ENCODING 416
SWIDTH 600 0
DWIDTH 20 0
BBX 18 26 2 0
BITMAP
0000C0
0001C0
0001C0
0001C0
07FF80
1FFF00
3E7800
381C00
700E00
700700
E00700
E00700
E00700
E00380
E00380
E00380
E00380
E00700
E00700
E00700
700700
700E00
381E00
3E7C00
1FF800
07E000
ENDCHAR
STARTCHAR 01A1
ENCODING 417
SWIDTH 600 0
DWIDTH 20 0
BBX 18 20 2 0
BITMAP
0001C0
000180
000180
000380
07FF00
1FFE00
3E3800
780E00
700E00
E00700
E00700
E00700
E00700
E00700
E00700
700F00
780E00
3F7C00
1FF800
07E000
ENDCHAR
STARTCHAR 01AF
ENCODING 431
SWIDTH 600 0
DWIDTH 20 0
BBX 19 26 3 0
BITMAP
000060
000060
0000E0
0000E0
C00FC0
C00F80
C00E00
C00E00
C00E00
C00E00
C00E00
C00E00
C00E00
C00E00
C00E00
C00E00
C00E00
C00E00
C00E00
E00E00
E00E00
E01C00
F03C00
7FF800
3FF000
0FE000
ENDCHAR
STARTCHAR 01B0
ENCODING 432
SWIDTH 600 0
DWIDTH 20 0
BBX 18 20 3 0
BITMAP
0000C0
0000C0
0001C0
0001C0
E01F80
E01F00
E01C00
E01C00
E01C00
E01C00
E01C00
E01C00
E01C00
E01C00
E01C00
E07C00
E0EC00
FFCC00
7F8C00
3E0C00
ENDCHAR
STARTCHAR 01CD
ENCODING 461
SWIDTH 600 0
DWIDTH 20 0
BBX 18 31 1 0
BITMAP
000200
1C0E00
0E1C00
073800
03F000
01E000
000000
000000
000000
01E000
01F000
01F000
03F000
03B000
033800
073800
071800
061C00
0E1C00
0E1C00
0E0E00
1C0E00
1C0E00
1FFF00
3FFF00
380700
380380
700380
700380
7001C0
E001C0
ENDCHAR
STARTCHAR 01CE
ENCODING 462
SWIDTH 600 0
DWIDTH 20 0
BBX 17 25 2 0
BITMAP
300C00
181C00
1C3800
0E7000
07E000
03C000
018000
000000
000000
3FE000
3FF800
383C00
001C00
001C00
001C00
007C00
1FFC00
7F1C00
701C00
E01C00
E01C00
E03C00
71FE00
7FCF80
1F0780
ENDCHAR
STARTCHAR 01CF
ENCODING 463
SWIDTH 600 0
DWIDTH 20 0
BBX 12 31 4 0
BITMAP
4010
E030
70E0
3DC0
1F80
0700
0000
0000
0000
FFF0
7FF0
0700
0700
0700
0700
0700
0700
0700
0700
0700
0700
0700
0700
0700
0700
0700
0700
0700
0700
7FF0
FFF0
ENDCHAR
STARTCHAR 01D0
ENCODING 464
SWIDTH 600 0
DWIDTH 20 0
BBX 14 25 4 0
BITMAP
6010
7070
38E0
1DC0
0F80
0700
0000
0000
0000
FF00
FF00
0700
0700
0700
0700
0700
0700
0700
0700
0700
0700
0700
0700
FFFC
FFFC
ENDCHAR
STARTCHAR 01D1
ENCODING 465
SWIDTH 600 0
DWIDTH 20 0
BBX 17 30 2 0
BITMAP
300C00
381C00
0E3800
07F000
03E000
018000
000000
000000
07E000
1FF800
3E7C00
381E00
700E00
700700
E00700
E00700
E00700
E00380
E00380
E00380
E00380
E00700
E00700
E00700
700700
700E00
381E00
3E7C00
1FF800
07E000
ENDCHAR
STARTCHAR 01D2
ENCODING 466
SWIDTH 600 0
DWIDTH 20 0
BBX 16 25 2 0
BITMAP
100C
181C
1C38
0E70
07E0
03C0
0180
0000
0000
07E0
1FF8
3F7C
780E
700F
E007
E007
E007
E007
E007
E007
700F
780E
3F7C
1FF8
07E0
ENDCHAR
STARTCHAR 01D3
ENCODING 467
SWIDTH 600 0
DWIDTH 20 0
BBX 15 31 3 0
BITMAP
2008
7018
3870
1EE0
0FC0
0380
0000
0000
0000
C00E
C00E
C00E
C00E
C00E
C00E
C00E
C00E
C00E
C00E
C00E
C00E
C00E
C00E
C00E
E00E
E00E
E01C
F03C
7FF8
3FF0
0FE0
ENDCHAR
STARTCHAR 01D4
ENCODING 468
SWIDTH 600 0
DWIDTH 20 0
BBX 14 25 3 0
BITMAP
2008
7018
3870
1CE0
0FC0
0780
0300
0000
0000
E01C
E01C
E01C
E01C
E01C
E01C
E01C
E01C
E01C
E01C
E01C
E03C
E0EC
FFCC
7F8C
3E0C
ENDCHAR
STARTCHAR 01D5
ENCODING 469
SWIDTH 600 0
DWIDTH 20 0
BBX 15 34 3 0
BITMAP
3FF8
3FF8
0000
0000
0000
7038
783C
7838
2030
0000
0000
0000
C00E
C00E
C00E
C00E
C00E
C00E
C00E
C00E
C00E
C00E
C00E
C00E
C00E
C00E
C00E
E00E
E00E
E01C
F03C
7FF8
3FF0
0FE0
ENDCHAR
STARTCHAR 01D6
ENCODING 470
SWIDTH 600 0
DWIDTH 20 0
BBX 14 27 3 0
BITMAP
3FF0
3FF0
0000
0000
0000
3838
3878
3878
0000
0000
0000
E01C
E01C
E01C
E01C
E01C
E01C
E01C
E01C
E01C
E01C
E01C
E03C
E0EC
FFCC
7F8C
3E0C
ENDCHAR
STARTCHAR 01D7
ENCODING 471
SWIDTH 600 0
DWIDTH 20 0
BBX 15 36 3 0
BITMAP
0008
0038
00F8
03E0
0780
0000
0000
7038
783C
7838
2030
0000
0000
0000
C00E
C00E
C00E
C00E
C00E
C00E
C00E
C00E
C00E
C00E
C00E
C00E
C00E
C00E
C00E
E00E
E00E
E01C
F03C
7FF8
3FF0
0FE0
ENDCHAR
STARTCHAR 01D8
ENCODING 472
SWIDTH 600 0
DWIDTH 20 0
BBX 14 29 3 0
BITMAP
0010
0078
01F0
03C0
0700
0400
0000
3838
3878
3878
0000
0000
0000
E01C
E01C
E01C
E01C
E01C
E01C
E01C
E01C
E01C
E01C
E01C
E03C
E0EC
FFCC
7F8C
3E0C
ENDCHAR
STARTCHAR 01D9
ENCODING 473
SWIDTH 600 0
DWIDTH 20 0
BBX 15 36 3 0
BITMAP
2008
7038
3C70
0FE0
07C0
0300
0000
7038
783C
7838
2030
0000
0000
0000
C00E
C00E
C00E
C00E
C00E
C00E
C00E
C00E
C00E
C00E
C00E
C00E
C00E
C00E
C00E
E00E
E00E
E01C
F03C
7FF8
3FF0
0FE0
ENDCHAR
STARTCHAR 01DA
ENCODING 474
SWIDTH 600 0
DWIDTH 20 0
BBX 14 30 3 0
BITMAP
2008
7038
3C70
0EE0
07C0
0380
0000
0000
3838
3878
3878
0000
0000
0000
E01C
E01C
E01C
E01C
E01C
E01C
E01C
E01C
E01C
E01C
E01C
E03C
E0EC
FFCC
7F8C
3E0C
ENDCHAR
STARTCHAR 01DB
ENCODING 475
SWIDTH 600 0
DWIDTH 20 0
BBX 15 36 3 0
BITMAP
2000
7800
3C00
0F00
0380
0080
0000
7038
783C
7838
2030
0000
0000
0000
C00E
C00E
C00E
C00E
C00E
C00E
C00E
C00E
C00E
C00E
C00E
C00E
C00E
C00E
C00E
E00E
E00E
E01C
F03C
7FF8
3FF0
0FE0
ENDCHAR
STARTCHAR 01DC
ENCODING 476
SWIDTH 600 0
DWIDTH 20 0
BBX 14 29 3 0
BITMAP
3000
3C00
1E00
0780
01C0
0000
0000
3838
3878
3878
0000
0000
0000
E01C
E01C
E01C
E01C
E01C
E01C
E01C
E01C
E01C
E01C
E01C
E03C
E0EC
FFCC
7F8C
3E0C
ENDCHAR
STARTCHAR 01E6
ENCODING 486
SWIDTH 600 0
DWIDTH 20 0
BBX 16 31 2 0
BITMAP
0802
1C07
0F1E
03BC
01F0
00E0
0000
0000
0000
01FE
07FE
1FCE
3E00
3800
7000
7000
E000
E000
E000
E0FF
E0FF
E003
E003
E003
F003
7003
7803
3C03
1F9F
0FFF
03FE
ENDCHAR
STARTCHAR 01E7
ENCODING 487
SWIDTH 600 0
DWIDTH 20 0
BBX 15 33 2 -8
BITMAP
300C
181C
1C38
0E70
07E0
03C0
0180
0000
0000
07E2
1FFE
3F7E
780E
7006
E006
E006
E006
E006
E006
F00E
701E
7C3E
3FF6
1FC6
0006
0006
000E
000E
000E
001E
0FFC
1FF8
1FC0
ENDCHAR
STARTCHAR 01EA
ENCODING 490
SWIDTH 600 0
DWIDTH 20 0
BBX 17 30 2 -8
BITMAP
07E000
1FF800
3E7C00
381E00
700E00
700700
E00700
E00700
E00700
E00380
E00380
E00380
E00380
E00700
E00700
E00700
700700
700E00
381E00
3E7C00
1FF800
07E000
018000
030000
030000
060000
060000
070000
07E000
03E000
ENDCHAR
STARTCHAR 01EB
ENCODING 491
SWIDTH 600 0
DWIDTH 20 0
BBX 16 24 2 -8
BITMAP
07E0
1FF8
3F7C
780E
700F
E007
E007
E007
E007
E007
E007
700F
780E
3E7C
1FF8
07E0
0180
0300
0300
0600
0600
0700
07E0
03E0
ENDCHAR
STARTCHAR 01F0
ENCODING 496
SWIDTH 600 0
DWIDTH 20 0
BBX 15 33 3 -8
BITMAP
0C02
0E0E
071C
03B8
01F0
00E0
0000
0000
0000
7FE0
7FE0
00E0
00E0
00E0
00E0
00E0
00E0
00E0
00E0
00E0
00E0
00E0
00E0
00E0
00E0
00E0
00E0
00E0
00E0
01E0
7FC0
FF80
FC00
ENDCHAR
STARTCHAR 01F8
ENCODING 504
SWIDTH 600 0
DWIDTH 20 0
BBX 14 30 3 1
BITMAP
3800
3C00
0F00
0780
01C0
0000
0000
0000
F00C
F00C
F80C
F80C
FC0C
FC0C
EE0C
EE0C
E70C
E70C
E30C
E38C
E18C
E1CC
E0CC
E0EC
E0EC
E07C
E07C
E03C
E03C
E01C
ENDCHAR
STARTCHAR 01F9
ENCODING 505
SWIDTH 600 0
DWIDTH 20 0
BBX 14 25 3 0
BITMAP
1000
3800
1E00
0F00
0380
01C0
0000
0000
0000
E1F0
E7F8
EFFC
FC1C
F81C
F00C
E00C
E00C
E00C
E00C
E00C
E00C
E00C
E00C
E00C
E00C
ENDCHAR
STARTCHAR 0218
ENCODING 536
SWIDTH 600 0
DWIDTH 20 0
BBX 15 32 3 -10
BITMAP
0FF0
3FFC
7E7C
7000
E000
E000
E000
F000
7800
3F00
1FE0
07F8
007C
001E
000E
000E
000E
000E
C01C
FCFC
FFF8
1FE0
0000
0000
0C00
1F80
03C0
00E0
00E0
03C0
0F00
0800
ENDCHAR
STARTCHAR 0219
ENCODING 537
SWIDTH 600 0
DWIDTH 20 0
BBX 14 26 3 -10
BITMAP
0FF8
3FFC
7C38
7000
6000
7000
7E00
3FE0
07F8
007C
001C
001C
001C
F07C
FFF8
7FE0
0000
0000
0C00
1F80
03C0
00E0
00C0
03C0
1F80
0800
ENDCHAR
STARTCHAR 021A
ENCODING 538
SWIDTH 600 0
DWIDTH 20 0
BBX 17 32 2 -10
BITMAP
FFFF80
FFFF80
01C000
01C000
01C000
01C000
01C000
01C000
01C000
01C000
01C000
01C000
01C000
01C000
01C000
01C000
01C000
01C000
01C000
01C000
01C000
01C000
000000
000000
000000
07C000
03E000
007000
007000
00E000
07C000
070000
ENDCHAR
STARTCHAR 021B
ENCODING 539
SWIDTH 600 0
DWIDTH 20 0
BBX 16 32 2 -10
BITMAP
0700
0700
0700
0700
0700
0700
FFFE
FFFE
0700
0700
0700
0700
0700
0700
0700
0700
0700
0700
0380
03FE
01FF
007F
0000
0000
0200
07E0
00F0
0030
0030
00F0
07E0
0200
ENDCHAR
STARTCHAR 0226
ENCODING 550
SWIDTH 600 0
DWIDTH 20 0
BBX 18 29 1 0
BITMAP
00E000
01E000
01E000
00E000
000000
000000
000000
01E000
01F000
01F000
03F000
03B000
033800
073800
071800
061C00
0E1C00
0E1C00
0E0E00
1C0E00
1C0E00
1FFF00
3FFF00
380700
380380
700380
700380
7001C0
E001C0
ENDCHAR
STARTCHAR 0227
ENCODING 551
SWIDTH 600 0
DWIDTH 20 0
BBX 17 23 2 0
BITMAP
01C000
03C000
03C000
01C000
000000
000000
000000
3FE000
3FF800
383C00
001C00
001C00
001C00
007C00
1FFC00
7F1C00
701C00
E01C00
E01C00
E03C00
71FE00
7FCF80
1F0780
ENDCHAR
STARTCHAR 022E
ENCODING 558
SWIDTH 600 0
DWIDTH 20 0
BBX 17 29 2 0
BITMAP
01C000
03C000
03C000
01C000
000000
000000
000000
07E000
1FF800
3E7C00
381E00
700E00
700700
E00700
E00700
E00700
E00380
E00380
E00380
E00380
E00700
E00700
E00700
700700
700E00
381E00
3E7C00
1FF800
07E000
ENDCHAR
STARTCHAR 022F
ENCODING 559
SWIDTH 600 0
DWIDTH 20 0
BBX 16 23 2 0
BITMAP
01C0
03C0
03C0
01C0
0000
0000
0000
07E0
1FF8
3F7C
780E
700F
E007
E007
E007
E007
E007
E007
700F
780E
3F7C
1FF8
07E0
ENDCHAR
STARTCHAR 0232
ENCODING 562
SWIDTH 600 0
DWIDTH 20 0
BBX 17 28 2 0
BITMAP
1FFC00
1FFC00
000000
000000
000000
000000
E00380
F00700
700F00
780E00
381C00
1C1C00
1C3800
0E3800
0F7000
07F000
03E000
03C000
01C000
01C000
01C000
01C000
01C000
01C000
01C000
01C000
01C000
01C000
ENDCHAR
STARTCHAR 0233
ENCODING 563
SWIDTH 600 0
DWIDTH 20 0
BBX 16 30 2 -8
BITMAP
1FFC
1FFC
0000
0000
0000
0000
E007
F007
7007
700E
380E
380C
1C1C
1C1C
1C38
0E38
0E30
0770
0770
07E0
03E0
03C0
01C0
0180
0380
0380
0700
7F00
FE00
F800
ENDCHAR
STARTCHAR 0237
ENCODING 567
SWIDTH 600 0
DWIDTH 20 0
BBX 11 24 3 -8
BITMAP
7FE0
7FE0
00E0
00E0
00E0
00E0
00E0
00E0
00E0
00E0
00E0
00E0
00E0
00E0
00E0
00E0
00E0
00E0
00E0
00E0
01E0
7FC0
FF80
FC00
ENDCHAR
STARTCHAR 0259
ENCODING 601
SWIDTH 600 0
DWIDTH 20 0
BBX 16 16 2 0
BITMAP
1FE0
1FF8
00FC
001E
000E
0007
0007
FFFF
FFFF
6007
7007
700E
781E
3C7C
1FF8
07E0
ENDCHAR
STARTCHAR 02B9
ENCODING 697
SWIDTH 600 0
DWIDTH 20 0
BBX 4 10 8 14
BITMAP
F0
F0
F0
F0
F0
F0
70
70
70
70
ENDCHAR
STARTCHAR 02BA
ENCODING 698
SWIDTH 600 0
DWIDTH 20 0
BBX 13 10 4 14
BITMAP
F078
F070
F070
F070
F070
F070
F070
7070
7070
6070
ENDCHAR
STARTCHAR 02BB
ENCODING 699
SWIDTH 600 0
DWIDTH 20 0
BBX 8 9 7 15
BITMAP
0F
1E
3C
7C
78
F8
F0
F0
F0
ENDCHAR
STARTCHAR 02BC
ENCODING 700
SWIDTH 600 0
DWIDTH 20 0
BBX 8 9 6 15
BITMAP
1F
1F
1E
1E
3E
3C
78
70
E0
ENDCHAR
STARTCHAR 02BE
ENCODING 702
SWIDTH 600 0
DWIDTH 20 0
BBX 8 13 6 11
BITMAP
E0
FC
FE
0F
07
07
07
07
07
0F
1E
FC
F8
ENDCHAR
STARTCHAR 02BF
ENCODING 703
SWIDTH 600 0
DWIDTH 20 0
BBX 9 13 5 11
BITMAP
0780
1F80
3F80
7800
F000
E000
E000
E000
E000
7000
7C00
3F80
0F80
ENDCHAR
STARTCHAR 02C6
ENCODING 710
SWIDTH 600 0
DWIDTH 20 0
BBX 12 7 4 18
BITMAP
0600
0F00
1F80
39C0
70E0
E070
4010
ENDCHAR
STARTCHAR 02C7
ENCODING 711
SWIDTH 600 0
DWIDTH 20 0
BBX 12 7 4 18
BITMAP
4010
E030
7060
39C0
1F80
0F00
0600
ENDCHAR
STARTCHAR 02C8
ENCODING 712
SWIDTH 600 0
DWIDTH 20 0
BBX 3 13 9 11
BITMAP
E0
E0
E0
E0
E0
E0
E0
E0
E0
E0
E0
E0
E0
ENDCHAR
STARTCHAR 02CC
ENCODING 716
SWIDTH 600 0
DWIDTH 20 0
BBX 3 13 9 -8
BITMAP
E0
E0
E0
E0
E0
E0
E0
E0
E0
E0
E0
E0
E0
ENDCHAR
STARTCHAR 02CD
ENCODING 717
SWIDTH 600 0
DWIDTH 20 0
BBX 11 2 5 -6
BITMAP
FFE0
FFE0
ENDCHAR
STARTCHAR 02D8
ENCODING 728
SWIDTH 600 0
DWIDTH 20 0
BBX 12 6 4 19
BITMAP
C030
6030
6060
78E0
3FC0
0F80
ENDCHAR
STARTCHAR 02D9
ENCODING 729
SWIDTH 600 0
DWIDTH 20 0
BBX 4 4 8 19
BITMAP
70
F0
F0
70
ENDCHAR
STARTCHAR 02DA
ENCODING 730
SWIDTH 600 0
DWIDTH 20 0
BBX 10 8 5 18
BITMAP
1F00
7F80
61C0
C0C0
C0C0
61C0
7F80
1F00
ENDCHAR
STARTCHAR 02DB
ENCODING 731
SWIDTH 600 0
DWIDTH 20 0
BBX 6 8 7 -8
BITMAP
30
60
60
C0
C0
C0
FC
7C
ENDCHAR
STARTCHAR 02DC
ENCODING 732
SWIDTH 600 0
DWIDTH 20 0
BBX 13 7 4 18
BITMAP
0010
3818
7C30
6E30
C7F0
C3E0
80C0
ENDCHAR
STARTCHAR 02DD
ENCODING 733
SWIDTH 600 0
DWIDTH 20 0
BBX 12 7 5 18
BITMAP
0020
3830
3870
7060
E0C0
C1C0
8080
ENDCHAR
STARTCHAR 0300
ENCODING 768
SWIDTH 0 0
DWIDTH 0 0
BBX 8 6 -5 19
BITMAP
E0
F0
38
1E
07
02
ENDCHAR
STARTCHAR 0301
ENCODING 769
SWIDTH 0 0
DWIDTH 0 0
BBX 8 6 -3 19
BITMAP
07
0F
1C
78
E0
40
ENDCHAR
STARTCHAR 0302
ENCODING 770
SWIDTH 0 0
DWIDTH 0 0
BBX 12 7 -6 18
BITMAP
0600
0F00
1F80
39C0
70E0
E070
4020
ENDCHAR
STARTCHAR 0303
ENCODING 771
SWIDTH 0 0
DWIDTH 0 0
BBX 13 6 -7 19
BITMAP
3C18
3E18
7718
63B0
61F0
C0E0
ENDCHAR
STARTCHAR 0304
ENCODING 772
SWIDTH 0 0
DWIDTH 0 0
BBX 12 2 -6 19
BITMAP
FFF0
FFF0
ENDCHAR
STARTCHAR 0306
ENCODING 774
SWIDTH 0 0
DWIDTH 0 0
BBX 12 7 -6 18
BITMAP
4020
C030
E070
6060
70E0
3FC0
0F80
ENDCHAR
STARTCHAR 0307
ENCODING 775
SWIDTH 0 0
DWIDTH 0 0
BBX 4 4 -2 19
BITMAP
60
F0
F0
F0
ENDCHAR
STARTCHAR 0308
ENCODING 776
SWIDTH 0 0
DWIDTH 0 0
BBX 12 4 -6 19
BITMAP
6060
F0F0
F0F0
70E0
ENDCHAR
STARTCHAR 0309
ENCODING 777
SWIDTH 0 0
DWIDTH 0 0
BBX 7 7 -3 18
BITMAP
F0
FC
1E
0E
1C
F8
E0
ENDCHAR
STARTCHAR 030A
ENCODING 778
SWIDTH 0 0
DWIDTH 0 0
BBX 10 8 -5 18
BITMAP
1E00
7F80
6180
C0C0
C0C0
E180
7F80
3F00
ENDCHAR
STARTCHAR 030B
ENCODING 779
SWIDTH 0 0
DWIDTH 0 0
BBX 12 6 -5 19
BITMAP
3030
7070
60E0
E0C0
C1C0
8080
ENDCHAR
STARTCHAR 030C
ENCODING 780
SWIDTH 0 0
DWIDTH 0 0
BBX 12 6 -6 19
BITMAP
E070
70E0
39C0
1F80
0F00
0600
ENDCHAR
STARTCHAR 0312
ENCODING 786
SWIDTH 0 0
DWIDTH 0 0
BBX 8 7 -4 18
BITMAP
1E
78
E0
E0
F0
7F
0E
ENDCHAR
STARTCHAR 0315
ENCODING 789
SWIDTH 0 0
DWIDTH 0 0
BBX 3 7 0 17
BITMAP
E0
E0
E0
C0
C0
C0
C0
ENDCHAR
STARTCHAR 0323
ENCODING 803
SWIDTH 0 0
DWIDTH 0 0
BBX 4 4 -2 -7
BITMAP
60
F0
F0
F0
ENDCHAR
STARTCHAR 0324
ENCODING 804
SWIDTH 0 0
DWIDTH 0 0
BBX 12 4 -6 -7
BITMAP
6060
F0F0
F0F0
70E0
ENDCHAR
STARTCHAR 0326
ENCODING 806
SWIDTH 0 0
DWIDTH 0 0
BBX 7 7 -3 -10
BITMAP
F0
FC
1E
0E
1C
F8
E0
ENDCHAR
STARTCHAR 0327
ENCODING 807
SWIDTH 0 0
DWIDTH 0 0
BBX 9 10 -4 -9
BITMAP
1800
1800
1000
3C00
3F80
0180
0180
0780
FF00
7800
ENDCHAR
STARTCHAR 0328
ENCODING 808
SWIDTH 0 0
DWIDTH 0 0
BBX 7 8 -4 -8
BITMAP
18
30
20
60
60
E0
7E
3E
ENDCHAR
STARTCHAR 032D
ENCODING 813
SWIDTH 0 0
DWIDTH 0 0
BBX 12 7 -6 -9
BITMAP
0600
0F00
1F80
39C0
70E0
E070
C030
ENDCHAR
STARTCHAR 032E
ENCODING 814
SWIDTH 0 0
DWIDTH 0 0
BBX 12 6 -6 -9
BITMAP
C030
E030
6060
70E0
3FC0
1F80
ENDCHAR
STARTCHAR 0331
ENCODING 817
SWIDTH 0 0
DWIDTH 0 0
BBX 12 2 -6 -6
BITMAP
FFF0
FFF0
ENDCHAR
STARTCHAR 0E3F
ENCODING 3647
SWIDTH 600 0
DWIDTH 20 0
BBX 16 32 3 -5
BITMAP
0380
0380
0380
0380
0380
FFF0
FFFC
E13E
E10E
E10E
E10E
E10E
E10E
E11C
E178
FFE0
FFF0
E13C
E10E
E10E
E107
E107
E107
E10E
E13E
FFFC
FFF0
0380
0380
0380
0380
0380
ENDCHAR
STARTCHAR 1E06
ENCODING 7686
SWIDTH 600 0
DWIDTH 20 0
BBX 16 28 3 -6
BITMAP
FFE0
FFF8
E03C
E01C
E00E
E00E
E00E
E01C
E03C
E0F0
FFC0
FFF0
E03C
E00E
E00E
E007
E007
E007
E00E
E03E
FFFC
FFF0
0000
0000
0000
0000
3FF8
3FF8
ENDCHAR
STARTCHAR 1E07
ENCODING 7687
SWIDTH 600 0
DWIDTH 20 0
BBX 15 30 3 -6
BITMAP
E000
E000
E000
E000
E000
E000
E000
E000
E3E0
EFF8
FEFC
F81C
E00E
E00E
E00E
E006
E006
E00E
E00E
E01E
E03C
FDF8
FFF0
8FC0
0000
0000
0000
0000
3FF8
3FF8
ENDCHAR
STARTCHAR 1E0C
ENCODING 7692
SWIDTH 600 0
DWIDTH 20 0
BBX 16 29 3 -7
BITMAP
FF00
FFE0
E7F0
E078
E03C
E01E
E00E
E00E
E007
E007
E007
E007
E007
E00E
E00E
E00E
E01C
E03C
E078
EFF0
FFC0
FE00
0000
0000
0000
0700
0F00
0F00
0700
ENDCHAR
STARTCHAR 1E0D
ENCODING 7693
SWIDTH 600 0
DWIDTH 20 0
BBX 15 31 2 -7
BITMAP
0006
0006
0006
0006
0006
0006
0006
0006
07C6
1FF6
3E7E
780E
7006
E006
E006
E006
E006
E006
E006
F00E
781E
3E76
1FE6
0F86
0000
0000
0000
01C0
03C0
03C0
01C0
ENDCHAR
STARTCHAR 1E0E
ENCODING 7694
SWIDTH 600 0
DWIDTH 20 0
BBX 16 28 3 -6
BITMAP
FF00
FFE0
E7F0
E078
E03C
E01E
E00E
E00E
E007
E007
E007
E007
E007
E00E
E00E
E00E
E01C
E03C
E078
EFF0
FFC0
FE00
0000
0000
0000
0000
7FF0
7FF0
ENDCHAR
STARTCHAR 1E0F
ENCODING 7695
SWIDTH 600 0
DWIDTH 20 0
BBX 15 30 2 -6
BITMAP
0006
0006
0006
0006
0006
0006
0006
0006
07C6
1FF6
3E7E
780E
7006
E006
E006
E006
E006
E006
E006
F00E
781E
3E76
1FE6
0F86
0000
0000
0000
0000
1FFC
1FFC
ENDCHAR
STARTCHAR 1E12
ENCODING 7698
SWIDTH 600 0
DWIDTH 20 0
BBX 16 31 3 -9
BITMAP
FF00
FFE0
E7F0
E078
E03C
E01E
E00E
E00E
E007
E007
E007
E007
E007
E00E
E00E
E00E
E01C
E03C
E078
EFF0
FFC0
FE00
0000
0000
0000
0700
0F80
1DC0
30E0
6070
4030
ENDCHAR
STARTCHAR 1E13
ENCODING 7699
SWIDTH 600 0
DWIDTH 20 0
BBX 15 33 2 -9
BITMAP
0006
0006
0006
0006
0006
0006
0006
0006
07C6
1FF6
3E7E
780E
7006
E006
E006
E006
E006
E006
E006
F00E
781E
3E76
1FE6
0F86
0000
0000
0180
03C0
03E0
0770
0C38
181C
100C
ENDCHAR
STARTCHAR 1E20
ENCODING 7712
SWIDTH 600 0
DWIDTH 20 0
BBX 16 28 2 0
BITMAP
0FFE
0FFE
0000
0000
0000
0000
01FE
07FE
1FCE
3E00
3800
7000
7000
E000
E000
E000
E0FF
E0FF
E003
E003
E003
F003
7003
7803
3C03
1F9F
0FFF
03FE
ENDCHAR
STARTCHAR 1E21
ENCODING 7713
SWIDTH 600 0
DWIDTH 20 0
BBX 15 30 2 -8
BITMAP
1FFC
1FFC
0000
0000
0000
0000
07E2
1FFE
3F7E
780E
7006
E006
E006
E006
E006
E006
F00E
701E
7C3E
3FF6
1FC6
0006
0006
000E
000E
000E
001E
0FFC
1FF8
1FC0
ENDCHAR
STARTCHAR 1E24
ENCODING 7716
SWIDTH 600 0
DWIDTH 20 0
BBX 14 29 3 -7
BITMAP
E01C
E01C
E01C
E01C
E01C
E01C
E01C
E01C
E01C
E01C
FFFC
FFFC
E01C
E01C
E01C
E01C
E01C
E01C
E01C
E01C
E01C
E01C
0000
0000
0000
0380
0780
0780
0380
ENDCHAR
STARTCHAR 1E25
ENCODING 7717
SWIDTH 600 0
DWIDTH 20 0
BBX 14 31 3 -7
BITMAP
E000
E000
E000
E000
E000
E000
E000
E000
E1F0
E7F8
EFFC
FC1C
F81C
F00C
E00C
E00C
E00C
E00C
E00C
E00C
E00C
E00C
E00C
E00C
0000
0000
0000
0380
0780
0780
0380
ENDCHAR
STARTCHAR 1E28
ENCODING 7720
SWIDTH 600 0
DWIDTH 20 0
BBX 16 31 1 -9
BITMAP
3807
3807
3807
3807
3807
3807
3807
3807
3807
3807
3FFF
3FFF
3807
3807
3807
3807
3807
3807
3807
3807
3807
3807
1000
3000
3E00
3F00
0380
0380
0F00
FE00
E000
ENDCHAR
STARTCHAR 1E29
ENCODING 7721
SWIDTH 600 0
DWIDTH 20 0
BBX 16 33 1 -9
BITMAP
3800
3800
3800
3800
3800
3800
3800
3800
387C
39FE
3BFF
3F07
3E07
3C03
3803
3803
3803
3803
3803
3803
3803
3803
3803
3803
1000
3000
3E00
3F00
0380
0380
0F00
FE00
F000
ENDCHAR
STARTCHAR 1E2A
ENCODING 7722
SWIDTH 600 0
DWIDTH 20 0
BBX 14 31 3 -9
BITMAP
E01C
E01C
E01C
E01C
E01C
E01C
E01C
E01C
E01C
E01C
FFFC
FFFC
E01C
E01C
E01C
E01C
E01C
E01C
E01C
E01C
E01C
E01C
0000
0000
0000
6018
7018
3038
3870
1FE0
07C0
ENDCHAR
STARTCHAR 1E2B
ENCODING 7723
SWIDTH 600 0
DWIDTH 20 0
BBX 14 33 3 -9
BITMAP
E000
E000
E000
E000
E000
E000
E000
E000
E1F0
E7F8
EFFC
FC1C
F81C
F00C
E00C
E00C
E00C
E00C
E00C
E00C
E00C
E00C
E00C
E00C
0000
0000
0000
6018
3018
3838
1C70
1FE0
07C0
ENDCHAR
STARTCHAR 1E32
ENCODING 7730
SWIDTH 600 0
DWIDTH 20 0
BBX 16 29 3 -7
BITMAP
E00F
E01E
E03C
E038
E070
E0E0
E1C0
E380
E700
EF00
FE00
FE00
EF00
E780
E3C0
E1E0
E0F0
E078
E03C
E01C
E00E
E00F
0000
0000
0000
0380
03C0
03C0
0380
ENDCHAR
STARTCHAR 1E33
ENCODING 7731
SWIDTH 600 0
DWIDTH 20 0
BBX 14 31 4 -7
BITMAP
E000
E000
E000
E000
E000
E000
E000
E000
E03C
E078
E0F0
E1C0
E380
EF00
FE00
FC00
FE00
EF00
E780
E3C0
E1E0
E0F0
E078
E03C
0000
0000
0000
0700
0F00
0F00
0700
ENDCHAR
STARTCHAR 1E34
ENCODING 7732
SWIDTH 600 0
DWIDTH 20 0
BBX 16 28 3 -6
BITMAP
E00F
E01E
E03C
E038
E070
E0E0
E1C0
E380
E700
EF00
FE00
FE00
EF00
E780
E3C0
E1E0
E0F0
E078
E03C
E01C
E00E
E00F
0000
0000
0000
0000
3FF8
3FF8
ENDCHAR
STARTCHAR 1E35
ENCODING 7733
SWIDTH 600 0
DWIDTH 20 0
BBX 14 30 4 -6
BITMAP
E000
E000
E000
E000
E000
E000
E000
E000
E03C
E078
E0F0
E1C0
E380
EF00
FE00
FC00
FE00
EF00
E780
E3C0
E1E0
E0F0
E078
E03C
0000
0000
0000
0000
7FF0
7FF0
ENDCHAR
STARTCHAR 1E36
ENCODING 7734
SWIDTH 600 0
DWIDTH 20 0
BBX 15 29 3 -7
BITMAP
E000
E000
E000
E000
E000
E000
E000
E000
E000
E000
E000
E000
E000
E000
E000
E000
E000
E000
E000
E000
FFFE
FFFE
0000
0000
0000
0180
03C0
03C0
01C0
ENDCHAR
STARTCHAR 1E37
ENCODING 7735
SWIDTH 600 0
DWIDTH 20 0
BBX 16 31 2 -7
BITMAP
FF80
FF80
0380
0380
0380
0380
0380
0380
0380
0380
0380
0380
0380
0380
0380
0380
0380
0380
0380
0380
03C0
01FE
01FF
003E
0000
0000
0000
01C0
03C0
03C0
0180
ENDCHAR
STARTCHAR 1E38
ENCODING 7736
SWIDTH 600 0
DWIDTH 20 0
BBX 19 35 -1 -7
BITMAP
FFE000
FFE000
000000
000000
000000
000000
0E0000
0E0000
0E0000
0E0000
0E0000
0E0000
0E0000
0E0000
0E0000
0E0000
0E0000
0E0000
0E0000
0E0000
0E0000
0E0000
0E0000
0E0000
0E0000
0E0000
0FFFE0
0FFFE0
000000
000000
000000
001800
003C00
003C00
001C00
ENDCHAR
STARTCHAR 1E39
ENCODING 7737
SWIDTH 600 0
DWIDTH 20 0
BBX 16 37 2 -7
BITMAP
3FF8
3FF8
0000
0000
0000
0000
FF80
FF80
0380
0380
0380
0380
0380
0380
0380
0380
0380
0380
0380
0380
0380
0380
0380
0380
0380
0380
03C0
01FE
01FF
003E
0000
0000
0000
01C0
03C0
03C0
0180
ENDCHAR
STARTCHAR 1E3A
ENCODING 7738
SWIDTH 600 0
DWIDTH 20 0
BBX 15 28 3 -6
BITMAP
E000
E000
E000
E000
E000
E000
E000
E000
E000
E000
E000
E000
E000
E000
E000
E000
E000
E000
E000
E000
FFFE
FFFE
0000
0000
0000
0000
1FFC
1FFC
ENDCHAR
STARTCHAR 1E3B
ENCODING 7739
SWIDTH 600 0
DWIDTH 20 0
BBX 16 30 2 -6
BITMAP
FF80
FF80
0380
0380
0380
0380
0380
0380
0380
0380
0380
0380
0380
0380
0380
0380
0380
0380
0380
0380
03C0
01FE
01FF
003E
0000
0000
0000
0000
1FFC
1FFC
ENDCHAR
STARTCHAR 1E3C
ENCODING 7740
SWIDTH 600 0
DWIDTH 20 0
BBX 15 31 3 -9
BITMAP
E000
E000
E000
E000
E000
E000
E000
E000
E000
E000
E000
E000
E000
E000
E000
E000
E000
E000
E000
E000
FFFE
FFFE
0000
0000
0000
03C0
07E0
0E70
1C38
381C
300C
ENDCHAR
STARTCHAR 1E3D
ENCODING 7741
SWIDTH 600 0
DWIDTH 20 0
BBX 16 33 2 -9
BITMAP
FF80
FF80
0380
0380
0380
0380
0380
0380
0380
0380
0380
0380
0380
0380
0380
0380
0380
0380
0380
0380
03C0
01FE
01FF
003E
0000
0000
0180
03C0
07E0
0E70
1C38
381C
300C
ENDCHAR
STARTCHAR 1E3E
ENCODING 7742
SWIDTH 600 0
DWIDTH 20 0
BBX 16 30 2 1
BITMAP
001C
007C
00F0
03C0
0300
0200
0000
0000
700F
780F
781F
7C1F
6C1F
6C37
6E37
6637
6667
6767
63E7
E3C7
E1C7
E187
E187
E087
E007
E003
E003
E003
E003
E003
ENDCHAR
STARTCHAR 1E3F
ENCODING 7743
SWIDTH 600 0
DWIDTH 20 0
BBX 17 25 2 0
BITMAP
001800
003C00
007000
01E000
038000
030000
000000
000000
000000
C78F00
CF9F80
DFBF80
F1F380
E1E380
E1C380
C1C380
C1C380
C1C380
C1C380
C1C380
C1C380
C1C380
C1C380
C1C380
C1C380
ENDCHAR
STARTCHAR 1E40
ENCODING 7744
SWIDTH 600 0
DWIDTH 20 0
BBX 16 29 2 0
BITMAP
01C0
03C0
03C0
01C0
0000
0000
0000
700F
780F
781F
7C1F
6C1F
6C37
6E37
6637
6667
6767
63E7
E3C7
E1C7
E187
E187
E087
E007
E003
E003
E003
E003
E003
ENDCHAR
STARTCHAR 1E41
ENCODING 7745
SWIDTH 600 0
DWIDTH 20 0
BBX 17 23 2 0
BITMAP
01C000
03C000
03C000
01C000
000000
000000
000000
C78F00
CF9F80
DFBF80
F1F380
E1E380
E1C380
C1C380
C1C380
C1C380
C1C380
C1C380
C1C380
C1C380
C1C380
C1C380
C1C380
ENDCHAR
STARTCHAR 1E42
ENCODING 7746
SWIDTH 600 0
DWIDTH 20 0
BBX 16 29 2 -7
BITMAP
700F
780F
781F
7C1F
6C1F
6C37
6E37
6637
6667
6767
63E7
E3C7
E1C7
E187
E187
E087
E007
E003
E003
E003
E003
E003
0000
0000
0000
01C0
03C0
03C0
01C0
ENDCHAR
STARTCHAR 1E43
ENCODING 7747
SWIDTH 600 0
DWIDTH 20 0
BBX 17 23 2 -7
BITMAP
C78F00
CF9F80
DFBF80
F1F380
E1E380
E1C380
C1C380
C1C380
C1C380
C1C380
C1C380
C1C380
C1C380
C1C380
C1C380
C1C380
000000
000000
000000
01C000
03C000
03C000
01C000
ENDCHAR
STARTCHAR 1E44
ENCODING 7748
SWIDTH 600 0
DWIDTH 20 0
BBX 14 29 3 0
BITMAP
0380
0780
0780
0380
0000
0000
0000
F00C
F00C
F80C
F80C
FC0C
FC0C
EE0C
EE0C
E70C
E70C
E30C
E38C
E18C
E1CC
E0CC
E0EC
E0EC
E07C
E07C
E03C
E03C
E01C
ENDCHAR
STARTCHAR 1E45
ENCODING 7749
SWIDTH 600 0
DWIDTH 20 0
BBX 14 23 3 0
BITMAP
0380
0780
0780
0380
0000
0000
0000
E1F0
E7F8
EFFC
FC1C
F81C
F00C
E00C
E00C
E00C
E00C
E00C
E00C
E00C
E00C
E00C
E00C
ENDCHAR
STARTCHAR 1E46
ENCODING 7750
SWIDTH 600 0
DWIDTH 20 0
BBX 14 29 3 -7
BITMAP
F00C
F00C
F80C
F80C
FC0C
FC0C
EE0C
EE0C
E70C
E70C
E30C
E38C
E18C
E1CC
E0CC
E0EC
E0EC
E07C
E07C
E03C
E03C
E01C
0000
0000
0000
0380
0780
0780
0380
ENDCHAR
STARTCHAR 1E47
ENCODING 7751
SWIDTH 600 0
DWIDTH 20 0
BBX 14 23 3 -7
BITMAP
E1F0
E7F8
EFFC
FC1C
F81C
F00C
E00C
E00C
E00C
E00C
E00C
E00C
E00C
E00C
E00C
E00C
0000
0000
0000
0380
0780
0780
0380
ENDCHAR
STARTCHAR 1E48
ENCODING 7752
SWIDTH 600 0
DWIDTH 20 0
BBX 14 28 3 -6
BITMAP
F00C
F00C
F80C
F80C
FC0C
FC0C
EE0C
EE0C
E70C
E70C
E30C
E38C
E18C
E1CC
E0CC
E0EC
E0EC
E07C
E07C
E03C
E03C
E01C
0000
0000
0000
0000
3FF8
3FF8
ENDCHAR
STARTCHAR 1E49
ENCODING 7753
SWIDTH 600 0
DWIDTH 20 0
BBX 14 22 3 -6
BITMAP
E1F0
E7F8
EFFC
FC1C
F81C
F00C
E00C
E00C
E00C
E00C
E00C
E00C
E00C
E00C
E00C
E00C
0000
0000
0000
0000
3FF8
3FF8
ENDCHAR
STARTCHAR 1E4A
ENCODING 7754
SWIDTH 600 0
DWIDTH 20 0
BBX 14 31 3 -9
BITMAP
F00C
F00C
F80C
F80C
FC0C
FC0C
EE0C
EE0C
E70C
E70C
E30C
E38C
E18C
E1CC
E0CC
E0EC
E0EC
E07C
E07C
E03C
E03C
E01C
0000
0000
0300
0780
0FC0
1EE0
1870
3038
2018
ENDCHAR
STARTCHAR 1E4B
ENCODING 7755
SWIDTH 600 0
DWIDTH 20 0
BBX 14 25 3 -9
BITMAP
E1F0
E7F8
EFFC
FC1C
F81C
F00C
E00C
E00C
E00C
E00C
E00C
E00C
E00C
E00C
E00C
E00C
0000
0000
0000
0380
07C0
0EE0
1C70
3038
2018
ENDCHAR
STARTCHAR 1E58
ENCODING 7768
SWIDTH 600 0
DWIDTH 20 0
BBX 16 29 3 0
BITMAP
0380
03C0
03C0
0380
0000
0000
0000
FFE0
FFF8
E07C
E01E
E00E
E00E
E00E
E00E
E01C
E03C
E1F8
FFE0
FE00
E780
E1C0
E0E0
E0F0
E078
E03C
E01C
E00E
E00F
ENDCHAR
STARTCHAR 1E59
ENCODING 7769
SWIDTH 600 0
DWIDTH 20 0
BBX 17 23 2 0
BITMAP
01C000
03C000
03C000
01C000
000000
000000
000000
FC0F80
FC3F80
0C7F80
0CE000
0DC000
0D8000
0F0000
0E0000
0E0000
0E0000
0E0000
0E0000
0E0000
0E0000
FFF000
FFF000
ENDCHAR
STARTCHAR 1E5A
ENCODING 7770
SWIDTH 600 0
DWIDTH 20 0
BBX 16 29 3 -7
BITMAP
FFE0
FFF8
E07C
E01E
E00E
E00E
E00E
E00E
E01C
E03C
E1F8
FFE0
FE00
E780
E1C0
E0E0
E0F0
E078
E03C
E01C
E00E
E00F
0000
0000
0000
0380
03C0
03C0
0380
ENDCHAR
STARTCHAR 1E5B
ENCODING 7771
SWIDTH 600 0
DWIDTH 20 0
BBX 17 23 2 -7
BITMAP
FC0F80
FC3F80
0C7F80
0CE000
0DC000
0D8000
0F0000
0E0000
0E0000
0E0000
0E0000
0E0000
0E0000
0E0000
FFF000
FFF000
000000
000000
000000
0E0000
1E0000
1E0000
0E0000
ENDCHAR
STARTCHAR 1E5C
ENCODING 7772
SWIDTH 600 0
DWIDTH 20 0
BBX 16 35 3 -7
BITMAP
3FF8
3FF8
0000
0000
0000
0000
FFE0
FFF8
E07C
E01E
E00E
E00E
E00E
E00E
E01C
E03C
E1F8
FFE0
FE00
E780
E1C0
E0E0
E0F0
E078
E03C
E01C
E00E
E00F
0000
0000
0000
0380
03C0
03C0
0380
ENDCHAR
STARTCHAR 1E5D
ENCODING 7773
SWIDTH 600 0
DWIDTH 20 0
BBX 17 29 2 -7
BITMAP
1FFC00
1FFC00
000000
000000
000000
000000
FC0F80
FC3F80
0C7F80
0CE000
0DC000
0D8000
0F0000
0E0000
0E0000
0E0000
0E0000
0E0000
0E0000
0E0000
FFF000
FFF000
000000
000000
000000
0E0000
1E0000
1E0000
0E0000
ENDCHAR
STARTCHAR 1E5E
ENCODING 7774
SWIDTH 600 0
DWIDTH 20 0
BBX 16 28 3 -6
BITMAP
FFE0
FFF8
E07C
E01E
E00E
E00E
E00E
E00E
E01C
E03C
E1F8
FFE0
FE00
E780
E1C0
E0E0
E0F0
E078
E03C
E01C
E00E
E00F
0000
0000
0000
0000
3FF8
3FF8
ENDCHAR
STARTCHAR 1E5F
ENCODING 7775
SWIDTH 600 0
DWIDTH 20 0
BBX 17 22 2 -6
BITMAP
FC0F80
FC3F80
0C7F80
0CE000
0DC000
0D8000
0F0000
0E0000
0E0000
0E0000
0E0000
0E0000
0E0000
0E0000
FFF000
FFF000
000000
000000
000000
000000
FFE000
FFE000
ENDCHAR
STARTCHAR 1E62
ENCODING 7778
SWIDTH 600 0
DWIDTH 20 0
BBX 15 29 3 -7
BITMAP
0FF0
3FFC
7E7C
7000
E000
E000
E000
F000
7800
3F00
1FE0
07F8
007C
001E
000E
000E
000E
000E
C01C
FCFC
FFF8
1FE0
0000
0000
0000
0380
0780
0780
0300
ENDCHAR
STARTCHAR 1E63
ENCODING 7779
SWIDTH 600 0
DWIDTH 20 0
BBX 14 23 3 -7
BITMAP
0FF8
3FFC
7C38
7000
6000
7000
7E00
3FE0
07F8
007C
001C
001C
001C
F07C
FFF8
7FE0
0000
0000
0000
0300
0780
0780
0700
ENDCHAR
STARTCHAR 1E6C
ENCODING 7788
SWIDTH 600 0
DWIDTH 20 0
BBX 17 29 2 -7
BITMAP
FFFF80
FFFF80
01C000
01C000
01C000
01C000
01C000
01C000
01C000
01C000
01C000
01C000
01C000
01C000
01C000
01C000
01C000
01C000
01C000
01C000
01C000
01C000
000000
000000
000000
01C000
03C000
03C000
01C000
ENDCHAR
STARTCHAR 1E6D
ENCODING 7789
SWIDTH 600 0
DWIDTH 20 0
BBX 16 29 2 -7
BITMAP
0700
0700
0700
0700
0700
0700
FFFE
FFFE
0700
0700
0700
0700
0700
0700
0700
0700
0700
0700
0380
03FE
01FF
007F
0000
0000
0000
01C0
01E0
01E0
01C0
ENDCHAR
STARTCHAR 1E6E
ENCODING 7790
SWIDTH 600 0
DWIDTH 20 0
BBX 17 28 2 -6
BITMAP
FFFF80
FFFF80
01C000
01C000
01C000
01C000
01C000
01C000
01C000
01C000
01C000
01C000
01C000
01C000
01C000
01C000
01C000
01C000
01C000
01C000
01C000
01C000
000000
000000
000000
000000
1FFC00
1FFC00
ENDCHAR
STARTCHAR 1E6F
ENCODING 7791
SWIDTH 600 0
DWIDTH 20 0
BBX 16 28 2 -6
BITMAP
0700
0700
0700
0700
0700
0700
FFFE
FFFE
0700
0700
0700
0700
0700
0700
0700
0700
0700
0700
0380
03FE
01FF
007F
0000
0000
0000
0000
1FFC
1FFC
ENDCHAR
STARTCHAR 1E70
ENCODING 7792
SWIDTH 600 0
DWIDTH 20 0
BBX 17 31 2 -9
BITMAP
FFFF80
FFFF80
01C000
01C000
01C000
01C000
01C000
01C000
01C000
01C000
01C000
01C000
01C000
01C000
01C000
01C000
01C000
01C000
01C000
01C000
01C000
01C000
000000
000000
000000
01C000
03E000
077000
0C3800
181C00
100C00
ENDCHAR
STARTCHAR 1E71
ENCODING 7793
SWIDTH 600 0
DWIDTH 20 0
BBX 16 31 2 -9
BITMAP
0700
0700
0700
0700
0700
0700
FFFE
FFFE
0700
0700
0700
0700
0700
0700
0700
0700
0700
0700
0380
03FE
01FF
007F
0000
0000
00C0
01E0
03F0
0738
0E1C
1C0E
1806
ENDCHAR
STARTCHAR 1E7E
ENCODING 7806
SWIDTH 600 0
DWIDTH 20 0
BBX 18 29 1 -7
BITMAP
F001C0
7001C0
700380
700380
380380
380300
380700
1C0700
1C0600
1C0E00
0E0E00
0E0C00
0E1C00
071C00
071800
073800
03B800
03B000
03F000
01F000
01E000
01E000
000000
000000
000000
00E000
01E000
01E000
00E000
ENDCHAR
STARTCHAR 1E7F
ENCODING 7807
SWIDTH 600 0
DWIDTH 20 0
BBX 16 23 2 -7
BITMAP
E007
F007
7007
700E
380E
381C
1C1C
1C18
1C38
0E38
0E70
0770
0760
07E0
03E0
03C0
0000
0000
0000
01C0
03C0
03C0
01C0
ENDCHAR
STARTCHAR 1E80
ENCODING 7808
SWIDTH 600 0
DWIDTH 20 0
BBX 17 30 2 0
BITMAP
180000
3E0000
0F0000
03C000
00E000
000000
000000
000000
C00380
E00380
E00380
E00300
E08300
E08300
E18700
618700
61C700
61C700
73C700
73C600
736600
726600
766600
366E00
363E00
343E00
3C3C00
3C3C00
3C1C00
381C00
ENDCHAR
STARTCHAR 1E81
ENCODING 7809
SWIDTH 600 0
DWIDTH 20 0
BBX 17 25 2 0
BITMAP
080000
1C0000
0F0000
078000
01C000
00E000
000000
000000
000000
C00380
C00380
E08380
E08300
E18300
61C700
61C700
73C600
73E600
736600
366E00
367E00
363C00
3C3C00
3C3C00
1C1C00
ENDCHAR
STARTCHAR 1E82
ENCODING 7810
SWIDTH 600 0
DWIDTH 20 0
BBX 17 30 2 0
BITMAP
001800
003C00
00F000
01E000
038000
020000
000000
000000
C00380
E00380
E00380
E00300
E08300
E08300
E18700
618700
61C700
61C700
73C700
73C600
736600
726600
766600
366E00
363E00
343E00
3C3C00
3C3C00
3C1C00
381C00
ENDCHAR
STARTCHAR 1E83
ENCODING 7811
SWIDTH 600 0
DWIDTH 20 0
BBX 17 25 2 0
BITMAP
001800
003800
007800
01E000
03C000
070000
020000
000000
000000
C00380
C00380
E08380
E08300
E18300
61C700
61C700
73C600
73E600
736600
366E00
367E00
363C00
3C3C00
3C3C00
1C1C00
ENDCHAR
STARTCHAR 1E84
ENCODING 7812
SWIDTH 600 0
DWIDTH 20 0
BBX 17 29 2 0
BITMAP
381C00
3C1E00
3C1E00
381C00
000000
000000
000000
C00380
E00380
E00380
E00300
E08300
E08300
E18700
618700
61C700
61C700
73C700
73C600
736600
726600
766600
366E00
363E00
343E00
3C3C00
3C3C00
3C1C00
381C00
ENDCHAR
STARTCHAR 1E85
ENCODING 7813
SWIDTH 600 0
DWIDTH 20 0
BBX 17 23 2 0
BITMAP
1C1C00
3C3C00
3C3C00
181800
000000
000000
000000
C00380
C00380
E08380
E08300
E18300
61C700
61C700
73C600
73E600
736600
366E00
367E00
363C00
3C3C00
3C3C00
1C1C00
ENDCHAR
STARTCHAR 1E8C
ENCODING 7820
SWIDTH 600 0
DWIDTH 20 0
BBX 17 29 2 0
BITMAP
381C00
3C1E00
3C1E00
381C00
000000
000000
000000
F00700
700E00
380E00
381C00
1C3C00
1E3800
0E7000
077000
07E000
03C000
03C000
03C000
07E000
077000
0E7000
0E3800
1C3C00
381C00
381E00
700E00
F00700
E00780
ENDCHAR
STARTCHAR 1E8D
ENCODING 7821
SWIDTH 600 0
DWIDTH 20 0
BBX 15 23 3 0
BITMAP
3838
7878
7878
3030
0000
0000
0000
E01C
703C
7838
3C70
1CE0
0EE0
0FC0
0780
07C0
0FC0
1CE0
1C70
3878
7038
F01C
E00E
ENDCHAR
STARTCHAR 1E8E
ENCODING 7822
SWIDTH 600 0
DWIDTH 20 0
BBX 17 29 2 0
BITMAP
01C000
03C000
03C000
01C000
000000
000000
000000
E00380
F00700
700F00
780E00
381C00
1C1C00
1C3800
0E3800
0F7000
07F000
03E000
03C000
01C000
01C000
01C000
01C000
01C000
01C000
01C000
01C000
01C000
01C000
ENDCHAR
STARTCHAR 1E8F
ENCODING 7823
SWIDTH 600 0
DWIDTH 20 0
BBX 16 31 2 -8
BITMAP
01C0
03C0
03C0
01C0
0000
0000
0000
E007
F007
7007
700E
380E
380C
1C1C
1C1C
1C38
0E38
0E30
0770
0770
07E0
03E0
03C0
01C0
0180
0380
0380
0700
7F00
FE00
F800
ENDCHAR
STARTCHAR 1E90
ENCODING 7824
SWIDTH 600 0
DWIDTH 20 0
BBX 16 31 2 0
BITMAP
0180
03E0
07F0
0E38
1C1C
300C
0000
0000
0000
7FFF
7FFF
7FFE
001E
001C
0038
0078
0070
00E0
01E0
01C0
0380
0780
0700
0E00
1E00
1C00
3800
7800
7000
FFFF
FFFF
ENDCHAR
STARTCHAR 1E91
ENCODING 7825
SWIDTH 600 0
DWIDTH 20 0
BBX 15 25 3 0
BITMAP
0380
07C0
0EE0
1C70
3838
3018
0000
0000
0000
FFFC
FFFC
003C
0078
0070
00E0
01C0
0380
0780
0F00
1E00
3C00
7800
F000
FFFE
FFFE
ENDCHAR
STARTCHAR 1E92
ENCODING 7826
SWIDTH 600 0
DWIDTH 20 0
BBX 16 29 2 -7
BITMAP
7FFF
7FFF
7FFE
001E
001C
0038
0078
0070
00E0
01E0
01C0
0380
0780
0700
0E00
1E00
1C00
3800
7800
7000
FFFF
FFFF
0000
0000
0000
01C0
03C0
03C0
01C0
ENDCHAR
STARTCHAR 1E93
ENCODING 7827
SWIDTH 600 0
DWIDTH 20 0
BBX 15 23 3 -7
BITMAP
FFFC
FFFC
003C
0078
0070
00E0
01C0
0380
0780
0F00
1E00
3C00
7800
F000
FFFE
FFFE
0000
0000
0000
0380
03C0
07C0
0380
ENDCHAR
STARTCHAR 1E94
ENCODING 7828
SWIDTH 600 0
DWIDTH 20 0
BBX 16 28 2 -6
BITMAP
7FFF
7FFF
7FFE
001E
001C
0038
0078
0070
00E0
01E0
01C0
0380
0780
0700
0E00
1E00
1C00
3800
7800
7000
FFFF
FFFF
0000
0000
0000
0000
1FFC
1FFC
ENDCHAR
STARTCHAR 1E95
ENCODING 7829
SWIDTH 600 0
DWIDTH 20 0
BBX 15 22 3 -6
BITMAP
FFFC
FFFC
003C
0078
0070
00E0
01C0
0380
0780
0F00
1E00
3C00
7800
F000
FFFE
FFFE
0000
0000
0000
0000
3FF8
3FF8
ENDCHAR
STARTCHAR 1E96
ENCODING 7830
SWIDTH 600 0
DWIDTH 20 0
BBX 14 30 3 -6
BITMAP
E000
E000
E000
E000
E000
E000
E000
E000
E1F0
E7F8
EFFC
FC1C
F81C
F00C
E00C
E00C
E00C
E00C
E00C
E00C
E00C
E00C
E00C
E00C
0000
0000
0000
0000
3FF8
3FF8
ENDCHAR
STARTCHAR 1E9E
ENCODING 7838
SWIDTH 600 0
DWIDTH 20 0
BBX 16 22 3 0
BITMAP
0FC0
3FF8
7EFC
701E
E00C
E01C
E038
E030
E070
E0E0
E0E0
E0F0
E03C
E01E
E00E
E007
E007
E007
E007
E09E
E0FE
E0F8
ENDCHAR
STARTCHAR 1EA0
ENCODING 7840
SWIDTH 600 0
DWIDTH 20 0
BBX 18 29 1 -7
BITMAP
01E000
01F000
01F000
03F000
03B000
033800
073800
071800
061C00
0E1C00
0E1C00
0E0E00
1C0E00
1C0E00
1FFF00
3FFF00
380700
380380
700380
700380
7001C0
E001C0
000000
000000
000000
00E000
01E000
01E000
00C000
ENDCHAR
STARTCHAR 1EA1
ENCODING 7841
SWIDTH 600 0
DWIDTH 20 0
BBX 17 23 2 -7
BITMAP
3FE000
3FF800
383C00
001C00
001C00
001C00
007C00
1FFC00
7F1C00
701C00
E01C00
E01C00
E03C00
71FE00
7FCF80
1F0780
000000
000000
000000
01C000
03C000
03C000
018000
ENDCHAR
STARTCHAR 1EA2
ENCODING 7842
SWIDTH 600 0
DWIDTH 20 0
BBX 18 31 1 0
BITMAP
03E000
01F800
001C00
001C00
007800
03E000
000000
000000
000000
01E000
01F000
01F000
03F000
03B000
033800
073800
071800
061C00
0E1C00
0E1C00
0E0E00
1C0E00
1C0E00
1FFF00
3FFF00
380700
380380
700380
700380
7001C0
E001C0
ENDCHAR
STARTCHAR 1EA3
ENCODING 7843
SWIDTH 600 0
DWIDTH 20 0
BBX 17 26 2 0
BITMAP
060000
07C000
01E000
007000
007000
01E000
07C000
040000
000000
000000
3FE000
3FF800
383C00
001C00
001C00
001C00
007C00
1FFC00
7F1C00
701C00
E01C00
E01C00
E03C00
71FE00
7FCF80
1F0780
ENDCHAR
STARTCHAR 1EA4
ENCODING 7844
SWIDTH 600 0
DWIDTH 20 0
BBX 18 34 1 0
BITMAP
0000C0
0003C0
000780
000600
00C000
01F000
07F800
0E1C00
1C0E00
000000
000000
000000
01E000
01F000
01F000
03F000
03B000
033800
073800
071800
061C00
0E1C00
0E1C00
0E0E00
1C0E00
1C0E00
1FFF00
3FFF00
380700
380380
700380
700380
7001C0
E001C0
ENDCHAR
STARTCHAR 1EA5
ENCODING 7845
SWIDTH 600 0
DWIDTH 20 0
BBX 17 29 2 0
BITMAP
000080
000180
000780
000E00
000C00
03C000
07E000
0F7000
1C3800
381C00
100400
000000
000000
3FE000
3FF800
383C00
001C00
001C00
001C00
007C00
1FFC00
7F1C00
701C00
E01C00
E01C00
E03C00
71FE00
7FCF80
1F0780
ENDCHAR
STARTCHAR 1EA6
ENCODING 7846
SWIDTH 600 0
DWIDTH 20 0
BBX 18 35 1 0
BITMAP
001000
001C00
001E00
000780
000300
00C000
01F000
07F800
0E1C00
1C0E00
000000
000000
000000
01E000
01F000
01F000
03F000
03B000
033800
073800
071800
061C00
0E1C00
0E1C00
0E0E00
1C0E00
1C0E00
1FFF00
3FFF00
380700
380380
700380
700380
7001C0
E001C0
ENDCHAR
STARTCHAR 1EA7
ENCODING 7847
SWIDTH 600 0
DWIDTH 20 0
BBX 17 28 2 1
BITMAP
003800
003C00
000E00
000600
03C000
07E000
0F7000
1C3800
381C00
100400
000000
000000
3FE000
3FF800
383C00
001C00
001C00
001C00
007C00
1FFC00
7F1C00
701C00
E01C00
E01C00
E03C00
71FE00
7FCF80
1F0780
ENDCHAR
STARTCHAR 1EA8
ENCODING 7848
SWIDTH 600 0
DWIDTH 20 0
BBX 19 36 1 0
BITMAP
000E00
001FC0
0001C0
0000E0
0007C0
000F00
00C000
01F000
07F800
0E1C00
1C0E00
000000
000000
000000
01E000
01F000
01F000
03F000
03B000
033800
073800
071800
061C00
0E1C00
0E1C00
0E0E00
1C0E00
1C0E00
1FFF00
3FFF00
380700
380380
700380
700380
7001C0
E001C0
ENDCHAR
STARTCHAR 1EA9
ENCODING 7849
SWIDTH 600 0
DWIDTH 20 0
BBX 18 30 2 0
BITMAP
001F00
000FC0
0001C0
0001C0
000780
000E00
03C000
07E000
0F7000
1C3800
381C00
100400
000000
000000
3FE000
3FF800
383C00
001C00
001C00
001C00
007C00
1FFC00
7F1C00
701C00
E01C00
E01C00
E03C00
71FE00
7FCF80
1F0780
ENDCHAR
STARTCHAR 1EAA
ENCODING 7850
SWIDTH 600 0
DWIDTH 20 0
BBX 18 36 1 0
BITMAP
038300
07C600
0EE600
0C7C00
0C1C00
000000
00C000
01F000
07F800
0E1C00
1C0E00
000000
000000
000000
01E000
01F000
01F000
03F000
03B000
033800
073800
071800
061C00
0E1C00
0E1C00
0E0E00
1C0E00
1C0E00
1FFF00
3FFF00
380700
380380
700380
700380
7001C0
E001C0
ENDCHAR
STARTCHAR 1EAB
ENCODING 7851
SWIDTH 600 0
DWIDTH 20 0
BBX 17 31 2 0
BITMAP
0E0E00
0F0C00
19DC00
18F800
307000
100000
000000
03C000
07E000
0F7000
1C3800
381C00
100400
000000
000000
3FE000
3FF800
383C00
001C00
001C00
001C00
007C00
1FFC00
7F1C00
701C00
E01C00
E01C00
E03C00
71FE00
7FCF80
1F0780
ENDCHAR
STARTCHAR 1EAC
ENCODING 7852
SWIDTH 600 0
DWIDTH 20 0
BBX 18 38 1 -7
BITMAP
00C000
01E000
03F000
073800
0E1C00
1C0600
000200
000000
000000
01E000
01F000
01F000
03F000
03B000
033800
073800
071800
061C00
0E1C00
0E1C00
0E0E00
1C0E00
1C0E00
1FFF00
3FFF00
380700
380380
700380
700380
7001C0
E001C0
000000
000000
000000
00E000
01E000
01E000
00C000
ENDCHAR
STARTCHAR 1EAD
ENCODING 7853
SWIDTH 600 0
DWIDTH 20 0
BBX 17 32 2 -7
BITMAP
01C000
03C000
07E000
0E7000
1C1800
380C00
000000
000000
000000
3FE000
3FF800
383C00
001C00
001C00
001C00
007C00
1FFC00
7F1C00
701C00
E01C00
E01C00
E03C00
71FE00
7FCF80
1F0780
000000
000000
000000
01C000
03C000
03C000
018000
ENDCHAR
STARTCHAR 1EAE
ENCODING 7854
SWIDTH 600 0
DWIDTH 20 0
BBX 18 36 1 0
BITMAP
000200
000E00
003E00
00F800
01E000
010000
180600
1C0E00
0E1C00
07FC00
03F000
000000
000000
000000
01E000
01F000
01F000
03F000
03B000
033800
073800
071800
061C00
0E1C00
0E1C00
0E0E00
1C0E00
1C0E00
1FFF00
3FFF00
380700
380380
700380
700380
7001C0
E001C0
ENDCHAR
STARTCHAR 1EAF
ENCODING 7855
SWIDTH 600 0
DWIDTH 20 0
BBX 17 31 2 0
BITMAP
000400
001C00
003C00
00F000
03C000
030000
000800
300C00
380C00
181800
1E3800
0FF000
03E000
000000
000000
3FE000
3FF800
383C00
001C00
001C00
001C00
007C00
1FFC00
7F1C00
701C00
E01C00
E01C00
E03C00
71FE00
7FCF80
1F0780
ENDCHAR
STARTCHAR 1EB0
ENCODING 7856
SWIDTH 600 0
DWIDTH 20 0
BBX 18 36 1 0
BITMAP
180000
1E0000
0F0000
03C000
00E000
002000
180600
1C0E00
0E1C00
07FC00
03F000
000000
000000
000000
01E000
01F000
01F000
03F000
03B000
033800
073800
071800
061C00
0E1C00
0E1C00
0E0E00
1C0E00
1C0E00
1FFF00
3FFF00
380700
380380
700380
700380
7001C0
E001C0
ENDCHAR
STARTCHAR 1EB1
ENCODING 7857
SWIDTH 600 0
DWIDTH 20 0
BBX 17 30 2 1
BITMAP
380000
3E0000
0F8000
03C000
00C000
000800
300C00
380C00
181800
1E3800
0FF000
03E000
000000
000000
3FE000
3FF800
383C00
001C00
001C00
001C00
007C00
1FFC00
7F1C00
701C00
E01C00
E01C00
E03C00
71FE00
7FCF80
1F0780
ENDCHAR
STARTCHAR 1EB2
ENCODING 7858
SWIDTH 600 0
DWIDTH 20 0
BBX 18 36 1 0
BITMAP
03E000
01F800
001800
003800
01F000
018000
180600
1C0E00
0E1C00
07FC00
03F000
000000
000000
000000
01E000
01F000
01F000
03F000
03B000
033800
073800
071800
061C00
0E1C00
0E1C00
0E0E00
1C0E00
1C0E00
1FFF00
3FFF00
380700
380380
700380
700380
7001C0
E001C0
ENDCHAR
STARTCHAR 1EB3
ENCODING 7859
SWIDTH 600 0
DWIDTH 20 0
BBX 17 31 2 0
BITMAP
03C000
03F000
003800
003800
00F000
03C000
000800
300C00
380C00
181800
1E3800
0FF000
03E000
000000
000000
3FE000
3FF800
383C00
001C00
001C00
001C00
007C00
1FFC00
7F1C00
701C00
E01C00
E01C00
E03C00
71FE00
7FCF80
1F0780
ENDCHAR
STARTCHAR 1EB4
ENCODING 7860
SWIDTH 600 0
DWIDTH 20 0
BBX 18 36 1 0
BITMAP
070600
0F8600
0CEC00
187C00
183800
000000
080600
1C0600
0E1C00
07FC00
03F000
000000
000000
000000
01E000
01F000
01F000
03F000
03B000
033800
073800
071800
061C00
0E1C00
0E1C00
0E0E00
1C0E00
1C0E00
1FFF00
3FFF00
380700
380380
700380
700380
7001C0
E001C0
ENDCHAR
STARTCHAR 1EB5
ENCODING 7861
SWIDTH 600 0
DWIDTH 20 0
BBX 17 31 2 0
BITMAP
0E0C00
0F0C00
19DC00
18F800
307000
000000
000800
300C00
380C00
181800
1E3800
0FF000
03E000
000000
000000
3FE000
3FF800
383C00
001C00
001C00
001C00
007C00
1FFC00
7F1C00
701C00
E01C00
E01C00
E03C00
71FE00
7FCF80
1F0780
ENDCHAR
STARTCHAR 1EB6
ENCODING 7862
SWIDTH 600 0
DWIDTH 20 0
BBX 18 38 1 -7
BITMAP
180600
180600
0C0E00
0E1C00
07F800
03F000
000000
000000
000000
01E000
01F000
01F000
03F000
03B000
033800
073800
071800
061C00
0E1C00
0E1C00
0E0E00
1C0E00
1C0E00
1FFF00
3FFF00
380700
380380
700380
700380
7001C0
E001C0
000000
000000
000000
00E000
01E000
01E000
00C000
ENDCHAR
STARTCHAR 1EB7
ENCODING 7863
SWIDTH 600 0
DWIDTH 20 0
BBX 17 32 2 -7
BITMAP
000800
300C00
380C00
181800
1E3800
0FF000
03E000
000000
000000
3FE000
3FF800
383C00
001C00
001C00
001C00
007C00
1FFC00
7F1C00
701C00
E01C00
E01C00
E03C00
71FE00
7FCF80
1F0780
000000
000000
000000
01C000
03C000
03C000
018000
ENDCHAR
STARTCHAR 1EB8
ENCODING 7864
SWIDTH 600 0
DWIDTH 20 0
BBX 15 29 3 -7
BITMAP
FFFE
FFFE
E000
E000
E000
E000
E000
E000
E000
E000
FFF8
FFF8
E000
E000
E000
E000
E000
E000
E000
E000
FFFE
FFFE
0000
0000
0000
0180
03C0
03C0
0380
ENDCHAR
STARTCHAR 1EB9
ENCODING 7865
SWIDTH 600 0
DWIDTH 20 0
BBX 16 23 2 -7
BITMAP
03F0
0FF8
1E3C
380E
7006
7007
6007
7FFF
FFFF
6000
7000
7000
7800
3F00
1FF8
07F8
0000
0000
0000
01C0
01E0
01E0
01C0
ENDCHAR
STARTCHAR 1EBA
ENCODING 7866
SWIDTH 600 0
DWIDTH 20 0
BBX 15 31 3 0
BITMAP
07C0
03F0
0078
0038
00F0
07C0
0000
0000
0000
FFFE
FFFE
E000
E000
E000
E000
E000
E000
E000
E000
FFF8
FFF8
E000
E000
E000
E000
E000
E000
E000
E000
FFFE
FFFE
ENDCHAR
STARTCHAR 1EBB
ENCODING 7867
SWIDTH 600 0
DWIDTH 20 0
BBX 16 25 2 1
BITMAP
07C0
01F0
0070
0030
00F0
07C0
0700
0000
0000
03F0
0FF8
1E3C
380E
7006
7007
6007
7FFF
FFFF
6000
7000
7000
7800
3F00
1FF8
07F8
ENDCHAR
STARTCHAR 1EBC
ENCODING 7868
SWIDTH 600 0
DWIDTH 20 0
BBX 15 30 3 0
BITMAP
1E0E
1F0C
339C
30F8
6070
0000
0000
0000
FFFE
FFFE
E000
E000
E000
E000
E000
E000
E000
E000
FFF8
FFF8
E000
E000
E000
E000
E000
E000
E000
E000
FFFE
FFFE
ENDCHAR
STARTCHAR 1EBD
ENCODING 7869
SWIDTH 600 0
DWIDTH 20 0
BBX 16 25 2 0
BITMAP
0004
0F06
1F86
19CC
38EC
3078
3038
0000
0000
03F0
0FF8
1E3C
380E
7006
7007
6007
7FFF
FFFF
6000
7000
7000
7800
3F00
1FF8
07F8
ENDCHAR
STARTCHAR 1EBE
ENCODING 7870
SWIDTH 600 0
DWIDTH 20 0
BBX 17 35 3 0
BITMAP
000100
000380
000F80
001E00
000800
03C000
07E000
0E7000
3C3C00
300C00
000000
000000
000000
FFFE00
FFFE00
E00000
E00000
E00000
E00000
E00000
E00000
E00000
E00000
FFF800
FFF800
E00000
E00000
E00000
E00000
E00000
E00000
E00000
E00000
FFFE00
FFFE00
ENDCHAR
STARTCHAR 1EBF
ENCODING 7871
SWIDTH 600 0
DWIDTH 20 0
BBX 18 29 2 0
BITMAP
000080
0001C0
000380
000F00
000C00
01C000
03E000
077000
0E3800
1C0E00
100400
000000
000000
03F000
0FF800
1E3C00
380E00
700600
700700
600700
7FFF00
FFFF00
600000
700000
700000
780000
3F0000
1FF800
07F800
ENDCHAR
STARTCHAR 1EC0
ENCODING 7872
SWIDTH 600 0
DWIDTH 20 0
BBX 16 35 3 0
BITMAP
0020
0078
003C
000F
0002
03C0
07E0
0E70
3C3C
300C
0000
0000
0000
FFFE
FFFE
E000
E000
E000
E000
E000
E000
E000
E000
FFF8
FFF8
E000
E000
E000
E000
E000
E000
E000
E000
FFFE
FFFE
ENDCHAR
STARTCHAR 1EC1
ENCODING 7873
SWIDTH 600 0
DWIDTH 20 0
BBX 16 29 2 0
BITMAP
0010
0038
001C
000E
0007
01C0
03E0
0770
0E38
1C0E
1004
0000
0000
03F0
0FF8
1E3C
380E
7006
7007
6007
7FFF
FFFF
6000
7000
7000
7800
3F00
1FF8
07F8
ENDCHAR
STARTCHAR 1EC2
ENCODING 7874
SWIDTH 600 0
DWIDTH 20 0
BBX 17 36 3 0
BITMAP
003E00
001F80
000180
000380
001F00
001800
03C000
07E000
0E7000
3C3C00
300C00
000000
000000
000000
FFFE00
FFFE00
E00000
E00000
E00000
E00000
E00000
E00000
E00000
E00000
FFF800
FFF800
E00000
E00000
E00000
E00000
E00000
E00000
E00000
E00000
FFFE00
FFFE00
ENDCHAR
STARTCHAR 1EC3
ENCODING 7875
SWIDTH 600 0
DWIDTH 20 0
BBX 18 30 2 0
BITMAP
000F00
001FC0
0000C0
0000C0
000780
000F00
01C000
03E000
077000
0E3800
1C0E00
100400
000000
000000
03F000
0FF800
1E3C00
380E00
700600
700700
600700
7FFF00
FFFF00
600000
700000
700000
780000
3F0000
1FF800
07F800
ENDCHAR
STARTCHAR 1EC4
ENCODING 7876
SWIDTH 600 0
DWIDTH 20 0
BBX 15 36 3 0
BITMAP
0F06
0F8C
19DC
18F8
1038
0000
03C0
07E0
0E70
3C3C
300C
0000
0000
0000
FFFE
FFFE
E000
E000
E000
E000
E000
E000
E000
E000
FFF8
FFF8
E000
E000
E000
E000
E000
E000
E000
E000
FFFE
FFFE
ENDCHAR
STARTCHAR 1EC5
ENCODING 7877
SWIDTH 600 0
DWIDTH 20 0
BBX 16 30 2 0
BITMAP
0706
0F8C
1DCC
1878
1838
0000
01C0
03E0
0770
0E38
1C0E
1004
0000
0000
03F0
0FF8
1E3C
380E
7006
7007
6007
7FFF
FFFF
6000
7000
7000
7800
3F00
1FF8
07F8
ENDCHAR
STARTCHAR 1EC6
ENCODING 7878
SWIDTH 600 0
DWIDTH 20 0
BBX 15 38 3 -7
BITMAP
0180
03C0
07E0
1E70
381C
300C
0000
0000
0000
FFFE
FFFE
E000
E000
E000
E000
E000
E000
E000
E000
FFF8
FFF8
E000
E000
E000
E000
E000
E000
E000
E000
FFFE
FFFE
0000
0000
0000
0180
03C0
03C0
0380
ENDCHAR
STARTCHAR 1EC7
ENCODING 7879
SWIDTH 600 0
DWIDTH 20 0
BBX 16 32 2 -7
BITMAP
00C0
01E0
03F0
0738
0C1C
180E
1004
0000
0000
03F0
0FF8
1E3C
380E
7006
7007
6007
7FFF
FFFF
6000
7000
7000
7800
3F00
1FF8
07F8
0000
0000
0000
01C0
01E0
01E0
01C0
ENDCHAR
STARTCHAR 1EC8
ENCODING 7880
SWIDTH 600 0
DWIDTH 20 0
BBX 12 31 4 0
BITMAP
0F00
1FC0
00E0
00E0
03C0
1F00
0000
0000
0000
FFF0
7FF0
0700
0700
0700
0700
0700
0700
0700
0700
0700
0700
0700
0700
0700
0700
0700
0700
0700
0700
7FF0
FFF0
ENDCHAR
STARTCHAR 1EC9
ENCODING 7881
SWIDTH 600 0
DWIDTH 20 0
BBX 14 26 4 0
BITMAP
0C00
1F80
03C0
01C0
01C0
0380
1F00
0000
0000
0000
FF00
FF00
0700
0700
0700
0700
0700
0700
0700
0700
0700
0700
0700
0700
FFFC
FFFC
ENDCHAR
STARTCHAR 1ECA
ENCODING 7882
SWIDTH 600 0
DWIDTH 20 0
BBX 12 29 4 -7
BITMAP
FFF0
7FF0
0700
0700
0700
0700
0700
0700
0700
0700
0700
0700
0700
0700
0700
0700
0700
0700
0700
0700
7FF0
FFF0
0000
0000
0000
0700
0F00
0F00
0700
ENDCHAR
STARTCHAR 1ECB
ENCODING 7883
SWIDTH 600 0
DWIDTH 20 0
BBX 14 32 4 -7
BITMAP
0700
0F80
0F80
0F00
0000
0000
0000
0000
0000
FF00
FF00
0700
0700
0700
0700
0700
0700
0700
0700
0700
0700
0700
0700
FFFC
FFFC
0000
0000
0000
0700
0780
0780
0700
ENDCHAR
STARTCHAR 1ECC
ENCODING 7884
SWIDTH 600 0
DWIDTH 20 0
BBX 17 29 2 -7
BITMAP
07E000
1FF800
3E7C00
381E00
700E00
700700
E00700
E00700
E00700
E00380
E00380
E00380
E00380
E00700
E00700
E00700
700700
700E00
381E00
3E7C00
1FF800
07E000
000000
000000
000000
01C000
03C000
03C000
01C000
ENDCHAR
STARTCHAR 1ECD
ENCODING 7885
SWIDTH 600 0
DWIDTH 20 0
BBX 16 23 2 -7
BITMAP
07E0
1FF8
3F7C
780E
700F
E007
E007
E007
E007
E007
E007
700F
780E
3F7C
1FF8
07E0
0000
0000
0000
01C0
03C0
03C0
01C0
ENDCHAR
STARTCHAR 1ECE
ENCODING 7886
SWIDTH 600 0
DWIDTH 20 0
BBX 17 31 2 0
BITMAP
038000
07F000
007800
003800
007000
07E000
030000
000000
000000
07E000
1FF800
3E7C00
381E00
700E00
700700
E00700
E00700
E00700
E00380
E00380
E00380
E00380
E00700
E00700
E00700
700700
700E00
381E00
3E7C00
1FF800
07E000
ENDCHAR
STARTCHAR 1ECF
ENCODING 7887
SWIDTH 600 0
DWIDTH 20 0
BBX 16 25 2 1
BITMAP
07C0
03E0
0070
0070
00E0
07C0
0600
0000
0000
07E0
1FF8
3F7C
780E
700F
E007
E007
E007
E007
E007
E007
700F
780E
3F7C
1FF8
07E0
ENDCHAR
STARTCHAR 1ED0
ENCODING 7888
SWIDTH 600 0
DWIDTH 20 0
BBX 18 34 2 0
BITMAP
000180
0007C0
000F00
000C00
01C000
03E000
0FF000
1E3800
381C00
100400
000000
000000
07E000
1FF800
3E7C00
381E00
700E00
700700
E00700
E00700
E00700
E00380
E00380
E00380
E00380
E00700
E00700
E00700
700700
700E00
381E00
3E7C00
1FF800
07E000
ENDCHAR
STARTCHAR 1ED1
ENCODING 7889
SWIDTH 600 0
DWIDTH 20 0
BBX 17 29 2 0
BITMAP
000080
000180
000780
000E00
000C00
01C000
07E000
0F7000
1C3800
381C00
100400
000000
000000
07E000
1FF800
3F7C00
780E00
700F00
E00700
E00700
E00700
E00700
E00700
E00700
700F00
780E00
3F7C00
1FF800
07E000
ENDCHAR
STARTCHAR 1ED2
ENCODING 7890
SWIDTH 600 0
DWIDTH 20 0
BBX 17 34 2 1
BITMAP
003800
003C00
000F00
000300
01C000
03E000
0FF000
1E3800
381C00
100400
000000
000000
07E000
1FF800
3E7C00
381E00
700E00
700700
E00700
E00700
E00700
E00380
E00380
E00380
E00380
E00700
E00700
E00700
700700
700E00
381E00
3E7C00
1FF800
07E000
ENDCHAR
STARTCHAR 1ED3
ENCODING 7891
SWIDTH 600 0
DWIDTH 20 0
BBX 16 28 2 1
BITMAP
0038
003C
000E
0006
01C0
07E0
0F70
1C38
381C
1004
0000
0000
07E0
1FF8
3F7C
780E
700F
E007
E007
E007
E007
E007
E007
700F
780E
3F7C
1FF8
07E0
ENDCHAR
STARTCHAR 1ED4
ENCODING 7892
SWIDTH 600 0
DWIDTH 20 0
BBX 18 36 2 0
BITMAP
001C00
003F80
0003C0
0001C0
000780
000E00
01C000
03E000
0FF000
1E3800
381C00
100400
000000
000000
07E000
1FF800
3E7C00
381E00
700E00
700700
E00700
E00700
E00700
E00380
E00380
E00380
E00380
E00700
E00700
E00700
700700
700E00
381E00
3E7C00
1FF800
07E000
ENDCHAR
STARTCHAR 1ED5
ENCODING 7893
SWIDTH 600 0
DWIDTH 20 0
BBX 18 30 2 0
BITMAP
001F00
000FC0
0001C0
0001C0
000780
000E00
01C000
07E000
0F7000
1C3800
381C00
100400
000000
000000
07E000
1FF800
3F7C00
780E00
700F00
E00700
E00700
E00700
E00700
E00700
E00700
700F00
780E00
3F7C00
1FF800
07E000
ENDCHAR
STARTCHAR 1ED6
ENCODING 7894
SWIDTH 600 0
DWIDTH 20 0
BBX 17 36 2 0
BITMAP
070600
0F8600
0DCC00
18FC00
183800
000000
01C000
03E000
0FF000
1E3800
381C00
100400
000000
000000
07E000
1FF800
3E7C00
381E00
700E00
700700
E00700
E00700
E00700
E00380
E00380
E00380
E00380
E00700
E00700
E00700
700700
700E00
381E00
3E7C00
1FF800
07E000
ENDCHAR
STARTCHAR 1ED7
ENCODING 7895
SWIDTH 600 0
DWIDTH 20 0
BBX 16 30 2 0
BITMAP
0F0C
1F8C
19DC
18F8
3070
0000
01C0
07E0
0F70
1C38
381C
1004
0000
0000
07E0
1FF8
3F7C
780E
700F
E007
E007
E007
E007
E007
E007
700F
780E
3F7C
1FF8
07E0
ENDCHAR
STARTCHAR 1ED8
ENCODING 7896
SWIDTH 600 0
DWIDTH 20 0
BBX 17 37 2 -7
BITMAP
01C000
07E000
0F7000
1C3800
381C00
100400
000000
000000
07E000
1FF800
3E7C00
381E00
700E00
700700
E00700
E00700
E00700
E00380
E00380
E00380
E00380
E00700
E00700
E00700
700700
700E00
381E00
3E7C00
1FF800
07E000
000000
000000
000000
01C000
03C000
03C000
01C000
ENDCHAR
STARTCHAR 1ED9
ENCODING 7897
SWIDTH 600 0
DWIDTH 20 0
BBX 16 32 2 -7
BITMAP
0180
03C0
07E0
0E70
1C38
380C
1004
0000
0000
07E0
1FF8
3F7C
780E
700F
E007
E007
E007
E007
E007
E007
700F
780E
3F7C
1FF8
07E0
0000
0000
0000
01C0
03C0
03C0
01C0
ENDCHAR
STARTCHAR 1EDA
ENCODING 7898
SWIDTH 600 0
DWIDTH 20 0
BBX 18 31 2 0
BITMAP
000800
001C00
007800
01F000
03C000
0300C0
0001C0
0001C0
0001C0
07FF80
1FFF00
3E7800
381C00
700E00
700700
E00700
E00700
E00700
E00380
E00380
E00380
E00380
E00700
E00700
E00700
700700
700E00
381E00
3E7C00
1FF800
07E000
ENDCHAR
STARTCHAR 1EDB
ENCODING 7899
SWIDTH 600 0
DWIDTH 20 0
BBX 18 25 2 0
BITMAP
001800
003C00
00F000
01E000
038000
0301C0
000180
000180
000380
07FF00
1FFE00
3E3800
780E00
700E00
E00700
E00700
E00700
E00700
E00700
E00700
700F00
780E00
3F7C00
1FF800
07E000
ENDCHAR
STARTCHAR 1EDC
ENCODING 7900
SWIDTH 600 0
DWIDTH 20 0
BBX 18 31 2 0
BITMAP
100000
1C0000
1F0000
078000
01E000
0060C0
0001C0
0001C0
0001C0
07FF80
1FFF00
3E7800
381C00
700E00
700700
E00700
E00700
E00700
E00380
E00380
E00380
E00380
E00700
E00700
E00700
700700
700E00
381E00
3E7C00
1FF800
07E000
ENDCHAR
STARTCHAR 1EDD
ENCODING 7901
SWIDTH 600 0
DWIDTH 20 0
BBX 18 25 2 0
BITMAP
180000
1E0000
0F0000
038000
01E000
0061C0
000180
000180
000380
07FF00
1FFE00
3E3800
780E00
700E00
E00700
E00700
E00700
E00700
E00700
E00700
700F00
780E00
3F7C00
1FF800
07E000
ENDCHAR
STARTCHAR 1EDE
ENCODING 7902
SWIDTH 600 0
DWIDTH 20 0
BBX 18 31 2 0
BITMAP
07E000
01F000
003800
003800
01F000
07C0C0
0001C0
0001C0
0001C0
07FF80
1FFF00
3E7800
381C00
700E00
700700
E00700
E00700
E00700
E00380
E00380
E00380
E00380
E00700
E00700
E00700
700700
700E00
381E00
3E7C00
1FF800
07E000
ENDCHAR
STARTCHAR 1EDF
ENCODING 7903
SWIDTH 600 0
DWIDTH 20 0
BBX 18 26 2 0
BITMAP
070000
0FE000
00F000
007000
007000
01E000
0781C0
000180
000180
000380
07FF00
1FFE00
3E3800
780E00
700E00
E00700
E00700
E00700
E00700
E00700
E00700
700F00
780E00
3F7C00
1FF800
07E000
ENDCHAR
STARTCHAR 1EE0
ENCODING 7904
SWIDTH 600 0
DWIDTH 20 0
BBX 18 30 2 0
BITMAP
0E0600
1F0C00
39CC00
30F800
3078C0
0001C0
0001C0
0001C0
07FF80
1FFF00
3E7800
381C00
700E00
700700
E00700
E00700
E00700
E00380
E00380
E00380
E00380
E00700
E00700
E00700
700700
700E00
381E00
3E7C00
1FF800
07E000
ENDCHAR
STARTCHAR 1EE1
ENCODING 7905
SWIDTH 600 0
DWIDTH 20 0
BBX 18 25 2 0
BITMAP
000400
0E0600
1F8C00
39CC00
30F800
3079C0
000180
000180
000380
07FF00
1FFE00
3E3800
780E00
700E00
E00700
E00700
E00700
E00700
E00700
E00700
700F00
780E00
3F7C00
1FF800
07E000
ENDCHAR
STARTCHAR 1EE2
ENCODING 7906
SWIDTH 600 0
DWIDTH 20 0
BBX 18 33 2 -7
BITMAP
0000C0
0001C0
0001C0
0001C0
07FF80
1FFF00
3E7800
381C00
700E00
700700
E00700
E00700
E00700
E00380
E00380
E00380
E00380
E00700
E00700
E00700
700700
700E00
381E00
3E7C00
1FF800
07E000
000000
000000
000000
01C000
03C000
03C000
01C000
ENDCHAR
STARTCHAR 1EE3
ENCODING 7907
SWIDTH 600 0
DWIDTH 20 0
BBX 18 27 2 -7
BITMAP
0001C0
000180
000180
000380
07FF00
1FFE00
3E3800
780E00
700E00
E00700
E00700
E00700
E00700
E00700
E00700
700F00
780E00
3F7C00
1FF800
07E000
000000
000000
000000
01C000
03C000
03C000
01C000
ENDCHAR
STARTCHAR 1EE4
ENCODING 7908
SWIDTH 600 0
DWIDTH 20 0
BBX 15 29 3 -7
BITMAP
C00E
C00E
C00E
C00E
C00E
C00E
C00E
C00E
C00E
C00E
C00E
C00E
C00E
C00E
C00E
E00E
E00E
E01C
F03C
7FF8
3FF0
0FE0
0000
0000
0000
0380
0780
0780
0380
ENDCHAR
STARTCHAR 1EE5
ENCODING 7909
SWIDTH 600 0
DWIDTH 20 0
BBX 14 23 3 -7
BITMAP
E01C
E01C
E01C
E01C
E01C
E01C
E01C
E01C
E01C
E01C
E01C
E03C
E0EC
FFCC
7F8C
3E0C
0000
0000
0000
0380
0780
0780
0300
ENDCHAR
STARTCHAR 1EE6
ENCODING 7910
SWIDTH 600 0
DWIDTH 20 0
BBX 15 31 3 0
BITMAP
0780
0FE0
00F0
0070
00E0
0FC0
0400
0000
0000
C00E
C00E
C00E
C00E
C00E
C00E
C00E
C00E
C00E
C00E
C00E
C00E
C00E
C00E
C00E
E00E
E00E
E01C
F03C
7FF8
3FF0
0FE0
ENDCHAR
STARTCHAR 1EE7
ENCODING 7911
SWIDTH 600 0
DWIDTH 20 0
BBX 14 25 3 1
BITMAP
0F80
03C0
00E0
00E0
01C0
0F80
0C00
0000
0000
E01C
E01C
E01C
E01C
E01C
E01C
E01C
E01C
E01C
E01C
E01C
E03C
E0EC
FFCC
7F8C
3E0C
ENDCHAR
STARTCHAR 1EE8
ENCODING 7912
SWIDTH 600 0
DWIDTH 20 0
BBX 19 30 3 1
BITMAP
003800
00F800
01E000
078000
060060
040060
0000E0
0000E0
C00FC0
C00F80
C00E00
C00E00
C00E00
C00E00
C00E00
C00E00
C00E00
C00E00
C00E00
C00E00
C00E00
C00E00
C00E00
E00E00
E00E00
E01C00
F03C00
7FF800
3FF000
0FE000
ENDCHAR
STARTCHAR 1EE9
ENCODING 7913
SWIDTH 600 0
DWIDTH 20 0
BBX 18 25 3 0
BITMAP
001000
007800
00F000
01C000
078000
0600C0
0400C0
0001C0
0001C0
E01F80
E01F00
E01C00
E01C00
E01C00
E01C00
E01C00
E01C00
E01C00
E01C00
E01C00
E07C00
E0EC00
FFCC00
7F8C00
3E0C00
ENDCHAR
STARTCHAR 1EEA
ENCODING 7914
SWIDTH 600 0
DWIDTH 20 0
BBX 19 30 3 1
BITMAP
300000
3C0000
1F0000
078000
01C060
000060
0000E0
0000E0
C00FC0
C00F80
C00E00
C00E00
C00E00
C00E00
C00E00
C00E00
C00E00
C00E00
C00E00
C00E00
C00E00
C00E00
C00E00
E00E00
E00E00
E01C00
F03C00
7FF800
3FF000
0FE000
ENDCHAR
STARTCHAR 1EEB
ENCODING 7915
SWIDTH 600 0
DWIDTH 20 0
BBX 18 25 3 0
BITMAP
100000
380000
1E0000
0F0000
038000
01C0C0
0000C0
0001C0
0001C0
E01F80
E01F00
E01C00
E01C00
E01C00
E01C00
E01C00
E01C00
E01C00
E01C00
E01C00
E07C00
E0EC00
FFCC00
7F8C00
3E0C00
ENDCHAR
STARTCHAR 1EEC
ENCODING 7916
SWIDTH 600 0
DWIDTH 20 0
BBX 19 31 3 0
BITMAP
078000
0FE000
00F000
007000
00E000
0FC060
040060
0000E0
0000E0
C00FC0
C00F80
C00E00
C00E00
C00E00
C00E00
C00E00
C00E00
C00E00
C00E00
C00E00
C00E00
C00E00
C00E00
C00E00
E00E00
E00E00
E01C00
F03C00
7FF800
3FF000
0FE000
ENDCHAR
STARTCHAR 1EED
ENCODING 7917
SWIDTH 600 0
DWIDTH 20 0
BBX 18 25 3 1
BITMAP
0F8000
03C000
00E000
00E000
01C000
0F80C0
0C00C0
0001C0
0001C0
E01F80
E01F00
E01C00
E01C00
E01C00
E01C00
E01C00
E01C00
E01C00
E01C00
E01C00
E07C00
E0EC00
FFCC00
7F8C00
3E0C00
ENDCHAR
STARTCHAR 1EEE
ENCODING 7918
SWIDTH 600 0
DWIDTH 20 0
BBX 19 30 3 0
BITMAP
1C0C00
3E1800
739800
61F000
E0F060
000060
0000E0
0000E0
C00FC0
C00F80
C00E00
C00E00
C00E00
C00E00
C00E00
C00E00
C00E00
C00E00
C00E00
C00E00
C00E00
C00E00
C00E00
E00E00
E00E00
E01C00
F03C00
7FF800
3FF000
0FE000
ENDCHAR
STARTCHAR 1EEF
ENCODING 7919
SWIDTH 600 0
DWIDTH 20 0
BBX 18 25 3 0
BITMAP
000800
1E0C00
3F1800
339800
61F000
60F0C0
0000C0
0001C0
0001C0
E01F80
E01F00
E01C00
E01C00
E01C00
E01C00
E01C00
E01C00
E01C00
E01C00
E01C00
E07C00
E0EC00
FFCC00
7F8C00
3E0C00
ENDCHAR
STARTCHAR 1EF0
ENCODING 7920
SWIDTH 600 0
DWIDTH 20 0
BBX 19 33 3 -7
BITMAP
000060
000060
0000E0
0000E0
C00FC0
C00F80
C00E00
C00E00
C00E00
C00E00
C00E00
C00E00
C00E00
C00E00
C00E00
C00E00
C00E00
C00E00
C00E00
E00E00
E00E00
E01C00
F03C00
7FF800
3FF000
0FE000
000000
000000
000000
038000
078000
078000
038000
ENDCHAR
STARTCHAR 1EF1
ENCODING 7921
SWIDTH 600 0
DWIDTH 20 0
BBX 18 27 3 -7
BITMAP
0000C0
0000C0
0001C0
0001C0
E01F80
E01F00
E01C00
E01C00
E01C00
E01C00
E01C00
E01C00
E01C00
E01C00
E01C00
E07C00
E0EC00
FFCC00
7F8C00
3E0C00
000000
000000
000000
038000
078000
078000
030000
ENDCHAR
STARTCHAR 1EF2
ENCODING 7922
SWIDTH 600 0
DWIDTH 20 0
BBX 17 30 2 1
BITMAP
180000
1E0000
0F8000
03C000
00E000
000000
000000
000000
E00380
F00700
700F00
780E00
381C00
1C1C00
1C3800
0E3800
0F7000
07F000
03E000
03C000
01C000
01C000
01C000
01C000
01C000
01C000
01C000
01C000
01C000
01C000
ENDCHAR
STARTCHAR 1EF3
ENCODING 7923
SWIDTH 600 0
DWIDTH 20 0
BBX 16 33 2 -8
BITMAP
0800
1E00
0F00
0380
01E0
0060
0000
0000
0000
E007
F007
7007
700E
380E
380C
1C1C
1C1C
1C38
0E38
0E30
0770
0770
07E0
03E0
03C0
01C0
0180
0380
0380
0700
7F00
FE00
F800
ENDCHAR
STARTCHAR 1EF4
ENCODING 7924
SWIDTH 600 0
DWIDTH 20 0
BBX 17 29 2 -7
BITMAP
E00380
F00700
700F00
780E00
381C00
1C1C00
1C3800
0E3800
0F7000
07F000
03E000
03C000
01C000
01C000
01C000
01C000
01C000
01C000
01C000
01C000
01C000
01C000
000000
000000
000000
01C000
03C000
03C000
01C000
ENDCHAR
STARTCHAR 1EF5
ENCODING 7925
SWIDTH 600 0
DWIDTH 20 0
BBX 16 24 2 -8
BITMAP
E007
F007
7007
700E
380E
380C
1C1C
1C1C
1C38
0E38
0E30
0770
0770
07E0
03E0
03C0
01C0
0180
0380
0386
070F
7F0F
FE0E
F800
ENDCHAR
STARTCHAR 1EF6
ENCODING 7926
SWIDTH 600 0
DWIDTH 20 0
BBX 17 31 2 0
BITMAP
03C000
07F000
007800
003800
007000
07E000
020000
000000
000000
E00380
F00700
700F00
780E00
381C00
1C1C00
1C3800
0E3800
0F7000
07F000
03E000
03C000
01C000
01C000
01C000
01C000
01C000
01C000
01C000
01C000
01C000
01C000
ENDCHAR
STARTCHAR 1EF7
ENCODING 7927
SWIDTH 600 0
DWIDTH 20 0
BBX 16 34 2 -8
BITMAP
0700
07E0
00F0
0070
0070
01E0
07C0
0000
0000
0000
E007
F007
7007
700E
380E
380C
1C1C
1C1C
1C38
0E38
0E30
0770
0770
07E0
03E0
03C0
01C0
0180
0380
0380
0700
7F00
FE00
F800
ENDCHAR
STARTCHAR 1EF8
ENCODING 7928
SWIDTH 600 0
DWIDTH 20 0
BBX 17 30 2 0
BITMAP
0E0600
1F0C00
39CC00
30F800
707800
000000
000000
000000
E00380
F00700
700F00
780E00
381C00
1C1C00
1C3800
0E3800
0F7000
07F000
03E000
03C000
01C000
01C000
01C000
01C000
01C000
01C000
01C000
01C000
01C000
01C000
ENDCHAR
STARTCHAR 1EF9
ENCODING 7929
SWIDTH 600 0
DWIDTH 20 0
BBX 16 33 2 -8
BITMAP
0004
0F06
1F8C
19CC
30FC
3078
0000
0000
0000
E007
F007
7007
700E
380E
380C
1C1C
1C1C
1C38
0E38
0E30
0770
0770
07E0
03E0
03C0
01C0
0180
0380
0380
0700
7F00
FE00
F800
ENDCHAR
STARTCHAR 2011
ENCODING 8209
SWIDTH 600 0
DWIDTH 20 0
BBX 12 3 4 8
BITMAP
FFF0
FFF0
FFF0
ENDCHAR
STARTCHAR 2013
ENCODING 8211
SWIDTH 600 0
DWIDTH 20 0
BBX 15 3 3 8
BITMAP
FFFE
FFFE
FFFE
ENDCHAR
STARTCHAR 2014
ENCODING 8212
SWIDTH 600 0
DWIDTH 20 0
BBX 17 3 2 8
BITMAP
FFFF80
FFFF80
FFFF80
ENDCHAR
STARTCHAR 2015
ENCODING 8213
SWIDTH 600 0
DWIDTH 20 0
BBX 17 3 2 8
BITMAP
FFFF80
FFFF80
FFFF80
ENDCHAR
STARTCHAR 2018
ENCODING 8216
SWIDTH 600 0
DWIDTH 20 0
BBX 8 9 7 15
BITMAP
0F
1E
3C
7C
78
F8
F0
F0
F0
ENDCHAR
STARTCHAR 2019
ENCODING 8217
SWIDTH 600 0
DWIDTH 20 0
BBX 8 9 6 15
BITMAP
1F
1F
1E
1E
3E
3C
78
70
E0
ENDCHAR
STARTCHAR 201A
ENCODING 8218
SWIDTH 600 0
DWIDTH 20 0
BBX 8 9 6 -5
BITMAP
1F
1F
1E
1E
3E
3C
78
70
E0
ENDCHAR
STARTCHAR 201C
ENCODING 8220
SWIDTH 600 0
DWIDTH 20 0
BBX 16 10 2 14
BITMAP
0703
0E0F
1E0E
3C1E
3C3C
783C
7878
7878
7878
F878
ENDCHAR
STARTCHAR 201D
ENCODING 8221
SWIDTH 600 0
DWIDTH 20 0
BBX 16 10 2 14
BITMAP
1F0F
1E0F
1E0E
1E1E
1C1E
3C3C
383C
7078
E070
C0E0
ENDCHAR
STARTCHAR 201E
ENCODING 8222
SWIDTH 600 0
DWIDTH 20 0
BBX 16 9 2 -5
BITMAP
1E0F
1E0F
1E1E
1E1E
3C1E
3C3C
7838
7070
E0E0
ENDCHAR
STARTCHAR 2020
ENCODING 8224
SWIDTH 600 0
DWIDTH 20 0
BBX 16 24 2 0
BITMAP
01C0
01C0
01C0
01C0
0180
0180
F98F
FFFF
F98F
0180
0180
0180
0180
0180
0180
0180
01C0
01C0
01C0
01C0
01C0
01C0
01C0
01C0
ENDCHAR
STARTCHAR 2021
ENCODING 8225
SWIDTH 600 0
DWIDTH 20 0
BBX 16 24 2 0
BITMAP
01C0
01C0
01C0
01C0
0180
0180
F98F
FFFF
F98F
0180
0180
0180
0180
0180
0180
799E
7FFE
798E
0180
0180
0180
01C0
01C0
01C0
ENDCHAR
STARTCHAR 2022
ENCODING 8226
SWIDTH 600 0
DWIDTH 20 0
BBX 9 9 6 7
BITMAP
3E00
7F00
FF00
FF80
FF80
FF80
FF00
7F00
1C00
ENDCHAR
STARTCHAR 2025
ENCODING 8229
SWIDTH 600 0
DWIDTH 20 0
BBX 15 5 3 0
BITMAP
F03C
F03E
F83E
F03E
F01C
ENDCHAR
STARTCHAR 2026
ENCODING 8230
SWIDTH 600 0
DWIDTH 20 0
BBX 18 5 1 0
BITMAP
70E180
F1E3C0
F1E3C0
F1E3C0
70E180
ENDCHAR
STARTCHAR 2039
ENCODING 8249
SWIDTH 600 0
DWIDTH 20 0
BBX 10 16 5 0
BITMAP
0040
00C0
03C0
0780
1F00
3C00
7800
F000
F000
7800
3C00
1F00
0780
03C0
00C0
0040
ENDCHAR
STARTCHAR 203A
ENCODING 8250
SWIDTH 600 0
DWIDTH 20 0
BBX 9 16 6 0
BITMAP
8000
C000
E000
F800
3C00
1E00
0F80
0780
0380
0F80
1F00
3C00
7800
E000
C000
8000
ENDCHAR
STARTCHAR 2044
ENCODING 8260
SWIDTH 600 0
DWIDTH 20 0
BBX 20 22 0 0
BITMAP
000070
0000E0
0000C0
0001C0
000380
000700
000600
000C00
001800
003800
007000
006000
00C000
018000
038000
070000
0E0000
0C0000
1C0000
380000
700000
E00000
ENDCHAR
STARTCHAR 2070
ENCODING 8304
SWIDTH 600 0
DWIDTH 20 0
BBX 10 13 5 11
BITMAP
1F00
3F80
6180
60C0
C1C0
C3C0
CCC0
D8C0
F0C0
E0C0
61C0
3F80
1F00
ENDCHAR
STARTCHAR 2074
ENCODING 8308
SWIDTH 600 0
DWIDTH 20 0
BBX 11 13 5 11
BITMAP
0700
0700
0D00
1900
1100
3100
6100
C100
FFE0
FFE0
0300
0300
0300
ENDCHAR
STARTCHAR 2075
ENCODING 8309
SWIDTH 600 0
DWIDTH 20 0
BBX 9 13 6 11
BITMAP
FF00
FF00
C000
C000
DC00
FF00
C380
0180
0180
0180
0700
FE00
F800
ENDCHAR
STARTCHAR 2076
ENCODING 8310
SWIDTH 600 0
DWIDTH 20 0
BBX 10 13 5 11
BITMAP
0700
0E00
1C00
3800
3400
7F80
61C0
E0C0
C0C0
E0C0
61C0
7F80
1F00
ENDCHAR
STARTCHAR 2077
ENCODING 8311
SWIDTH 600 0
DWIDTH 20 0
BBX 10 13 5 11
BITMAP
FFC0
FFC0
0180
0180
0300
0300
0600
0600
0C00
1C00
1800
3800
3000
ENDCHAR
STARTCHAR 2078
ENCODING 8312
SWIDTH 600 0
DWIDTH 20 0
BBX 10 14 5 10
BITMAP
1F00
7F80
61C0
60C0
60C0
7180
1F00
3F80
60C0
C0C0
C0C0
61C0
7F80
0C00
ENDCHAR
STARTCHAR 2079
ENCODING 8313
SWIDTH 600 0
DWIDTH 20 0
BBX 10 13 5 11
BITMAP
1F00
7F80
61C0
E0C0
C0C0
E0C0
60C0
3F80
0B80
0300
0600
0C00
3800
ENDCHAR
STARTCHAR 2080
ENCODING 8320
SWIDTH 600 0
DWIDTH 20 0
BBX 10 14 5 -8
BITMAP
1E00
3F80
7180
60C0
C1C0
C3C0
C6C0
CCC0
F8C0
E0C0
60C0
6180
3F80
1F00
ENDCHAR
STARTCHAR 2081
ENCODING 8321
SWIDTH 600 0
DWIDTH 20 0
BBX 9 13 6 -8
BITMAP
0400
1C00
FC00
EC00
8C00
0C00
0C00
0C00
0C00
0C00
0C00
FF80
FF80
ENDCHAR
STARTCHAR 2082
ENCODING 8322
SWIDTH 600 0
DWIDTH 20 0
BBX 10 13 5 -8
BITMAP
1F00
3F80
E1C0
40C0
00C0
0180
0380
0700
0E00
1800
3000
7FC0
7FC0
ENDCHAR
STARTCHAR 2083
ENCODING 8323
SWIDTH 600 0
DWIDTH 20 0
BBX 10 13 5 -8
BITMAP
FFC0
FF80
0300
0600
0C00
1F00
1FC0
00C0
00C0
00C0
03C0
7F80
7C00
ENDCHAR
STARTCHAR 2084
ENCODING 8324
SWIDTH 600 0
DWIDTH 20 0
BBX 11 13 5 -8
BITMAP
0300
0700
0D00
1900
1900
3100
6100
6100
FFE0
FFE0
0300
0300
0300
ENDCHAR
STARTCHAR 2085
ENCODING 8325
SWIDTH 600 0
DWIDTH 20 0
BBX 9 13 6 -8
BITMAP
FF00
FF00
C000
C000
DC00
FF00
C380
0180
0180
0380
0700
FE00
F000
ENDCHAR
STARTCHAR 2086
ENCODING 8326
SWIDTH 600 0
DWIDTH 20 0
BBX 10 13 5 -8
BITMAP
0700
0E00
1C00
3800
3400
7F80
61C0
E0C0
C0C0
E0C0
61C0
7F80
1F00
ENDCHAR
STARTCHAR 2087
ENCODING 8327
SWIDTH 600 0
DWIDTH 20 0
BBX 10 13 5 -8
BITMAP
FFC0
FFC0
0180
0180
0300
0300
0600
0600
0C00
0C00
1800
1800
3800
ENDCHAR
STARTCHAR 2088
ENCODING 8328
SWIDTH 600 0
DWIDTH 20 0
BBX 10 14 5 -8
BITMAP
0C00
3F80
7180
60C0
60C0
6180
3F80
1F00
6180
C0C0
C0C0
E0C0
7F80
1F00
ENDCHAR
STARTCHAR 2089
ENCODING 8329
SWIDTH 600 0
DWIDTH 20 0
BBX 10 14 5 -8
BITMAP
0E00
3F80
7180
E0C0
C0C0
C0C0
E0C0
70C0
3F80
0B80
0300
0600
0C00
3800
ENDCHAR
STARTCHAR 20A6
ENCODING 8358
SWIDTH 600 0
DWIDTH 20 0
BBX 20 22 0 0
BITMAP
0F0380
0F0380
0F0380
0D8380
0D8380
0D8380
0CC380
FCC3F0
FCFFF0
0C6180
0C6180
0C6180
0C3180
FFF1F0
FC31F0
0C1980
0C1980
0C1D80
0C0D80
0C0D80
0C0F80
0C0780
ENDCHAR
STARTCHAR 20A9
ENCODING 8361
SWIDTH 600 0
DWIDTH 20 0
BBX 20 22 0 0
BITMAP
3000C0
1000C0
1000C0
1800C0
1800C0
1870C0
1870C0
18F080
18D080
18D080
FF9FF0
FF9FF0
189980
199980
198980
098980
090D80
090D80
0D0D80
0F0D80
0F0700
0F0700
ENDCHAR
STARTCHAR 20AB
ENCODING 8363
SWIDTH 600 0
DWIDTH 20 0
BBX 18 27 2 -5
BITMAP
000E00
000E00
000E00
03FFC0
03FFC0
000E00
000E00
000E00
0FEE00
1FFE00
7C3E00
700E00
E00E00
E00E00
E00E00
E00E00
E00E00
F00E00
701E00
7E7E00
3FE600
0F8600
000000
000000
000000
7FFE00
7FFE00
ENDCHAR
STARTCHAR 20AC
ENCODING 8364
SWIDTH 600 0
DWIDTH 20 0
BBX 17 22 2 0
BITMAP
00FC00
03FF80
07CF80
0E0100
1C0000
1C0000
1C0000
180000
FFF800
FFF800
380000
380000
FFF800
FFF800
180000
1C0000
1C0000
1C0000
0E0180
0FCF80
07FF80
00FE00
ENDCHAR
STARTCHAR 20B1
ENCODING 8369
SWIDTH 600 0
DWIDTH 20 0
BBX 19 22 1 0
BITMAP
1FF000
1FFC00
187E00
180E00
180700
180700
FFFFE0
F807E0
180700
180700
180F00
181E00
1FFC00
1FF000
180000
180000
180000
180000
180000
180000
180000
180000
ENDCHAR
STARTCHAR 20B9
ENCODING 8377
SWIDTH 600 0
DWIDTH 20 0
BBX 16 22 2 0
BITMAP
FFFF
FFFF
0038
0038
0038
0038
FFFF
FFFF
0038
0038
0038
0070
01F0
FFE0
FF80
7C00
1E00
0F80
03C0
01F0
007C
001E
ENDCHAR
STARTCHAR 20BA
ENCODING 8378
SWIDTH 600 0
DWIDTH 20 0
BBX 18 22 1 0
BITMAP
1C0000
1C0000
1C0000
1C1000
1C7000
1CE000
1FC000
1F0000
3C0000
FC3000
FCF000
9DE000
1F81C0
1E01C0
7C01C0
FC0180
DC0380
1C0780
1C0F00
1C7E00
1FFC00
1FE000
ENDCHAR
STARTCHAR 20BD
ENCODING 8381
SWIDTH 600 0
DWIDTH 20 0
BBX 19 22 1 0
BITMAP
1FFE00
1FFF80
1C0FC0
1C01C0
1C01C0
1C00E0
1C00E0
1C00E0
1C01C0
1C01C0
1C0780
FFFF00
FFFC00
1C0000
1C0000
1C0000
FFFC00
FFFC00
1C0000
1C0000
1C0000
1C0000
ENDCHAR
STARTCHAR 2117
ENCODING 8471
SWIDTH 600 0
DWIDTH 20 0
BBX 17 27 2 -3
BITMAP
07E000
1FF800
380C00
300600
600600
600300
47E300
C7F300
C63100
C63900
C61900
C61900
863980
863180
87F180
C7C100
C60100
C60100
C60100
C60300
460300
600200
600600
300C00
181C00
0FF000
008000
ENDCHAR
STARTCHAR 2120
ENCODING 8480
SWIDTH 600 0
DWIDTH 20 0
BBX 18 10 1 14
BITMAP
3E7180
7E71C0
C07BC0
406AC0
786EC0
1C64C0
0664C0
0260C0
C660C0
FE60C0
ENDCHAR
STARTCHAR 2122
ENCODING 8482
SWIDTH 600 0
DWIDTH 20 0
BBX 18 10 1 14
BITMAP
FF7180
FF71C0
187BC0
186AC0
186AC0
1864C0
1864C0
1860C0
1860C0
1860C0
ENDCHAR
STARTCHAR 2153
ENCODING 8531
SWIDTH 600 0
DWIDTH 20 0
BBX 20 30 0 -8
BITMAP
0C0000
3C0000
FC0000
EC0000
8C0000
0C0000
0C0020
0C0070
0C00E0
0C01C0
0C0380
FF8700
FF8C00
001800
003000
004000
018000
031FF0
061FE0
1C00C0
380180
700300
E007C0
4007F0
000030
000030
000030
0000F0
001FE0
001F00
ENDCHAR
STARTCHAR 2154
ENCODING 8532
SWIDTH 600 0
DWIDTH 20 0
BBX 20 30 0 -8
BITMAP
1F0000
3F8000
F1C000
40C000
00C000
018000
038020
070070
0E00F0
1801C0
300380
7FC700
7FCC00
001800
003000
004000
018000
031FF0
061FE0
1C00C0
380180
700300
E007C0
4007F0
000030
000030
000030
0000F0
001FE0
001F00
ENDCHAR
STARTCHAR 2155
ENCODING 8533
SWIDTH 600 0
DWIDTH 20 0
BBX 20 30 0 -8
BITMAP
0C0000
3C0000
FC0000
EC0000
8C0000
0C0000
0C0020
0C0070
0C00E0
0C01C0
0C0380
FF8700
FF8C00
001800
003000
004000
018000
031FE0
061FE0
1C1800
381800
701380
E01FE0
403860
000070
000030
000060
0001E0
003FC0
003E00
ENDCHAR
STARTCHAR 2156
ENCODING 8534
SWIDTH 600 0
DWIDTH 20 0
BBX 20 30 0 -8
BITMAP
1F0000
3F8000
F1C000
40C000
00C000
018000
038020
070070
0E00F0
1801C0
300380
7FC700
7FCC00
001800
003000
004000
018000
031FE0
061FE0
1C1800
381800
701380
E01FE0
403860
000070
000030
000060
0001E0
003FC0
003E00
ENDCHAR
STARTCHAR 2157
ENCODING 8535
SWIDTH 600 0
DWIDTH 20 0
BBX 20 30 0 -8
BITMAP
7FC000
7FC000
038000
060000
0C0000
1F8000
1FC030
00C070
00C0E0
00C1C0
03C380
7F8600
7C0C00
001800
003000
004000
018000
031FE0
061FE0
1C1800
381800
701380
E01FE0
403860
000070
000030
000060
0001E0
003FC0
003E00
ENDCHAR
STARTCHAR 2158
ENCODING 8536
SWIDTH 600 0
DWIDTH 20 0
BBX 20 30 0 -8
BITMAP
038000
078000
0D8000
098000
198000
318000
618030
418070
FFE0E0
FFE1C0
018380
018600
018C00
001800
003000
004000
018000
031FE0
061FE0
1C1800
381800
701380
E01FE0
403860
000070
000030
000060
0001E0
003FC0
003E00
ENDCHAR
STARTCHAR 2159
ENCODING 8537
SWIDTH 600 0
DWIDTH 20 0
BBX 20 30 0 -8
BITMAP
0C0000
3C0000
FC0000
EC0000
8C0000
0C0000
0C0020
0C0070
0C00E0
0C01C0
0C0380
FF8600
FF8C00
001800
003000
004000
018000
030700
060600
1C0C00
381800
703600
E07F80
4061C0
0060C0
0060E0
0060C0
0070C0
003F80
001F00
ENDCHAR
STARTCHAR 215A
ENCODING 8538
SWIDTH 600 0
DWIDTH 20 0
BBX 20 30 0 -8
BITMAP
3FC000
7FC000
600000
600000
660000
7F8000
70C030
00C070
00C0E0
00C1C0
03C380
7F8600
7C0C00
001800
002000
004000
018000
030700
060E00
1C0C00
381800
703600
E07F80
4061C0
0060C0
0060E0
0060C0
0070C0
003F80
001F00
ENDCHAR
STARTCHAR 215B
ENCODING 8539
SWIDTH 600 0
DWIDTH 20 0
BBX 20 30 0 -8
BITMAP
0C0000
3C0000
FC0000
EC0000
8C0000
0C0000
0C0020
0C0070
0C00E0
0C01C0
0C0380
FF8600
FF8C00
001800
002000
004000
018200
031FC0
0638E0
1C3060
383060
703060
E01DC0
400F80
0038E0
003060
003060
003060
003FE0
000F80
ENDCHAR
STARTCHAR 215C
ENCODING 8540
SWIDTH 600 0
DWIDTH 20 0
BBX 20 30 0 -8
BITMAP
7FC000
7FC000
038000
060000
0C0000
1F8000
1FC030
00C070
00C0E0
00C1C0
03C380
7F8600
7C0C00
001800
002000
004000
018200
031FC0
0638E0
1C3060
383060
703060
E01DC0
400F80
0038E0
003060
003060
003060
003FE0
000F80
ENDCHAR
STARTCHAR 215D
ENCODING 8541
SWIDTH 600 0
DWIDTH 20 0
BBX 20 30 0 -8
BITMAP
3FC000
7FC000
600000
600000
660000
7F8000
70C030
00C070
00C0E0
00C1C0
03C380
7F8600
7C0C00
001800
002000
004000
018200
031FC0
0638E0
1C3060
383060
703060
E01DC0
400F80
0038E0
003060
003060
003060
003FE0
000F80
ENDCHAR
STARTCHAR 215E
ENCODING 8542
SWIDTH 600 0
DWIDTH 20 0
BBX 20 30 0 -8
BITMAP
7FE000
7FE000
006000
00C000
00C000
018000
018030
030070
0700E0
0601C0
0E0380
0C0600
1C0C00
001800
002000
00C000
018200
031FC0
0638E0
1C3060
383060
703060
E01DC0
400F80
0038E0
003060
003060
003060
003FE0
000F80
ENDCHAR
STARTCHAR 2212
ENCODING 8722
SWIDTH 600 0
DWIDTH 20 0
BBX 16 2 2 10
BITMAP
FFFF
FFFF
ENDCHAR
STARTCHAR 2248
ENCODING 8776
SWIDTH 600 0
DWIDTH 20 0
BBX 17 16 2 3
BITMAP
1C0100
3E0380
7F8300
E3C700
E0FE00
C07E00
C01C00
000000
000000
1C0100
3E0380
7F8300
E3C700
E0FE00
C07E00
C01C00
ENDCHAR
STARTCHAR 2260
ENCODING 8800
SWIDTH 600 0
DWIDTH 20 0
BBX 14 18 3 2
BITMAP
0018
0038
0030
0070
0060
FFFC
FFFC
0180
0180
0300
0600
FFFC
FFFC
0C00
1800
1800
3000
7000
ENDCHAR
STARTCHAR 2264
ENCODING 8804
SWIDTH 600 0
DWIDTH 20 0
BBX 14 22 3 0
BITMAP
0004
001C
00FC
03F0
1F80
7E00
F000
E000
F800
3E00
0FC0
03F0
00FC
001C
0004
0000
0000
0000
0000
0000
FFFC
FFFC
ENDCHAR
STARTCHAR 2265
ENCODING 8805
SWIDTH 600 0
DWIDTH 20 0
BBX 14 22 3 0
BITMAP
8000
F000
FC00
1F00
07E0
01F8
003C
000C
007C
01F8
07C0
3F00
FC00
F000
C000
0000
0000
0000
0000
0000
FFFC
FFFC
ENDCHAR
STARTCHAR A788
ENCODING 42888
SWIDTH 600 0
DWIDTH 20 0
BBX 11 7 5 -9
BITMAP
0C00
1E00
3F00
7B80
61C0
C0E0
8060
ENDCHAR
ENDFONT
